<svg width="24" height="24" viewBox="0 0 24 24" fill="none" xmlns="http://www.w3.org/2000/svg">
<rect width="24" height="24" rx="5" fill="white"/>
<path d="M15.2244 5.76636C15.2779 5.80994 15.331 5.85398 15.3838 5.89844C15.4129 5.9223 15.4421 5.94616 15.4721 5.97074C16.1808 6.57468 16.6455 7.48542 16.7318 8.41244C16.8031 9.5274 16.5142 10.5545 15.7717 11.4027C15.1428 12.0947 14.2261 12.5943 13.2813 12.6441C12.7377 12.6613 12.1842 12.6673 11.6748 12.4496C11.348 12.3675 10.9699 12.4889 10.6477 12.5559C10.5997 12.5657 10.5518 12.5754 10.5039 12.5852C10.3535 12.6157 10.2032 12.6466 10.0529 12.6776C9.87785 12.7136 9.70278 12.7495 9.52765 12.7851C9.45807 12.7993 9.38854 12.8137 9.31901 12.8282C9.25533 12.8412 9.25533 12.8412 9.19035 12.8544C9.15321 12.862 9.11607 12.8697 9.0778 12.8776C8.96775 12.8945 8.86378 12.8968 8.75261 12.8939C8.80439 12.6267 8.88914 12.3823 8.98503 12.1279C9.01596 12.0425 9.04677 11.9571 9.07746 11.8716C9.12531 11.7384 9.1737 11.6055 9.22435 11.4733C9.47621 10.8486 9.47621 10.8486 9.37727 10.2066C9.34039 10.1288 9.30157 10.0528 9.26067 9.97703C9.11831 9.68431 9.0962 9.31635 9.08052 8.9954C9.07902 8.96727 9.07752 8.93914 9.07597 8.91015C9.04737 7.83578 9.48371 6.88775 10.21 6.11705C10.2301 6.0946 10.2502 6.07215 10.2709 6.04902C11.5229 4.70412 13.8148 4.69934 15.2244 5.76636ZM12.3597 6.18992C12.2382 6.36233 12.2186 6.53162 12.2504 6.73644C12.3172 6.92899 12.4343 7.04525 12.6147 7.13722C12.7953 7.1874 12.9242 7.17563 13.0935 7.10378C13.2359 7.0209 13.3117 6.90055 13.3935 6.75921C13.4387 6.56928 13.4059 6.42225 13.3184 6.25368C13.2004 6.11345 13.1076 6.02263 12.9213 5.99251C12.685 5.98054 12.5233 6.01364 12.3597 6.18992ZM12.3437 8.32591C12.254 8.46227 12.2454 8.5369 12.2439 8.70025C12.2434 8.74538 12.243 8.7905 12.2425 8.837C12.2422 8.88652 12.2419 8.93605 12.2417 8.98558C12.2415 9.01052 12.2414 9.03546 12.2412 9.06115C12.2405 9.19327 12.2399 9.32538 12.2396 9.4575C12.2392 9.59357 12.2379 9.72962 12.2365 9.86569C12.2355 9.97062 12.2352 10.0756 12.2351 10.1805C12.2349 10.2306 12.2345 10.2807 12.2338 10.3309C12.2267 10.7098 12.2267 10.7098 12.3961 11.0358C12.5478 11.1638 12.6709 11.2145 12.8697 11.2179C13.0958 11.1731 13.2154 11.0782 13.3434 10.89C13.4082 10.7545 13.4256 10.6469 13.4263 10.4972C13.4266 10.4557 13.427 10.4143 13.4273 10.3715C13.4273 10.3271 13.4273 10.2826 13.4272 10.2367C13.4275 10.1677 13.4275 10.1677 13.4277 10.0972C13.4279 9.99989 13.428 9.90257 13.4278 9.80524C13.4276 9.68106 13.4282 9.5569 13.429 9.43272C13.4297 9.31361 13.4296 9.1945 13.4295 9.07539C13.4298 9.03105 13.4302 8.98671 13.4305 8.94104C13.4291 8.68777 13.424 8.47926 13.2549 8.27738C13.1147 8.17018 12.9964 8.09916 12.8219 8.07087C12.6282 8.09789 12.476 8.18348 12.3437 8.32591Z" fill="#2666EE"/>
<path d="M17.8978 13.3311C18.0674 13.4206 18.2008 13.5115 18.2621 13.6955C18.2911 13.8722 18.2965 14.0289 18.2137 14.1912C18.1521 14.2768 18.0878 14.3588 18.0196 14.4393C17.9663 14.5022 17.9143 14.566 17.8625 14.6301C17.8031 14.7034 17.7437 14.7766 17.684 14.8495C17.5388 15.0268 17.3984 15.2071 17.2601 15.3897C17.0853 15.6204 16.9057 15.8465 16.7223 16.0705C16.5444 16.2881 16.3706 16.5086 16.1976 16.73C15.9585 17.0362 15.7181 17.3415 15.4745 17.6442C15.3831 17.7578 15.2929 17.872 15.2044 17.9879C14.8506 18.451 14.4503 18.8274 13.8535 18.9421C13.7033 18.9545 13.5533 18.9565 13.4026 18.9585C13.3576 18.9593 13.3127 18.9601 13.2664 18.961C13.1177 18.9635 12.969 18.9655 12.8204 18.9671C12.7949 18.9674 12.7694 18.9677 12.7431 18.968C12.5016 18.9707 12.26 18.9729 12.0184 18.9745C11.7123 18.9765 11.4063 18.9802 11.1003 18.9862C10.8836 18.9903 10.6669 18.9924 10.4502 18.993C10.3216 18.9935 10.1931 18.9947 10.0645 18.9982C9.31829 19.0176 8.81254 18.8779 8.18149 18.4987C8.01264 18.4057 7.83503 18.3296 7.65956 18.2498C7.65956 17.2399 7.65956 16.2299 7.65956 15.1893C7.87817 15.1164 7.87817 15.1164 7.98107 15.0864C8.37137 14.9687 8.65749 14.7849 8.93706 14.4925C9.24133 14.1745 9.58367 14.0272 10.0256 14.0137C10.087 14.0135 10.1485 14.0137 10.21 14.0143C10.2405 14.014 10.2711 14.0137 10.3025 14.0134C10.7481 14.0148 11.134 14.1378 11.4579 14.456C11.5488 14.5531 11.6354 14.6535 11.7221 14.7544C11.9707 15.0568 11.9707 15.0568 12.3245 15.1828C12.3925 15.1833 12.4605 15.1825 12.5285 15.1806C12.5829 15.1808 12.5829 15.1808 12.6384 15.1809C12.7535 15.1811 12.8685 15.1796 12.9836 15.1779C13.099 15.1768 13.2143 15.176 13.3296 15.1761C13.4012 15.1761 13.4727 15.1753 13.5442 15.1738C13.7565 15.1731 13.8734 15.1947 14.0357 15.335C14.0915 15.4287 14.1057 15.5179 14.1085 15.6265C14.0684 15.7707 14.0382 15.8525 13.9172 15.9426C13.8028 15.9977 13.7278 16.0046 13.6014 16.0049C13.5588 16.0053 13.5162 16.0056 13.4724 16.006C13.404 16.0058 13.404 16.0058 13.3342 16.0057C13.2622 16.0063 13.1902 16.0069 13.1182 16.0075C12.9666 16.0087 12.8149 16.0089 12.6633 16.0093C12.5382 16.0096 12.4132 16.0102 12.2881 16.0113C12.1944 16.0121 12.1007 16.0124 12.007 16.0122C11.9645 16.0125 11.9221 16.0129 11.8784 16.0133C11.8411 16.0134 11.8038 16.0134 11.7653 16.0135C11.6531 16.0293 11.603 16.059 11.5217 16.1366C11.4975 16.207 11.4975 16.207 11.5012 16.2823C11.5 16.3195 11.5 16.3195 11.4987 16.3575C11.5167 16.4364 11.5167 16.4364 11.6013 16.4863C11.7146 16.5428 11.7836 16.5512 11.9094 16.5515C11.9498 16.5519 11.9902 16.5522 12.0318 16.5526C12.0751 16.5524 12.1185 16.5521 12.1631 16.5519C12.2306 16.5521 12.2306 16.5521 12.2994 16.5522C12.4189 16.5523 12.5383 16.5519 12.6578 16.5513C12.7783 16.5509 12.8988 16.5517 13.0193 16.5523C13.1119 16.5523 13.2045 16.5521 13.2971 16.5519C13.3616 16.5522 13.3616 16.5522 13.4274 16.5526C14.144 16.5465 14.4918 16.1615 14.9669 15.6792C15.0775 15.5674 15.1924 15.4632 15.3126 15.3618C15.4256 15.2614 15.5303 15.1528 15.6364 15.0452C15.753 14.9277 15.8738 14.8184 15.9997 14.7111C16.0957 14.6252 16.186 14.534 16.2764 14.4424C16.4093 14.3077 16.5454 14.1802 16.6897 14.0578C16.7726 13.9831 16.8499 13.9045 16.9276 13.8245C17.4892 13.2484 17.4892 13.2484 17.8978 13.3311Z" fill="#2666EE"/>
<path d="M6.3422 14.4413C6.37559 14.4411 6.40899 14.4409 6.44339 14.4407C6.47801 14.4412 6.51262 14.4418 6.54828 14.4424C6.5829 14.4418 6.61751 14.4413 6.65318 14.4407C6.90389 14.4421 6.90389 14.4421 7.02535 14.5255C7.10462 14.6506 7.11757 14.7633 7.1179 14.9095C7.11805 14.9407 7.11821 14.9719 7.11837 15.004C7.11835 15.038 7.11833 15.0719 7.11832 15.1069C7.11844 15.1429 7.11856 15.1788 7.11869 15.2159C7.11903 15.3349 7.11911 15.4539 7.11915 15.5729C7.11926 15.6555 7.11938 15.7382 7.11951 15.8209C7.11973 15.9942 7.1198 16.1675 7.11978 16.3409C7.11977 16.563 7.12027 16.7852 7.1209 17.0074C7.1213 17.1781 7.12138 17.3489 7.12136 17.5196C7.1214 17.6016 7.12156 17.6835 7.12184 17.7654C7.1222 17.8799 7.1221 17.9944 7.12188 18.1089C7.12208 18.1428 7.12229 18.1767 7.1225 18.2116C7.12155 18.4053 7.11113 18.5552 6.99176 18.7157C6.86664 18.8066 6.69933 18.777 6.55056 18.7759C6.51578 18.7766 6.481 18.7773 6.44517 18.7781C6.41161 18.778 6.37806 18.778 6.34348 18.778C6.31289 18.7781 6.28229 18.7781 6.25077 18.7782C6.12756 18.7517 6.09417 18.7174 6.01998 18.6142C5.99764 18.487 6.00009 18.3609 6.00112 18.232C6.00087 18.1932 6.00061 18.1543 6.00035 18.1142C5.99971 17.9856 6.00013 17.857 6.00062 17.7284C6.00053 17.6391 6.00038 17.5498 6.0002 17.4605C5.99999 17.2733 6.0003 17.0861 6.00098 16.8989C6.00181 16.6587 6.00133 16.4186 6.00046 16.1784C5.99993 15.994 6.0001 15.8096 6.00048 15.6252C6.00057 15.5367 6.00045 15.4481 6.00012 15.3595C5.99975 15.2358 6.00031 15.1122 6.00112 14.9885C6.00083 14.9518 6.00053 14.915 6.00023 14.8772C6.00325 14.6296 6.00325 14.6296 6.08875 14.5108C6.18034 14.4511 6.23335 14.4418 6.3422 14.4413Z" fill="#2666EE"/>
</svg>
