<svg width="24" height="24" viewBox="0 0 24 24" fill="none" xmlns="http://www.w3.org/2000/svg">
<rect width="24" height="24" rx="5" fill="white"/>
<path d="M9.69061 5.01454C10.4212 5.01191 11.1518 5.00992 11.8824 5.00871C12.2217 5.00812 12.5609 5.00733 12.9001 5.00604C13.1958 5.00492 13.4915 5.00419 13.7872 5.00394C13.9438 5.0038 14.1003 5.00345 14.2569 5.00263C14.4043 5.00187 14.5517 5.00163 14.6991 5.0018C14.7531 5.00177 14.8072 5.00155 14.8612 5.00111C14.9351 5.00055 15.0091 5.00069 15.083 5.00099C15.1043 5.00067 15.1255 5.00034 15.1474 5C15.3309 5.00205 15.4763 5.06203 15.6134 5.18453C15.6289 5.20338 15.6443 5.22222 15.6602 5.24164C15.6761 5.26055 15.6921 5.27947 15.7085 5.29896C15.787 5.40981 15.7785 5.5215 15.778 5.65145C15.778 5.68451 15.778 5.68451 15.7781 5.71824C15.7781 5.79232 15.778 5.8664 15.7778 5.94049C15.7778 5.9935 15.7778 6.04652 15.7778 6.09954C15.7778 6.24368 15.7777 6.38782 15.7775 6.53196C15.7773 6.68251 15.7773 6.83307 15.7773 6.98363C15.7772 7.26882 15.7769 7.55402 15.7766 7.83922C15.7763 8.16386 15.7762 8.48851 15.776 8.81315C15.7757 9.48106 15.7752 10.149 15.7746 10.8169C15.3471 10.8169 14.9195 10.8169 14.479 10.8169C14.4776 10.6454 14.4762 10.4738 14.4748 10.2971C14.4738 10.1885 14.4728 10.0799 14.4717 9.97133C14.47 9.79893 14.4684 9.62652 14.4671 9.45412C14.466 9.31513 14.4647 9.17615 14.4632 9.03717C14.4627 8.98412 14.4623 8.93107 14.462 8.87802C14.4615 8.80377 14.4607 8.72953 14.4598 8.65528C14.4597 8.6333 14.4596 8.61132 14.4596 8.58867C14.4575 8.4405 14.4575 8.4405 14.3945 8.31005C14.2733 8.24948 14.112 8.27549 13.9775 8.27512C13.9177 8.27484 13.8579 8.27397 13.7982 8.27308C13.7602 8.2729 13.7222 8.27275 13.6842 8.27264C13.6323 8.27225 13.6323 8.27225 13.5794 8.27184C13.4965 8.27547 13.4965 8.27547 13.4462 8.3101C13.3862 8.39989 13.3963 8.49644 13.3964 8.60092C13.3962 8.62484 13.3959 8.64875 13.3956 8.67339C13.3947 8.75249 13.3945 8.83158 13.3942 8.91068C13.3937 8.9655 13.3932 9.02032 13.3927 9.07514C13.3913 9.21948 13.3905 9.36381 13.3898 9.50815C13.3889 9.65541 13.3876 9.80267 13.3863 9.94993C13.3839 10.2389 13.382 10.5279 13.3805 10.8169C13.3438 10.8182 13.3071 10.8196 13.2694 10.821C13.2208 10.8231 13.1722 10.8252 13.1235 10.8273C13.0994 10.8282 13.0754 10.8291 13.0505 10.8299C12.8896 10.8373 12.7579 10.862 12.6119 10.9341C12.5636 10.9577 12.5636 10.9577 12.5073 10.9577C12.5071 10.929 12.5071 10.929 12.507 10.8997C12.5058 10.7004 12.5038 10.5012 12.5014 10.302C12.5006 10.2277 12.5 10.1533 12.4996 10.0789C12.499 9.97208 12.4977 9.86527 12.4963 9.75843C12.4962 9.70848 12.4962 9.70848 12.4962 9.65751C12.4956 9.6265 12.4951 9.5955 12.4945 9.56355C12.4942 9.53628 12.494 9.50901 12.4937 9.48091C12.4749 9.38774 12.4404 9.35386 12.3664 9.29588C12.2813 9.27995 12.2813 9.27995 12.1869 9.28389C12.1522 9.28413 12.1175 9.28436 12.0817 9.28461C12.0455 9.28542 12.0094 9.28624 11.9721 9.28708C11.9179 9.28749 11.9179 9.28749 11.8625 9.28791C11.6614 9.28701 11.6614 9.28701 11.4651 9.32405C11.4388 9.41332 11.4333 9.49347 11.4332 9.58638C11.4331 9.61671 11.4329 9.64704 11.4328 9.67828C11.4328 9.71141 11.4328 9.74454 11.4329 9.77868C11.4328 9.81368 11.4327 9.84868 11.4326 9.88474C11.4323 9.98065 11.4323 10.0765 11.4322 10.1725C11.4322 10.2324 11.4322 10.2923 11.4321 10.3522C11.4318 10.5613 11.4317 10.7703 11.4317 10.9794C11.4317 11.1743 11.4314 11.3691 11.431 11.564C11.4306 11.7314 11.4305 11.8987 11.4305 12.0661C11.4305 12.166 11.4304 12.266 11.4301 12.3659C11.4298 12.4773 11.4299 12.5887 11.4301 12.7001C11.4299 12.7332 11.4298 12.7664 11.4296 12.8005C11.4297 12.8308 11.4299 12.8611 11.43 12.8924C11.43 12.9187 11.43 12.9451 11.4299 12.9722C11.4374 13.0466 11.4531 13.092 11.4933 13.1547C11.5595 13.1878 11.6046 13.1885 11.6783 13.1918C11.7011 13.1929 11.7238 13.1939 11.7472 13.1951C11.7906 13.1969 11.7906 13.1969 11.8348 13.1987C11.9266 13.2028 12.0184 13.2069 12.1129 13.2111C12.1129 13.5643 12.1129 13.9175 12.1129 14.2814C11.9065 14.2825 11.9065 14.2825 11.6959 14.2835C11.2419 14.2859 10.7879 14.2884 10.334 14.291C10.0586 14.2925 9.7833 14.294 9.50797 14.2954C9.26802 14.2966 9.02808 14.2979 8.78814 14.2993C8.66106 14.3001 8.53398 14.3008 8.4069 14.3014C8.28733 14.3019 8.16776 14.3026 8.04819 14.3034C8.00428 14.3036 7.96036 14.3039 7.91644 14.304C7.85653 14.3043 7.79662 14.3047 7.73672 14.3051C7.6864 14.3054 7.6864 14.3054 7.63507 14.3057C7.5638 14.3089 7.50505 14.3168 7.43727 14.3377C7.42682 14.39 7.42682 14.39 7.41615 14.4434C7.41223 14.463 7.40831 14.4826 7.40427 14.5028C7.40401 14.5674 7.404 14.5674 7.454 14.6222C7.54347 14.6928 7.59632 14.69 7.70962 14.6903C7.72847 14.6906 7.74731 14.6908 7.76673 14.691C7.82983 14.6916 7.89291 14.6913 7.95602 14.6911C8.00127 14.6913 8.04652 14.6916 8.09177 14.692C8.21461 14.6928 8.33744 14.6929 8.46029 14.6928C8.58867 14.6929 8.71704 14.6936 8.84542 14.6943C9.08852 14.6954 9.33162 14.696 9.57472 14.6964C9.85148 14.6968 10.1282 14.6979 10.405 14.6991C10.9743 14.7014 11.5436 14.7028 12.1129 14.7039C12.1129 14.9827 12.1129 15.2616 12.1129 15.5489C11.9065 15.55 11.9065 15.55 11.6959 15.551C11.2419 15.5534 10.7879 15.5559 10.334 15.5585C10.0586 15.56 9.7833 15.5615 9.50797 15.5629C9.26802 15.5641 9.02808 15.5654 8.78814 15.5668C8.66106 15.5676 8.53398 15.5683 8.4069 15.5689C8.28733 15.5694 8.16776 15.5701 8.04819 15.5709C8.00428 15.5711 7.96036 15.5714 7.91644 15.5715C7.85653 15.5718 7.79662 15.5722 7.73672 15.5726C7.6864 15.5729 7.6864 15.5729 7.63507 15.5732C7.5638 15.5764 7.50505 15.5843 7.43727 15.6052C7.42682 15.6575 7.42682 15.6575 7.41615 15.7109C7.41223 15.7305 7.40831 15.7501 7.40427 15.7703C7.40401 15.8349 7.404 15.8349 7.454 15.8897C7.54347 15.9604 7.59632 15.9575 7.70962 15.9578C7.72847 15.9581 7.74731 15.9583 7.76673 15.9585C7.82983 15.9591 7.89291 15.9588 7.95602 15.9586C8.00127 15.9589 8.04652 15.9591 8.09177 15.9595C8.21461 15.9603 8.33744 15.9604 8.46029 15.9603C8.58867 15.9604 8.71704 15.9611 8.84542 15.9618C9.08852 15.9629 9.33162 15.9635 9.57472 15.9639C9.85148 15.9643 10.1282 15.9654 10.405 15.9666C10.9743 15.9689 11.5436 15.9703 12.1129 15.9714C12.1129 16.2595 12.1129 16.5477 12.1129 16.8446C12.0075 16.8182 11.9802 16.806 11.9022 16.7411C11.4159 16.3776 10.8653 16.4316 10.2873 16.4385C10.1564 16.4397 10.0256 16.439 9.8947 16.4386C9.5139 16.4383 9.1331 16.4409 8.75231 16.4432C7.47395 16.4467 7.47395 16.4467 6.16977 16.4502C6.16977 13.8383 6.16977 11.2264 6.16977 8.53538C7.08068 8.52609 7.99159 8.51679 8.93011 8.50722C9.2711 8.37082 9.44992 8.27019 9.60611 7.94388C9.66782 7.79467 9.67104 7.66111 9.67142 7.50231C9.67171 7.47536 9.67199 7.44841 9.67228 7.42064C9.67315 7.33195 9.67363 7.24325 9.67411 7.15455C9.67463 7.09291 9.67519 7.03126 9.67576 6.96962C9.6772 6.80764 9.67832 6.64567 9.67937 6.48369C9.6805 6.31829 9.68194 6.1529 9.68335 5.98751C9.68607 5.66319 9.68845 5.33887 9.69061 5.01454ZM12.2397 6.41232C12.1846 6.49953 12.1805 6.54677 12.1974 6.64821C12.2858 6.76508 12.3913 6.79263 12.5284 6.82425C12.5481 6.82912 12.5677 6.83399 12.5879 6.839C12.6361 6.85087 12.6843 6.86226 12.7326 6.87355C12.3624 7.0927 11.9899 7.30793 11.6171 7.52263C11.4631 7.61133 11.3092 7.70015 11.1553 7.78896C11.0943 7.82417 11.0332 7.85938 10.9722 7.89459C10.942 7.91202 10.9118 7.92945 10.8807 7.9474C9.87369 8.52834 9.87369 8.52834 9.78214 8.58116C9.72116 8.61634 9.66017 8.65153 9.59919 8.68672C9.44595 8.77514 9.29269 8.86352 9.13938 8.95183C8.98749 9.03933 8.83571 9.12702 8.68395 9.21475C8.58869 9.26969 8.49325 9.32433 8.3978 9.37895C8.33582 9.41463 8.27384 9.45032 8.21186 9.48601C8.16844 9.51071 8.16844 9.51071 8.12415 9.53591C8.09762 9.55125 8.07108 9.56659 8.04374 9.58239C8.02037 9.59578 7.99701 9.60917 7.97294 9.62296C7.90854 9.66208 7.90854 9.66208 7.85977 9.74655C7.84677 9.84839 7.84698 9.89686 7.90555 9.98245C7.99202 10.0416 8.03791 10.0368 8.14144 10.0282C8.21625 9.99948 8.21625 9.99948 8.28822 9.95582C8.31595 9.94007 8.34369 9.92431 8.37227 9.90808C8.41661 9.88215 8.41661 9.88215 8.46184 9.8557C8.49294 9.83789 8.52404 9.82007 8.55608 9.80172C8.65283 9.74617 8.74924 9.69009 8.84561 9.63388C8.90256 9.60084 8.95952 9.56779 9.01648 9.53475C9.12781 9.47002 9.23899 9.40503 9.35008 9.33989C9.52769 9.23583 9.7059 9.13284 9.88426 9.03006C9.91468 9.01253 9.94511 8.99499 9.97645 8.97692C10.0381 8.94138 10.0998 8.90585 10.1615 8.87032C10.3144 8.78221 10.4673 8.694 10.6201 8.6058C10.6811 8.57059 10.7422 8.53538 10.8032 8.50017C10.8334 8.48275 10.8636 8.46532 10.8947 8.44736C11.1694 8.28892 11.1694 8.28892 11.261 8.23608C11.3218 8.20097 11.3827 8.16585 11.4436 8.13073C11.5986 8.0413 11.7536 7.95187 11.9086 7.86246C12.268 7.65521 12.6272 7.44772 12.9861 7.23971C12.9756 7.26589 12.9651 7.29207 12.9543 7.31904C12.9408 7.35421 12.9274 7.38938 12.9139 7.42456C12.9005 7.45887 12.8871 7.49318 12.8733 7.52853C12.8428 7.6435 12.846 7.71624 12.8734 7.83121C12.9157 7.89224 12.9157 7.89224 12.9861 7.91571C13.087 7.91806 13.087 7.91806 13.1833 7.88755C13.2691 7.79804 13.3044 7.68883 13.3438 7.57364C13.3539 7.54457 13.3539 7.54457 13.3643 7.51492C13.3785 7.47402 13.3926 7.43309 13.4065 7.39212C13.4279 7.32987 13.4497 7.26782 13.4716 7.20577C13.4854 7.16586 13.4991 7.12594 13.5128 7.08601C13.5193 7.06766 13.5258 7.04932 13.5325 7.03042C13.5733 6.909 13.5877 6.80411 13.5776 6.67638C13.4673 6.52345 13.3017 6.51479 13.1269 6.47921C13.0923 6.472 13.0923 6.472 13.057 6.46465C12.9795 6.4486 12.9018 6.43302 12.8242 6.4176C12.7992 6.41255 12.7742 6.4075 12.7485 6.4023C12.4857 6.34374 12.4857 6.34374 12.2397 6.41232ZM9.46528 10.4226C9.44848 10.508 9.44989 10.5923 9.4507 10.6792C9.4505 10.7051 9.4503 10.7311 9.4501 10.7578C9.4496 10.8435 9.44993 10.9292 9.45031 11.0149C9.45024 11.0745 9.45013 11.1341 9.44999 11.1936C9.44982 11.3185 9.45006 11.4433 9.45059 11.5681C9.45123 11.7282 9.45086 11.8882 9.45019 12.0483C9.44978 12.1713 9.44991 12.2943 9.4502 12.4173C9.45028 12.4763 9.45018 12.5353 9.44992 12.5944C9.44964 12.6768 9.45007 12.7593 9.4507 12.8418C9.45047 12.8662 9.45024 12.8906 9.45001 12.9158C9.45186 13.0522 9.45186 13.0522 9.51699 13.1699C9.60289 13.2279 9.66673 13.2256 9.76983 13.226C9.78816 13.2261 9.80649 13.2262 9.82537 13.2263C9.86401 13.2264 9.90264 13.2262 9.94128 13.2257C10.0003 13.2251 10.0592 13.2257 10.1182 13.2265C10.1558 13.2264 10.1934 13.2262 10.2311 13.226C10.2822 13.2258 10.2822 13.2258 10.3344 13.2256C10.4447 13.2075 10.4703 13.1886 10.5356 13.0984C10.5524 13.0129 10.551 12.9286 10.5502 12.8418C10.5504 12.8158 10.5506 12.7899 10.5508 12.7632C10.5513 12.6774 10.551 12.5917 10.5506 12.506C10.5507 12.4464 10.5508 12.3869 10.5509 12.3273C10.5511 12.2025 10.5508 12.0777 10.5503 11.9528C10.5497 11.7928 10.55 11.6327 10.5507 11.4726C10.5511 11.3496 10.551 11.2266 10.5507 11.1037C10.5506 11.0446 10.5507 10.9856 10.551 10.9266C10.5513 10.8441 10.5508 10.7617 10.5502 10.6792C10.5504 10.6547 10.5506 10.6303 10.5509 10.6051C10.549 10.4687 10.549 10.4687 10.4839 10.3511C10.398 10.293 10.3342 10.2953 10.2311 10.2949C10.2036 10.2948 10.2036 10.2948 10.1755 10.2946C10.1369 10.2945 10.0982 10.2947 10.0596 10.2952C10.0006 10.2958 9.94171 10.2952 9.88272 10.2945C9.84509 10.2946 9.80746 10.2947 9.76983 10.2949C9.73574 10.295 9.70164 10.2952 9.66651 10.2953C9.55624 10.3135 9.53055 10.3323 9.46528 10.4226ZM7.5538 11.3728C7.45965 11.5166 7.47349 11.6564 7.4749 11.8247C7.47477 11.8598 7.47463 11.8949 7.47449 11.9311C7.47437 12.0242 7.47494 12.1173 7.47573 12.2104C7.476 12.2674 7.47573 12.3244 7.47525 12.3814C7.47438 12.491 7.47448 12.6006 7.4749 12.7102C7.47462 12.7442 7.47433 12.7781 7.47404 12.8131C7.47573 12.9981 7.47573 12.9981 7.55341 13.1621C7.65104 13.2211 7.70921 13.2285 7.82292 13.2278C7.87675 13.2277 7.87675 13.2277 7.93168 13.2276C7.95022 13.2272 7.96876 13.2267 7.98787 13.2263C8.04457 13.2251 8.10118 13.2252 8.15789 13.2254C8.38073 13.234 8.38073 13.234 8.56394 13.1266C8.59258 13.0406 8.59584 12.982 8.5962 12.892C8.59638 12.8614 8.59656 12.8308 8.59674 12.7992C8.59678 12.7661 8.59681 12.733 8.59684 12.6989C8.59693 12.6649 8.59703 12.6309 8.59712 12.5959C8.59727 12.5239 8.59733 12.4519 8.59733 12.38C8.59739 12.2698 8.5979 12.1596 8.59844 12.0493C8.59852 11.9795 8.59857 11.9096 8.5986 11.8398C8.5988 11.8068 8.59901 11.7737 8.59921 11.7397C8.59908 11.6936 8.59908 11.6936 8.59895 11.6465C8.59899 11.6195 8.59903 11.5925 8.59907 11.5647C8.59176 11.4893 8.57592 11.444 8.53578 11.3802C8.39442 11.2799 8.19573 11.3123 8.03053 11.3116C7.99461 11.3106 7.95868 11.3097 7.92166 11.3088C7.88704 11.3086 7.85242 11.3084 7.81675 11.3082C7.76937 11.3076 7.76937 11.3076 7.72104 11.307C7.63159 11.3193 7.63159 11.3193 7.5538 11.3728Z" fill="#2666EE"/>
<path d="M13.0908 11.2354C13.1249 11.2353 13.1249 11.2353 13.1596 11.2351C13.2361 11.2349 13.3126 11.2349 13.3891 11.2348C13.4438 11.2347 13.4985 11.2345 13.5532 11.2344C13.702 11.234 13.8509 11.2338 13.9998 11.2337C14.0927 11.2336 14.1857 11.2335 14.2786 11.2334C14.5693 11.233 14.8601 11.2327 15.1508 11.2326C15.4866 11.2325 15.8224 11.232 16.1583 11.2312C16.4177 11.2306 16.6771 11.2303 16.9365 11.2303C17.0915 11.2302 17.2465 11.2301 17.4015 11.2296C17.5473 11.2291 17.6931 11.229 17.839 11.2293C17.8925 11.2293 17.946 11.2292 17.9995 11.2289C18.0726 11.2285 18.1457 11.2287 18.2188 11.229C18.24 11.2288 18.2611 11.2285 18.2829 11.2283C18.4161 11.2296 18.5065 11.2534 18.6195 11.3238C18.8019 11.5146 18.825 11.66 18.8242 11.9132C18.8243 11.9416 18.8244 11.97 18.8245 11.9992C18.8249 12.0944 18.8249 12.1896 18.8248 12.2847C18.825 12.3529 18.8252 12.4211 18.8254 12.4893C18.8258 12.6554 18.826 12.8215 18.826 12.9876C18.8261 13.1227 18.8262 13.2577 18.8264 13.3927C18.8269 13.7758 18.8271 14.1588 18.8271 14.5418C18.8271 14.5624 18.8271 14.5831 18.8271 14.6044C18.8271 14.625 18.8271 14.6457 18.8271 14.667C18.827 15.0019 18.8276 15.3368 18.8284 15.6716C18.8292 16.0157 18.8296 16.3597 18.8295 16.7037C18.8295 16.8968 18.8297 17.0898 18.8303 17.2829C18.8308 17.4645 18.8308 17.6461 18.8304 17.8277C18.8303 17.8943 18.8305 17.961 18.8308 18.0276C18.8313 18.1186 18.831 18.2096 18.8306 18.3006C18.8308 18.3269 18.8311 18.3532 18.8314 18.3803C18.8297 18.5486 18.7991 18.6756 18.704 18.8162C18.5513 18.965 18.4061 18.9936 18.1984 18.9927C18.1648 18.9929 18.1648 18.9929 18.1305 18.9931C18.0556 18.9935 17.9806 18.9934 17.9057 18.9934C17.8519 18.9935 17.7982 18.9937 17.7444 18.994C17.5984 18.9944 17.4524 18.9946 17.3063 18.9946C17.2151 18.9947 17.1238 18.9948 17.0326 18.9949C16.7142 18.9954 16.3958 18.9957 16.0774 18.9956C15.7807 18.9956 15.484 18.9962 15.1873 18.9971C14.9325 18.9978 14.6777 18.9981 14.4229 18.9981C14.2708 18.9981 14.1186 18.9982 13.9665 18.9988C13.8234 18.9994 13.6802 18.9994 13.5371 18.999C13.4846 18.9989 13.4322 18.999 13.3797 18.9994C13.308 18.9998 13.2362 18.9996 13.1645 18.9991C13.1438 18.9994 13.1232 18.9997 13.102 19C12.9495 18.998 12.8324 18.956 12.7045 18.8725C12.5968 18.7592 12.5285 18.6542 12.5283 18.4961C12.5281 18.4716 12.528 18.447 12.5278 18.4217C12.5279 18.3949 12.528 18.368 12.5281 18.3404C12.528 18.3117 12.5279 18.2831 12.5278 18.2536C12.5275 18.1575 12.5276 18.0613 12.5277 17.9651C12.5276 17.8963 12.5274 17.8274 12.5273 17.7586C12.5269 17.5908 12.5269 17.4231 12.5269 17.2553C12.527 17.119 12.5269 16.9826 12.5268 16.8462C12.5268 16.8268 12.5268 16.8074 12.5268 16.7874C12.5267 16.748 12.5267 16.7086 12.5267 16.6692C12.5264 16.2995 12.5264 15.9298 12.5266 15.5601C12.5267 15.2219 12.5264 14.8837 12.5259 14.5455C12.5253 14.1982 12.5251 13.851 12.5252 13.5037C12.5253 13.3087 12.5252 13.1138 12.5248 12.9188C12.5244 12.7355 12.5245 12.5522 12.5249 12.3688C12.5249 12.3015 12.5249 12.2342 12.5246 12.1668C12.5243 12.075 12.5246 11.9832 12.5249 11.8913C12.5247 11.8646 12.5245 11.8379 12.5243 11.8104C12.5257 11.6396 12.5476 11.5134 12.6694 11.384C12.6862 11.3706 12.703 11.3571 12.7203 11.3432C12.7372 11.3294 12.7541 11.3155 12.7715 11.3013C12.8736 11.2258 12.9685 11.2353 13.0908 11.2354ZM13.4689 12.192C13.4219 12.2818 13.4263 12.3577 13.4266 12.4585C13.4265 12.4782 13.4265 12.4978 13.4265 12.5181C13.4266 12.5595 13.4268 12.6009 13.4273 12.6423C13.428 12.7057 13.4279 12.769 13.4277 12.8324C13.4183 13.0464 13.4183 13.0464 13.4931 13.2392C13.571 13.252 13.571 13.252 13.6642 13.2497C13.7189 13.25 13.7189 13.25 13.7748 13.2503C13.8155 13.2501 13.8561 13.2499 13.8968 13.2497C13.9395 13.2497 13.9821 13.2498 14.0248 13.25C14.1408 13.2502 14.2568 13.25 14.3729 13.2496C14.4941 13.2493 14.6154 13.2494 14.7366 13.2495C14.9403 13.2495 15.1439 13.2492 15.3475 13.2487C15.5832 13.2481 15.8189 13.248 16.0546 13.2481C16.281 13.2483 16.5074 13.2481 16.7338 13.2478C16.8303 13.2477 16.9267 13.2477 17.0232 13.2477C17.1368 13.2478 17.2504 13.2475 17.3639 13.2471C17.4057 13.247 17.4474 13.247 17.4892 13.247C17.546 13.2471 17.6029 13.2468 17.6597 13.2465C17.7075 13.2464 17.7075 13.2464 17.7563 13.2464C17.8352 13.2467 17.8352 13.2467 17.8871 13.1829C17.8928 13.1088 17.895 13.0378 17.8946 12.9637C17.8947 12.9312 17.8947 12.9312 17.8948 12.898C17.8948 12.8522 17.8947 12.8063 17.8945 12.7605C17.8942 12.6902 17.8945 12.6199 17.8948 12.5497C17.8948 12.5052 17.8947 12.4607 17.8946 12.4162C17.8948 12.3845 17.8948 12.3845 17.895 12.3523C17.8979 12.2335 17.8979 12.2335 17.8308 12.1407C17.7533 12.1319 17.7533 12.1319 17.661 12.1332C17.6067 12.1328 17.6067 12.1328 17.5512 12.1324C17.5109 12.1324 17.4705 12.1325 17.4301 12.1325C17.3878 12.1323 17.3455 12.1321 17.3032 12.1319C17.188 12.1314 17.0728 12.1313 16.9576 12.1313C16.8616 12.1312 16.7656 12.131 16.6695 12.1308C16.443 12.1303 16.2165 12.1302 15.99 12.1302C15.756 12.1303 15.5221 12.1297 15.2882 12.1288C15.0876 12.1281 14.887 12.1278 14.6863 12.1278C14.5664 12.1278 14.4465 12.1276 14.3266 12.127C14.2138 12.1265 14.1011 12.1265 13.9884 12.1269C13.9469 12.127 13.9055 12.1268 13.8641 12.1265C13.8076 12.1261 13.7511 12.1264 13.6947 12.1268C13.663 12.1267 13.6314 12.1267 13.5988 12.1267C13.5186 12.1337 13.5186 12.1337 13.4689 12.192ZM13.4832 13.9893C13.4227 14.0763 13.4226 14.1311 13.4228 14.2366C13.4228 14.2714 13.4228 14.3062 13.4228 14.3421C13.4233 14.3784 13.4239 14.4147 13.4245 14.4521C13.4243 14.4885 13.4241 14.5249 13.4239 14.5624C13.4159 14.7367 13.4159 14.7367 13.4683 14.8973C13.5475 14.9449 13.6134 14.9401 13.7052 14.9404C13.7414 14.9405 13.7776 14.9406 13.8149 14.9407C13.8338 14.9406 13.8526 14.9404 13.872 14.9402C13.9295 14.9398 13.987 14.9402 14.0445 14.9407C14.0807 14.9406 14.1169 14.9405 14.1542 14.9404C14.204 14.9403 14.204 14.9403 14.2549 14.9401C14.3363 14.935 14.3363 14.935 14.3911 14.8977C14.4608 14.7804 14.436 14.6265 14.4352 14.494C14.4349 14.4365 14.4358 14.379 14.4366 14.3215C14.4366 14.2853 14.4366 14.2491 14.4366 14.2118C14.4366 14.1786 14.4367 14.1453 14.4368 14.1111C14.4299 14.0269 14.4299 14.0269 14.3763 13.9749C14.2382 13.9092 14.0796 13.9302 13.9297 13.931C13.8949 13.9305 13.8601 13.9299 13.8242 13.9293C13.7907 13.9293 13.7573 13.9294 13.7229 13.9294C13.6923 13.9293 13.6617 13.9293 13.6303 13.9292C13.5475 13.9379 13.5475 13.9379 13.4832 13.9893ZM15.1831 14.0279C15.1662 14.1136 15.1662 14.1136 15.1691 14.2118C15.1691 14.248 15.1691 14.2842 15.1691 14.3215C15.1694 14.3403 15.1697 14.3592 15.17 14.3786C15.1708 14.4361 15.1706 14.4935 15.1702 14.551C15.1616 14.7312 15.1616 14.7312 15.2146 14.8977C15.3319 14.9674 15.4858 14.9426 15.6183 14.9418C15.6759 14.9415 15.7333 14.9423 15.7908 14.9432C15.8451 14.9432 15.8451 14.9432 15.9005 14.9432C15.9337 14.9432 15.967 14.9433 16.0012 14.9433C16.0854 14.9365 16.0854 14.9365 16.1374 14.8828C16.2031 14.7448 16.1821 14.5862 16.1813 14.4363C16.1818 14.4015 16.1824 14.3666 16.183 14.3308C16.183 14.2973 16.1829 14.2639 16.1829 14.2294C16.183 14.1989 16.183 14.1683 16.1831 14.1368C16.1745 14.0539 16.1745 14.0539 16.1226 13.9897C16.0376 13.9303 15.9861 13.9292 15.8829 13.9294C15.8494 13.9294 15.816 13.9293 15.7816 13.9293C15.7293 13.9302 15.7293 13.9302 15.676 13.931C15.6238 13.9307 15.6238 13.9307 15.5705 13.9304C15.3553 13.9201 15.3553 13.9201 15.1831 14.0279ZM16.9295 14.0279C16.9125 14.1168 16.9125 14.1168 16.9155 14.219C16.9154 14.2375 16.9154 14.256 16.9154 14.275C16.9154 14.3141 16.9157 14.3531 16.9163 14.3922C16.9171 14.452 16.9169 14.5118 16.9165 14.5717C16.9167 14.6096 16.9169 14.6475 16.9172 14.6855C16.9175 14.72 16.9178 14.7546 16.9181 14.7902C16.9218 14.8175 16.9256 14.8448 16.9295 14.8729C17.0309 14.9405 17.0783 14.9364 17.1989 14.9367C17.2534 14.9368 17.2534 14.9368 17.309 14.9369C17.3373 14.9367 17.3373 14.9367 17.3662 14.9365C17.424 14.9362 17.4818 14.9365 17.5396 14.9369C17.5759 14.9368 17.6122 14.9367 17.6496 14.9367C17.683 14.9366 17.7164 14.9365 17.7508 14.9365C17.8345 14.9375 17.8345 14.9375 17.8871 14.8729C17.895 14.7825 17.895 14.7825 17.8926 14.6763C17.8925 14.6474 17.8925 14.6474 17.8924 14.6179C17.8921 14.5562 17.8914 14.4945 17.8906 14.4327C17.8904 14.3909 17.8901 14.3491 17.8899 14.3073C17.8893 14.2048 17.8883 14.1022 17.8871 13.9997C17.7399 13.911 17.575 13.9341 17.4083 13.9346C17.3748 13.9341 17.3413 13.9336 17.3068 13.9332C17.2747 13.9332 17.2425 13.9331 17.2094 13.9331C17.18 13.933 17.1506 13.933 17.1204 13.9329C17.0284 13.9452 16.9906 13.9578 16.9295 14.0279ZM13.4683 15.5808C13.3929 15.7066 13.4237 15.8839 13.4245 16.0259C13.4239 16.0622 13.4233 16.0985 13.4228 16.1359C13.4228 16.1707 13.4228 16.2056 13.4228 16.2415C13.4228 16.2734 13.4227 16.3053 13.4227 16.3382C13.431 16.4237 13.431 16.4237 13.4832 16.4888C13.5682 16.5477 13.6199 16.5488 13.7229 16.5487C13.7563 16.5487 13.7897 16.5487 13.8242 16.5487C13.8764 16.5479 13.8764 16.5479 13.9297 16.547C13.9645 16.5472 13.9993 16.5474 14.0352 16.5476C14.2108 16.5514 14.2108 16.5514 14.3763 16.5032C14.4441 16.4257 14.4368 16.3681 14.4366 16.2662C14.4366 16.23 14.4366 16.1938 14.4366 16.1565C14.4364 16.1377 14.4361 16.1189 14.4358 16.0995C14.4349 16.042 14.4352 15.9845 14.4355 15.927C14.4441 15.7468 14.4441 15.7468 14.3911 15.5803C14.3119 15.5333 14.2457 15.5379 14.1542 15.5376C14.118 15.5375 14.0818 15.5374 14.0445 15.5373C14.0256 15.5375 14.0068 15.5377 13.9874 15.5378C13.9299 15.5383 13.8724 15.5378 13.8149 15.5373C13.7787 15.5374 13.7425 15.5375 13.7052 15.5376C13.6554 15.5378 13.6554 15.5378 13.6045 15.5379C13.5231 15.543 13.5231 15.543 13.4683 15.5808ZM15.2146 15.5804C15.1449 15.6976 15.1697 15.8516 15.1706 15.9841C15.1708 16.0416 15.17 16.099 15.1691 16.1565C15.1691 16.1927 15.1691 16.2289 15.1691 16.2662C15.1691 16.2995 15.169 16.3327 15.169 16.367C15.1758 16.4512 15.1758 16.4512 15.2295 16.5032C15.3676 16.5688 15.5261 16.5479 15.676 16.547C15.7109 16.5476 15.7457 16.5481 15.7816 16.5487C15.815 16.5487 15.8484 16.5487 15.8829 16.5487C15.9134 16.5487 15.944 16.5488 15.9755 16.5488C16.0584 16.5402 16.0584 16.5402 16.1226 16.4883C16.182 16.4033 16.1831 16.3519 16.1829 16.2486C16.1829 16.2152 16.183 16.1817 16.183 16.1473C16.1821 16.0951 16.1821 16.0951 16.1813 16.0418C16.1815 16.007 16.1817 15.9721 16.1819 15.9363C16.1857 15.7607 16.1857 15.7607 16.1374 15.5952C16.0599 15.5274 16.0024 15.5347 15.9005 15.5349C15.8643 15.5349 15.8281 15.5348 15.7908 15.5348C15.7626 15.5353 15.7626 15.5353 15.7337 15.5357C15.6762 15.5365 15.6188 15.5363 15.5613 15.5359C15.3811 15.5274 15.3811 15.5274 15.2146 15.5804ZM16.9295 15.6052C16.9211 15.6841 16.9182 15.7567 16.919 15.8356C16.9189 15.8595 16.9188 15.8833 16.9187 15.9078C16.9184 15.9868 16.9188 16.0658 16.9192 16.1448C16.9192 16.1995 16.9192 16.2542 16.9192 16.3089C16.9192 16.4237 16.9195 16.5385 16.92 16.6533C16.9206 16.8007 16.9206 16.9481 16.9205 17.0955C16.9204 17.2085 16.9205 17.3215 16.9208 17.4346C16.9209 17.4889 16.921 17.5433 16.9209 17.5976C16.9209 17.6735 16.9213 17.7494 16.9217 17.8252C16.9217 17.8479 16.9216 17.8705 16.9215 17.8938C16.918 18.016 16.918 18.016 16.9858 18.112C17.0724 18.1208 17.0724 18.1208 17.1742 18.1195C17.1927 18.1196 17.2112 18.1196 17.2303 18.1197C17.2696 18.1197 17.3088 18.1196 17.348 18.1194C17.4081 18.1191 17.4681 18.1194 17.5282 18.1197C17.5663 18.1197 17.6044 18.1196 17.6424 18.1195C17.6772 18.1194 17.7119 18.1194 17.7477 18.1193C17.8342 18.1207 17.8342 18.1207 17.8871 18.0557C17.8927 17.9779 17.8948 17.903 17.8944 17.8252C17.8945 17.8014 17.8946 17.7776 17.8947 17.7531C17.895 17.6741 17.8948 17.5951 17.8946 17.5161C17.8946 17.4614 17.8947 17.4067 17.8948 17.3519C17.8949 17.2372 17.8947 17.1224 17.8945 17.0076C17.8942 16.8602 17.8943 16.7128 17.8947 16.5654C17.8949 16.4524 17.8948 16.3393 17.8947 16.2263C17.8946 16.172 17.8947 16.1176 17.8948 16.0632C17.8949 15.9874 17.8947 15.9115 17.8944 15.8356C17.8945 15.813 17.8946 15.7904 17.8948 15.7671C17.8985 15.6449 17.8985 15.6449 17.8308 15.5489C17.7474 15.5401 17.7474 15.5401 17.6496 15.5414C17.6133 15.5413 17.577 15.5412 17.5396 15.5412C17.5207 15.5413 17.5017 15.5414 17.4822 15.5415C17.4245 15.5418 17.3667 15.5415 17.309 15.5412C17.2727 15.5412 17.2363 15.5413 17.1989 15.5414C17.1655 15.5414 17.1321 15.5415 17.0976 15.5416C17.0087 15.5426 17.0087 15.5426 16.9295 15.6052ZM13.4931 17.1544C13.3979 17.2971 13.4276 17.4656 13.428 17.6332C13.4275 17.6697 13.4271 17.7062 13.4266 17.7439C13.4266 17.7788 13.4266 17.8137 13.4266 17.8497C13.4265 17.8818 13.4264 17.9138 13.4263 17.9469C13.4312 18.026 13.4312 18.026 13.4682 18.0802C13.5474 18.1277 13.6134 18.123 13.7052 18.1232C13.7414 18.1234 13.7776 18.1235 13.8149 18.1236C13.8338 18.1234 13.8526 18.1232 13.872 18.123C13.9295 18.1226 13.987 18.123 14.0445 18.1236C14.0807 18.1235 14.1169 18.1234 14.1542 18.1232C14.204 18.1231 14.204 18.1231 14.2549 18.123C14.3364 18.1179 14.3364 18.1179 14.3912 18.0802C14.4375 18.0026 14.4331 17.9396 14.4329 17.8497C14.4328 17.8148 14.4328 17.7799 14.4328 17.7439C14.4323 17.7074 14.4319 17.6708 14.4314 17.6332C14.4315 17.5967 14.4316 17.5601 14.4317 17.5225C14.4389 17.3275 14.4389 17.3275 14.3663 17.1544C14.277 17.1412 14.277 17.1412 14.1718 17.1431C14.1526 17.1431 14.1334 17.143 14.1137 17.1429C14.0731 17.1428 14.0326 17.143 13.9921 17.1433C13.9299 17.1438 13.8678 17.1433 13.8057 17.1428C13.7664 17.1429 13.727 17.143 13.6876 17.1431C13.6517 17.1432 13.6158 17.1433 13.5788 17.1434C13.5505 17.147 13.5222 17.1506 13.4931 17.1544ZM15.1831 17.2107C15.1719 17.3267 15.1739 17.4428 15.1742 17.5593C15.1743 17.617 15.1737 17.6747 15.1729 17.7325C15.1729 17.7688 15.1729 17.8051 15.1729 17.8426C15.1728 17.876 15.1727 17.9094 15.1726 17.9438C15.1772 18.0256 15.1772 18.0256 15.2145 18.0806C15.332 18.1501 15.4857 18.1254 15.6183 18.1246C15.6759 18.1244 15.7333 18.1252 15.7908 18.1261C15.8451 18.126 15.8451 18.126 15.9005 18.126C15.9337 18.1261 15.967 18.1261 16.0012 18.1262C16.0854 18.1193 16.0854 18.1193 16.1376 18.0657C16.1776 17.9812 16.1794 17.9184 16.1792 17.825C16.1792 17.7914 16.1792 17.7578 16.1791 17.7232C16.1787 17.6883 16.1782 17.6534 16.1778 17.6173C16.1779 17.5823 16.1779 17.5472 16.178 17.5111C16.1844 17.3221 16.1844 17.3221 16.1126 17.1544C16.0233 17.1416 16.0233 17.1416 15.9181 17.1441C15.8989 17.1441 15.8798 17.1441 15.86 17.1441C15.8195 17.1441 15.7789 17.1444 15.7384 17.1449C15.6763 17.1456 15.6142 17.1455 15.552 17.1453C15.3505 17.1297 15.3505 17.1297 15.1831 17.2107Z" fill="#2666EE"/>
<path d="M6.33877 16.8727C7.89104 16.8727 9.44331 16.8727 11.0426 16.8727C11.0426 17.3653 11.0426 17.858 11.0426 18.3655C9.49035 18.3655 7.93808 18.3655 6.33877 18.3655C6.33877 17.8729 6.33877 17.3803 6.33877 16.8727Z" fill="#2666EE"/>
<path d="M9.26811 5.07086C9.27138 5.41585 9.27388 5.76084 9.27541 6.10584C9.27614 6.26605 9.27714 6.42625 9.27873 6.58646C9.28027 6.74114 9.28111 6.89582 9.28147 7.05052C9.28173 7.10945 9.28224 7.16839 9.283 7.22732C9.28403 7.31005 9.28416 7.39274 9.2841 7.47548C9.2846 7.49969 9.28511 7.5239 9.28563 7.54885C9.28416 7.72192 9.24377 7.84192 9.12728 7.97203C8.97357 8.10964 8.83164 8.13305 8.63073 8.12885C8.6046 8.12887 8.57846 8.12889 8.55154 8.12891C8.46588 8.12882 8.38025 8.12772 8.2946 8.12662C8.23493 8.12635 8.17526 8.12615 8.11559 8.12601C7.95907 8.12548 7.80257 8.12409 7.64605 8.12253C7.48613 8.12109 7.32621 8.12045 7.16628 8.11974C6.85288 8.11823 6.53949 8.11583 6.2261 8.11286C6.2642 7.9994 6.31223 7.93172 6.39664 7.84747C6.42054 7.82342 6.44443 7.79937 6.46905 7.7746C6.49531 7.74859 6.52158 7.72258 6.54864 7.69579C6.57656 7.66785 6.60445 7.63989 6.63234 7.61192C6.70797 7.53613 6.78387 7.46062 6.85982 7.38515C6.93928 7.30611 7.01851 7.22685 7.09777 7.14761C7.23087 7.01462 7.36413 6.88178 7.49749 6.74905C7.66869 6.57867 7.83963 6.40802 8.01049 6.23728C8.15739 6.0905 8.30441 5.94383 8.45145 5.79718C8.49872 5.75003 8.54597 5.70286 8.59321 5.6557C8.66742 5.58162 8.74171 5.50762 8.81605 5.43368C8.85637 5.39356 8.89661 5.35337 8.93685 5.31317C8.96082 5.28936 8.98479 5.26555 9.00949 5.24102C9.04073 5.2099 9.04073 5.2099 9.07261 5.17816C9.1877 5.07086 9.1877 5.07086 9.26811 5.07086Z" fill="#2666EE"/>
<path d="M5.91627 16.8727C5.91627 17.3653 5.91627 17.858 5.91627 18.3655C5.24027 18.3655 5.24027 18.3655 5.09943 18.281C5.01439 18.153 5.0021 18.0368 5.00272 17.8868C5.00257 17.8656 5.00242 17.8445 5.00227 17.8226C5.00209 17.7781 5.00213 17.7335 5.00237 17.6889C5.00261 17.6212 5.0018 17.5535 5.0009 17.4857C5.00086 17.4422 5.00087 17.3987 5.00096 17.3552C5.00064 17.3352 5.00033 17.3151 5 17.2945C5.00214 17.1395 5.03965 17.0526 5.1276 16.929C5.36333 16.8112 5.65271 16.8727 5.91627 16.8727Z" fill="#2666EE"/>
<path d="M11.4651 16.9854C11.8654 17.1855 11.8654 17.1855 12.0284 17.2829C12.0461 17.293 12.0638 17.3032 12.082 17.3136C12.1907 17.3783 12.2696 17.4419 12.3383 17.5487C12.3418 17.6473 12.3418 17.6473 12.3101 17.7459C12.1644 17.8892 11.986 17.9801 11.8084 18.0786C11.7635 18.1038 11.7635 18.1038 11.7178 18.1296C11.4976 18.2529 11.4976 18.2529 11.4651 18.2529C11.4651 17.8346 11.4651 17.4163 11.4651 16.9854Z" fill="#2666EE"/>
</svg>
