<svg width="24" height="24" viewBox="0 0 24 24" fill="none" xmlns="http://www.w3.org/2000/svg">
<rect width="24" height="24" rx="5" fill="white"/>
<path d="M2.48458 5.00182C2.51674 5.0016 2.54891 5.00138 2.58204 5.00116C2.69055 5.0006 2.79902 5.00113 2.90753 5.00165C2.98581 5.00147 3.06409 5.00123 3.14237 5.00093C3.35805 5.0003 3.57372 5.00062 3.78941 5.00108C4.02179 5.00142 4.25416 5.0009 4.48654 5.00048C4.91565 4.99985 5.34476 4.99991 5.77387 5.00032C6.17025 5.0007 6.56663 5.0008 6.96302 5.00062C6.98929 5.00061 7.01556 5.00059 7.04262 5.00058C7.14926 5.00054 7.25589 5.00049 7.36252 5.00044C8.36327 4.99998 9.36401 5.0004 10.3648 5.00121C11.2543 5.00192 12.1439 5.00186 13.0334 5.00114C14.0323 5.00033 15.0312 5.00001 16.0301 5.00048C16.1365 5.00052 16.243 5.00057 16.3494 5.00062C16.3756 5.00063 16.4018 5.00064 16.4288 5.00065C16.825 5.00083 17.2212 5.00062 17.6174 5.00024C18.0678 4.99981 18.5181 4.99993 18.9685 5.00074C19.1985 5.00114 19.4284 5.00129 19.6584 5.00079C19.8686 5.00034 20.0789 5.00059 20.2892 5.00139C20.3655 5.00156 20.4418 5.00147 20.518 5.00111C20.6213 5.00065 20.7246 5.00112 20.8278 5.00182C20.8728 5.00129 20.8728 5.00129 20.9188 5.00075C21.0501 5.00255 21.1279 5.01047 21.236 5.08799C21.3248 5.21819 21.3134 5.35223 21.3117 5.50426C21.3119 5.53825 21.3121 5.57225 21.3123 5.60727C21.3128 5.72143 21.3123 5.83555 21.3117 5.94971C21.3118 6.03145 21.3121 6.11319 21.3123 6.19493C21.3128 6.41713 21.3124 6.63932 21.3118 6.86152C21.3113 7.0938 21.3115 7.32609 21.3117 7.55837C21.3118 7.94849 21.3113 8.33861 21.3104 8.72873C21.3094 9.18008 21.3093 9.63141 21.3098 10.0828C21.3102 10.5165 21.3099 10.9503 21.3094 11.3841C21.3092 11.5689 21.3092 11.7537 21.3094 11.9385C21.3095 12.156 21.3092 12.3735 21.3083 12.591C21.3081 12.6709 21.3081 12.7509 21.3083 12.8308C21.3085 12.9397 21.3081 13.0486 21.3074 13.1575C21.3077 13.2053 21.3078 13.2053 21.3081 13.254C21.3067 13.3791 21.3023 13.4728 21.2425 13.5842C21.1048 13.7092 20.9341 13.684 20.7596 13.6836C20.7278 13.6837 20.6959 13.6838 20.6631 13.6838C20.5555 13.684 20.4478 13.684 20.3401 13.6839C20.2625 13.684 20.1849 13.6842 20.1073 13.6843C19.8933 13.6846 19.6794 13.6846 19.4654 13.6847C19.2349 13.6847 19.0044 13.685 18.7739 13.6853C18.2434 13.6858 17.7128 13.686 17.1822 13.6862C16.9201 13.6863 16.658 13.6864 16.3959 13.6866C15.4991 13.6871 14.6022 13.6875 13.7054 13.6876C13.6491 13.6876 13.5928 13.6876 13.5365 13.6876C13.48 13.6876 13.4236 13.6876 13.3671 13.6876C13.2539 13.6877 13.1406 13.6877 13.0274 13.6877C12.9993 13.6877 12.9712 13.6877 12.9423 13.6877C12.0315 13.6878 11.1207 13.6884 10.2099 13.6893C9.24731 13.6902 8.28475 13.6908 7.32219 13.6908C7.21658 13.6908 7.11098 13.6908 7.00537 13.6908C6.97937 13.6908 6.95336 13.6908 6.92657 13.6908C6.50761 13.6909 6.08865 13.6913 5.66969 13.6918C5.24882 13.6924 4.82795 13.6925 4.40708 13.6922C4.17896 13.6921 3.95083 13.6921 3.72271 13.6926C3.51406 13.6931 3.30542 13.6931 3.09677 13.6926C3.0211 13.6925 2.94544 13.6926 2.86977 13.693C2.76726 13.6934 2.66477 13.6931 2.56226 13.6927C2.53259 13.6929 2.50292 13.6932 2.47235 13.6935C2.30258 13.6919 2.19194 13.6717 2.05725 13.5657C1.99514 13.4415 2.01404 13.3031 2.01407 13.1666C2.01386 13.1157 2.01386 13.1157 2.01365 13.0638C2.01324 12.9494 2.01309 12.835 2.01295 12.7206C2.01271 12.6389 2.01246 12.5572 2.0122 12.4754C2.01154 12.2529 2.01115 12.0304 2.01084 11.8079C2.01064 11.669 2.01041 11.5301 2.01018 11.3912C2.00946 10.9571 2.00892 10.5229 2.00861 10.0887C2.00824 9.58681 2.00725 9.08492 2.00573 8.58303C2.0046 8.19554 2.00404 7.80805 2.00391 7.42056C2.00382 7.18891 2.00348 6.95727 2.00254 6.72562C2.00167 6.5078 2.0015 6.28998 2.00189 6.07216C2.00191 5.99209 2.00167 5.91203 2.00116 5.83197C2.00049 5.72289 2.00075 5.61385 2.00125 5.50476C2.00084 5.47288 2.00043 5.44101 2 5.40816C2.00139 5.28274 2.0047 5.19322 2.07641 5.08797C2.20815 4.99356 2.32847 4.99998 2.48458 5.00182ZM5.83791 6.24514C5.65589 6.48015 5.68237 6.76125 5.68487 7.04468C5.68467 7.10073 5.6844 7.15678 5.68405 7.21283C5.68336 7.36434 5.68384 7.51582 5.68458 7.66732C5.6852 7.82617 5.68487 7.98502 5.68467 8.14387C5.6845 8.4105 5.6851 8.67712 5.68615 8.94374C5.68736 9.25175 5.68736 9.55973 5.68671 9.86773C5.68611 10.1645 5.68637 10.4612 5.68701 10.758C5.68727 10.8841 5.68723 11.0102 5.68695 11.1363C5.68666 11.2848 5.68712 11.4332 5.68815 11.5817C5.68841 11.6362 5.68841 11.6906 5.68814 11.745C5.68781 11.8194 5.68851 11.8938 5.68925 11.9682C5.68936 12.0098 5.68946 12.0514 5.68957 12.0943C5.71955 12.2773 5.81564 12.3941 5.94625 12.5211C6.21857 12.6985 6.51598 12.6732 6.83018 12.6726C6.88277 12.6728 6.93535 12.673 6.98793 12.6732C7.13019 12.6737 7.27243 12.6737 7.41468 12.6736C7.53367 12.6736 7.65266 12.6738 7.77165 12.674C8.05246 12.6744 8.33327 12.6744 8.61409 12.6742C8.90329 12.6739 9.19249 12.6744 9.48169 12.6752C9.73048 12.6759 9.97926 12.6761 10.2281 12.676C10.3764 12.6759 10.5248 12.676 10.6732 12.6765C10.8127 12.677 10.9523 12.6769 11.0919 12.6764C11.1671 12.6763 11.2424 12.6767 11.3177 12.6772C11.621 12.6754 11.8586 12.6615 12.1009 12.4623C12.2485 12.281 12.3102 12.1306 12.3105 11.8967C12.311 11.826 12.311 11.826 12.3115 11.7538C12.3112 11.702 12.311 11.6502 12.3108 11.5984C12.3109 11.5434 12.3111 11.4885 12.3114 11.4336C12.3119 11.2848 12.3117 11.136 12.3113 10.9872C12.311 10.8314 12.3113 10.6755 12.3115 10.5196C12.3117 10.2578 12.3114 9.99608 12.3109 9.73432C12.3103 9.43192 12.3105 9.12954 12.3111 8.82714C12.3116 8.56726 12.3117 8.30738 12.3114 8.0475C12.3112 7.8924 12.3112 7.7373 12.3115 7.58219C12.3119 7.43635 12.3116 7.29052 12.311 7.14469C12.3108 7.09124 12.3109 7.0378 12.3111 6.98435C12.3114 6.91126 12.311 6.83816 12.3105 6.76506C12.3104 6.7242 12.3104 6.68334 12.3104 6.64124C12.2861 6.44532 12.2037 6.29978 12.0515 6.17594C12.0293 6.15745 12.0072 6.13896 11.9844 6.11991C11.8544 6.02917 11.7357 6.03219 11.5823 6.03159C11.5354 6.03132 11.4885 6.03105 11.4401 6.03077C11.3881 6.03066 11.336 6.03056 11.2839 6.03046C11.2291 6.03023 11.1743 6.02998 11.1195 6.02971C10.9395 6.02892 10.7595 6.02853 10.5794 6.02816C10.5174 6.02801 10.4554 6.02785 10.3934 6.02769C10.1019 6.02698 9.81049 6.02644 9.51905 6.02613C9.1829 6.02576 8.84675 6.02477 8.5106 6.02325C8.25062 6.02211 7.99065 6.02155 7.73068 6.02143C7.57548 6.02134 7.42029 6.021 7.2651 6.02006C7.11898 6.01918 6.97288 6.01902 6.82676 6.01941C6.77329 6.01943 6.71982 6.01919 6.66634 6.01867C6.2109 6.0136 6.2109 6.0136 5.83791 6.24514ZM13.0114 6.56413C12.98 6.67706 12.98 6.67706 13.0114 6.78999C13.0891 6.90336 13.1512 6.96876 13.2891 6.99566C13.4051 7.00279 13.5198 7.00362 13.6361 7.00256C13.7023 7.00305 13.7023 7.00305 13.7699 7.00356C13.9158 7.00438 14.0617 7.00384 14.2077 7.0032C14.3091 7.00324 14.4105 7.00351 14.5119 7.00374C14.7244 7.00409 14.9369 7.00364 15.1495 7.00274C15.395 7.00172 15.6404 7.00205 15.8859 7.00308C16.0969 7.00394 16.3079 7.00406 16.5189 7.00357C16.6449 7.00327 16.7708 7.00331 16.8967 7.00385C17.0371 7.00433 17.1775 7.0036 17.3179 7.00256C17.3595 7.00294 17.4011 7.00332 17.444 7.00371C17.6756 7.00127 17.6756 7.00127 17.8743 6.88963C17.9494 6.79384 17.9494 6.79384 17.9661 6.67706C17.933 6.518 17.8856 6.4728 17.7544 6.37591C17.6091 6.34757 17.4655 6.35021 17.3179 6.35156C17.2517 6.35107 17.2517 6.35107 17.1841 6.35056C17.0381 6.34973 16.8922 6.35028 16.7463 6.35092C16.6449 6.35087 16.5435 6.35061 16.4421 6.35037C16.2295 6.35003 16.017 6.35048 15.8045 6.35138C15.559 6.3524 15.3135 6.35207 15.068 6.35103C14.857 6.35018 14.646 6.35006 14.435 6.35055C14.3091 6.35084 14.1832 6.35081 14.0573 6.35026C13.9168 6.34978 13.7765 6.35051 13.6361 6.35156C13.5945 6.35118 13.5528 6.3508 13.51 6.35041C13.281 6.35358 13.1502 6.36151 13.0114 6.56413ZM4.11527 8.10455C4.08554 8.13384 4.05582 8.16314 4.0252 8.19332C3.96258 8.25523 3.90006 8.31725 3.83765 8.37937C3.74211 8.47418 3.6458 8.56816 3.54945 8.66214C3.48862 8.72247 3.42784 8.78286 3.36711 8.84329C3.32383 8.88519 3.32383 8.88519 3.27967 8.92792C3.16199 9.0466 3.08304 9.13816 3.01998 9.29431C3.04444 9.49423 3.15967 9.5888 3.29947 9.72614C3.34614 9.77547 3.39273 9.82488 3.43924 9.87436C3.57051 10.0103 3.7029 10.1451 3.83561 10.2796C3.89253 10.3375 3.94918 10.3957 4.00555 10.4542C4.08757 10.5392 4.17042 10.6233 4.25349 10.7072C4.27847 10.7334 4.30346 10.7597 4.3292 10.7867C4.45131 10.9083 4.5097 10.9636 4.6844 10.9895C4.81085 10.976 4.81085 10.976 4.91812 10.8907C5.00346 10.7851 5.00346 10.7851 5.00282 10.6555C4.88194 10.2989 4.50685 10.0256 4.2429 9.76378C4.20238 9.72345 4.16187 9.68311 4.12137 9.64277C4.02317 9.54498 3.92486 9.44731 3.82647 9.34971C3.96484 9.17935 4.11333 9.02362 4.27069 8.87079C4.29044 8.85151 4.3102 8.83224 4.33055 8.81237C4.41321 8.73175 4.49592 8.65118 4.57934 8.57133C4.6408 8.51238 4.70164 8.45285 4.7624 8.3932C4.78126 8.37543 4.80012 8.35766 4.81955 8.33935C4.94158 8.21827 4.98702 8.12906 4.99341 7.95692C4.9452 7.84528 4.90696 7.78609 4.80519 7.7193C4.51567 7.61977 4.30014 7.92175 4.11527 8.10455ZM13.0114 7.88163C12.98 7.99456 12.98 7.99456 13.0114 8.10749C13.0791 8.20912 13.1274 8.27846 13.2372 8.33335C13.2878 8.33702 13.3386 8.33843 13.3893 8.33864C13.4212 8.33885 13.453 8.33907 13.4858 8.33929C13.5208 8.33933 13.5557 8.33937 13.5918 8.33941C13.6286 8.3396 13.6654 8.33979 13.7033 8.33998C13.8254 8.34053 13.9475 8.34079 14.0696 8.341C14.1543 8.34121 14.239 8.34143 14.3237 8.34165C14.5014 8.34204 14.6792 8.34226 14.8569 8.34239C15.0848 8.3426 15.3126 8.3435 15.5405 8.34457C15.7155 8.34528 15.8905 8.34547 16.0655 8.34553C16.1495 8.34564 16.2335 8.34595 16.3175 8.34644C16.435 8.34708 16.5525 8.34701 16.67 8.34677C16.7047 8.34711 16.7395 8.34746 16.7753 8.34782C16.9559 8.34664 17.0826 8.34127 17.2274 8.22042C17.2903 8.11644 17.2903 8.11644 17.3027 7.99456C17.2606 7.87308 17.231 7.79447 17.1201 7.72524C17.0333 7.6911 16.9712 7.68369 16.8782 7.6831C16.8464 7.68272 16.8145 7.68235 16.7817 7.68196C16.747 7.68194 16.7124 7.68191 16.6766 7.68188C16.6399 7.68157 16.6032 7.68126 16.5653 7.68094C16.4438 7.68003 16.3223 7.6797 16.2007 7.67945C16.1162 7.67911 16.0318 7.67877 15.9473 7.67842C15.7701 7.6778 15.593 7.67751 15.4158 7.6774C15.1889 7.6772 14.962 7.67578 14.7351 7.67406C14.5606 7.67294 14.3861 7.67267 14.2116 7.67263C14.1279 7.67247 14.0443 7.672 13.9606 7.67122C13.8435 7.67021 13.7265 7.67039 13.6095 7.67086C13.575 7.6703 13.5405 7.66974 13.5049 7.66916C13.2758 7.67179 13.1676 7.71062 13.0114 7.88163ZM18.3943 7.80635C18.3258 7.89659 18.3188 7.9447 18.3207 8.05818C18.3718 8.23535 18.4765 8.3262 18.6074 8.45187C18.6324 8.47661 18.6574 8.50136 18.6832 8.52685C18.7629 8.60554 18.8433 8.68354 18.9237 8.76154C18.9779 8.81487 19.0322 8.86825 19.0864 8.92167C19.2191 9.05231 19.3524 9.18234 19.486 9.31207C19.3476 9.47735 19.2054 9.63435 19.0513 9.7854C19.0129 9.82331 18.9745 9.86122 18.9362 9.89914C18.8767 9.95769 18.8171 10.0162 18.7575 10.0746C18.6992 10.1317 18.6411 10.1891 18.5831 10.2465C18.5487 10.2803 18.5142 10.3141 18.4787 10.349C18.3672 10.471 18.3168 10.5386 18.3237 10.7049C18.3626 10.838 18.3927 10.89 18.5072 10.9684C18.628 10.9997 18.628 10.9997 18.7707 10.9684C18.9 10.8787 19.0065 10.7686 19.1163 10.6565C19.1484 10.6245 19.1805 10.5926 19.2136 10.5596C19.2813 10.4919 19.3487 10.4239 19.4158 10.3556C19.5185 10.2512 19.6224 10.1482 19.7265 10.0453C19.7922 9.97933 19.8578 9.91328 19.9233 9.84716C19.9544 9.8164 19.9854 9.78565 20.0175 9.75397C20.1395 9.62841 20.2272 9.52874 20.2938 9.36567C20.2672 9.16776 20.1519 9.07179 20.013 8.93564C19.9673 8.88764 19.9216 8.83958 19.8761 8.79147C19.7483 8.66043 19.6197 8.53027 19.4908 8.40034C19.4356 8.34443 19.3805 8.28831 19.3256 8.23201C19.2457 8.1501 19.1653 8.06882 19.0847 7.98765C19.0603 7.96244 19.036 7.93723 19.0109 7.91126C18.8151 7.71641 18.6375 7.61048 18.3943 7.80635ZM13.0561 9.15208C12.9953 9.26725 12.9904 9.33401 13.0114 9.46264C13.1116 9.59152 13.1671 9.64509 13.3298 9.67399C13.3803 9.67476 13.4307 9.67451 13.4812 9.67342C13.5089 9.67356 13.5366 9.67371 13.5651 9.67387C13.6562 9.67412 13.7473 9.67302 13.8385 9.67188C13.902 9.67172 13.9655 9.67163 14.029 9.67161C14.162 9.67138 14.2949 9.67053 14.4278 9.66919C14.5981 9.66748 14.7685 9.66693 14.9388 9.66679C15.0699 9.66662 15.201 9.66605 15.332 9.66533C15.3948 9.66499 15.4576 9.66474 15.5205 9.66457C15.6082 9.66423 15.696 9.66338 15.7837 9.66239C15.8096 9.66236 15.8355 9.66234 15.8622 9.66231C15.9968 9.66021 16.0978 9.65136 16.211 9.57557C16.2894 9.47482 16.2861 9.42057 16.2816 9.29089C16.2603 9.16111 16.2603 9.16111 16.1781 9.09091C16.0244 9.00956 15.9017 9.00598 15.73 9.00545C15.6913 9.00526 15.6913 9.00526 15.6519 9.00507C15.5666 9.00471 15.4814 9.00464 15.3961 9.0046C15.3368 9.00448 15.2775 9.00435 15.2182 9.00422C15.0938 9.00399 14.9695 9.00393 14.8451 9.00395C14.6859 9.00395 14.5267 9.00344 14.3675 9.00279C14.245 9.00237 14.1225 9.00229 14 9.00231C13.9413 9.00227 13.8826 9.0021 13.8239 9.00181C13.7417 9.00144 13.6596 9.00155 13.5774 9.00178C13.5307 9.00172 13.484 9.00167 13.4358 9.00162C13.2794 9.01342 13.1698 9.04225 13.0561 9.15208ZM13.0114 10.5543C12.98 10.6672 12.98 10.6672 13.0114 10.7801C13.0895 10.8938 13.1514 10.9591 13.2898 10.9858C13.4045 10.9927 13.5177 10.9934 13.6326 10.992C13.6746 10.9921 13.7166 10.9922 13.7599 10.9923C13.8485 10.9923 13.9371 10.9918 14.0257 10.9908C14.1615 10.9895 14.2971 10.9901 14.4329 10.9908C14.519 10.9905 14.6052 10.9902 14.6913 10.9897C14.732 10.9899 14.7726 10.9901 14.8144 10.9902C14.8523 10.9896 14.8901 10.9891 14.929 10.9884C14.9622 10.9882 14.9954 10.988 15.0296 10.9877C15.1485 10.9621 15.1937 10.9105 15.2699 10.8178C15.3106 10.7274 15.3106 10.7274 15.3076 10.6296C15.2465 10.4983 15.2035 10.4473 15.0817 10.3661C14.9957 10.3539 14.9957 10.3539 14.8991 10.3545C14.8621 10.3539 14.825 10.3533 14.7868 10.3527C14.7268 10.3524 14.7268 10.3524 14.6656 10.3521C14.6244 10.3518 14.5833 10.3514 14.5408 10.3511C14.4537 10.3505 14.3665 10.3502 14.2794 10.3501C14.1461 10.3496 14.0129 10.3478 13.8797 10.3459C13.795 10.3455 13.7104 10.3452 13.6257 10.345C13.5659 10.3439 13.5659 10.3439 13.505 10.3428C13.2771 10.3442 13.1501 10.3533 13.0114 10.5543Z" fill="#2666EE"/>
<path d="M6.31089 6.67702C8.07484 6.67702 9.83879 6.67702 11.6562 6.67702C11.6797 7.28925 11.6992 7.89694 11.6975 8.50889C11.6974 8.58513 11.6974 8.66138 11.6974 8.73762C11.6972 8.93453 11.6968 9.13143 11.6964 9.32833C11.696 9.53077 11.6959 9.73321 11.6957 9.93564C11.6953 10.3301 11.6946 10.7245 11.6938 11.1189C11.669 11.1189 11.6442 11.1189 11.6186 11.1189C11.6068 11.096 11.5951 11.0731 11.5831 11.0496C11.3828 10.6594 11.182 10.2693 10.9645 9.88844C10.9502 9.86258 10.9359 9.83672 10.9212 9.81008C10.8059 9.61199 10.6735 9.49893 10.4516 9.42496C10.2699 9.40715 10.1225 9.42162 9.96329 9.50966C9.80607 9.64537 9.7221 9.839 9.62837 10.0211C9.54849 10.174 9.46306 10.3238 9.3788 10.4743C9.32224 10.5762 9.26582 10.6781 9.2094 10.7801C9.07483 10.6604 8.99564 10.527 8.91473 10.3685C8.90145 10.3432 8.88818 10.3178 8.8745 10.2917C8.83216 10.2107 8.79019 10.1296 8.74828 10.0484C8.51351 9.59495 8.51351 9.59495 8.26186 9.15073C8.2395 9.11268 8.21714 9.07464 8.19411 9.03544C8.09199 8.90191 7.97304 8.81279 7.81323 8.75812C7.62227 8.73511 7.49882 8.76321 7.32725 8.86032C7.12223 9.02857 7.0202 9.2516 6.89907 9.48378C6.85583 9.56507 6.81255 9.64634 6.76923 9.72758C6.74863 9.76636 6.72804 9.80514 6.70683 9.8451C6.63721 9.97529 6.56565 10.104 6.49205 10.2319C6.4633 10.2819 6.4633 10.2819 6.43397 10.333C6.38618 10.4037 6.38618 10.4037 6.31089 10.4413C6.31089 9.1991 6.31089 7.95689 6.31089 6.67702ZM8.64476 7.31696C8.4416 7.52012 8.35968 7.73168 8.3295 8.01335C8.36647 8.35837 8.49544 8.59223 8.75769 8.82267C9.0076 8.99842 9.28911 9.01076 9.58583 8.97325C9.69878 8.93771 9.7896 8.88938 9.88698 8.82267C9.92036 8.80171 9.95375 8.78075 9.98814 8.75915C10.1856 8.56165 10.3053 8.30635 10.3128 8.02747C10.3099 7.75367 10.2178 7.57052 10.0705 7.34519C9.63921 6.93266 9.08142 6.91851 8.64476 7.31696Z" fill="#2666EE"/>
<path d="M6.95085 15.4102C6.98967 15.4381 7.02849 15.4661 7.06849 15.4949C7.4772 15.8858 7.67108 16.3966 7.70209 16.954C7.71477 17.5402 7.4877 18.0173 7.09334 18.4346C6.67178 18.8445 6.16748 19.0027 5.59326 19C5.07917 18.9882 4.60184 18.7813 4.22644 18.4287C3.79123 17.9601 3.65565 17.4185 3.66562 16.7983C3.68655 16.2628 3.95118 15.8139 4.33408 15.4505C5.11065 14.8114 6.15253 14.8054 6.95085 15.4102ZM5.12958 16.6084C5.02761 16.7892 5.00503 16.9368 5.03106 17.1418C5.11419 17.3601 5.25519 17.4955 5.45925 17.6029C5.6303 17.6518 5.7687 17.6495 5.93684 17.5911C6.09507 17.4868 6.22556 17.3501 6.31092 17.1794C6.3417 16.9429 6.32223 16.761 6.18064 16.5657C6.03387 16.404 5.89111 16.3431 5.67334 16.3301C5.44303 16.341 5.2697 16.4228 5.12958 16.6084Z" fill="#2666EE"/>
<path d="M7.6284 9.34967C7.65324 9.34967 7.67809 9.34967 7.70368 9.34967C7.71709 9.37479 7.73049 9.3999 7.7443 9.42578C7.98571 9.8776 8.22849 10.3281 8.48242 10.773C8.64593 11.0599 8.80443 11.3488 8.95767 11.6412C8.97553 11.6752 8.9934 11.7093 9.01181 11.7444C9.13412 11.9797 9.13412 11.9797 9.13412 12.0223C8.20245 12.0223 7.27079 12.0223 6.31089 12.0223C6.31089 11.7262 6.31089 11.7262 6.39544 11.586C6.41425 11.554 6.43305 11.522 6.45242 11.4889C6.47326 11.4546 6.49411 11.4202 6.51558 11.3847C6.56039 11.3083 6.60503 11.2318 6.64953 11.1552C6.67369 11.1137 6.69785 11.0721 6.72274 11.0293C6.8682 10.7759 7.00283 10.5163 7.13904 10.2578C7.19235 10.1567 7.24567 10.0557 7.29902 9.95461C7.31137 9.9312 7.32372 9.9078 7.33644 9.88368C7.43129 9.70428 7.52852 9.52633 7.6284 9.34967Z" fill="#2666EE"/>
<path d="M10.301 10.0272C10.3259 10.0272 10.3507 10.0272 10.3763 10.0272C10.3936 10.0598 10.4108 10.0923 10.4285 10.1259C10.5091 10.2781 10.5897 10.4303 10.6704 10.5825C10.6849 10.6098 10.6994 10.6371 10.7143 10.6653C10.9115 11.0369 11.1104 11.4074 11.3155 11.7747C11.4303 11.981 11.4303 11.981 11.4303 12.0223C11.2093 12.0317 10.9884 12.0385 10.7673 12.043C10.6921 12.0449 10.617 12.0475 10.5419 12.0507C9.91645 12.0772 9.91645 12.0772 9.75129 11.9422C9.69181 11.8437 9.65602 11.7559 9.62348 11.6459C9.60889 11.6209 9.5943 11.5959 9.57927 11.5701C9.53625 11.4666 9.55285 11.4135 9.58583 11.3071C9.62089 11.232 9.65862 11.1581 9.69817 11.0852C9.72098 11.043 9.74379 11.0008 9.76728 10.9574C9.77923 10.9356 9.79118 10.9138 9.80349 10.8913C9.83953 10.8255 9.87516 10.7596 9.9108 10.6936C10.1636 10.2282 10.1636 10.2282 10.301 10.0272Z" fill="#2666EE"/>
<path d="M17.9967 16.3748C18.3015 16.6573 18.3015 16.6573 18.328 16.8775C18.3354 17.0991 18.2962 17.2599 18.1684 17.4429C18.008 17.5992 17.8686 17.6626 17.6461 17.6805C17.4572 17.6741 17.302 17.6269 17.1621 17.4936C16.9849 17.2941 16.9479 17.1388 16.9511 16.873C16.9783 16.6442 17.0934 16.5121 17.2674 16.3701C17.4945 16.2585 17.7722 16.2687 17.9967 16.3748Z" fill="#2666EE"/>
<path d="M13.9677 16.3457C14.1313 16.4354 14.2327 16.5467 14.3053 16.7186C14.3634 16.9269 14.3673 17.131 14.2653 17.3253C14.1389 17.4961 14.0085 17.6111 13.8018 17.6688C13.5635 17.6922 13.3974 17.6564 13.1996 17.5182C13.0391 17.366 12.9685 17.2238 12.9619 17.0029C12.9656 16.7725 13.0197 16.6051 13.1854 16.4414C13.4153 16.2704 13.7 16.2509 13.9677 16.3457Z" fill="#2666EE"/>
<path d="M9.97756 16.3457C10.1412 16.4354 10.2423 16.5467 10.3153 16.7184C10.3713 16.9208 10.3635 17.1063 10.2963 17.3041C10.1739 17.4796 10.0209 17.614 9.81169 17.6688C9.57336 17.6922 9.4072 17.6564 9.2094 17.5182C9.04892 17.366 8.97837 17.2238 8.97178 17.0029C8.97548 16.7725 9.02956 16.6051 9.19529 16.4414C9.42517 16.2704 9.70982 16.2509 9.97756 16.3457Z" fill="#2666EE"/>
<path d="M9.43525 7.65573C9.57872 7.71117 9.61493 7.75018 9.67992 7.891C9.70303 8.06426 9.6738 8.14609 9.58582 8.29566C9.49094 8.38 9.40663 8.37561 9.28467 8.3686C9.16738 8.34956 9.13457 8.33371 9.03999 8.25332C8.96829 8.11589 8.96164 8.0348 8.98353 7.88159C9.113 7.68308 9.20017 7.6373 9.43525 7.65573Z" fill="#2666EE"/>
</svg>
