<svg width="24" height="24" viewBox="0 0 24 24" fill="none" xmlns="http://www.w3.org/2000/svg">
<g clip-path="url(#clip0_4_154)">
<rect width="24" height="24" rx="5" fill="white"/>
</g>
<path d="M19.3548 4.52606H17.7469C17.3522 4.52606 17.0323 4.2061 17.0323 3.81142V3.81142C17.0323 3.62188 16.9507 3.44011 16.8055 3.30609C16.6603 3.17207 16.4634 3.09678 16.2581 3.09678C16.0527 3.09678 15.8558 3.17207 15.7106 3.30609C15.5654 3.44011 15.4839 3.62188 15.4839 3.81142V3.81142C15.4839 4.2061 15.1639 4.52606 14.7692 4.52606H8.45658C8.06189 4.52606 7.74194 4.2061 7.74194 3.81142V3.81142C7.74194 3.62188 7.66037 3.44011 7.51518 3.30609C7.36999 3.17207 7.17307 3.09678 6.96774 3.09678C6.76241 3.09678 6.56549 3.17207 6.4203 3.30609C6.27511 3.44011 6.19355 3.62188 6.19355 3.81142V3.81142C6.19355 4.2061 5.87359 4.52606 5.47891 4.52606H3.87097C3.46031 4.52606 3.06647 4.67664 2.77609 4.94468C2.48571 5.21272 2.32258 5.57627 2.32258 5.95534V20.2481C2.32258 20.6272 2.48571 20.9908 2.77609 21.2588C3.06647 21.5268 3.46031 21.6774 3.87097 21.6774H19.3548C19.7655 21.6774 20.1593 21.5268 20.4497 21.2588C20.7401 20.9908 20.9032 20.6272 20.9032 20.2481V5.95534C20.9032 5.57627 20.7401 5.21272 20.4497 4.94468C20.1593 4.67664 19.7655 4.52606 19.3548 4.52606ZM10.0645 18.1042C10.0645 18.2938 9.98295 18.4755 9.83776 18.6095C9.69257 18.7436 9.49565 18.8189 9.29032 18.8189C9.08499 18.8189 8.88807 18.7436 8.74288 18.6095C8.5977 18.4755 8.51613 18.2938 8.51613 18.1042V14.0145C8.51613 13.7945 8.28794 13.6488 8.08839 13.7413V13.7413C7.90462 13.8262 7.69187 13.8401 7.49696 13.7801C7.30204 13.7202 7.14092 13.5912 7.04903 13.4215C6.95715 13.2519 6.94203 13.0555 7.007 12.8756C7.07197 12.6957 7.21171 12.547 7.39548 12.4621L8.94387 11.7475C9.06195 11.693 9.19317 11.6672 9.32507 11.6727C9.45698 11.6781 9.58517 11.7147 9.69747 11.7788C9.80977 11.8428 9.90245 11.9324 9.96669 12.0389C10.0309 12.1453 10.0646 12.2652 10.0645 12.3871V18.1042ZM15.4839 17.3896C15.6892 17.3896 15.8861 17.4649 16.0313 17.5989C16.1765 17.7329 16.2581 17.9147 16.2581 18.1042C16.2581 18.2938 16.1765 18.4755 16.0313 18.6095C15.8861 18.7436 15.6892 18.8189 15.4839 18.8189H12.3871C12.2433 18.8189 12.1024 18.7819 11.9801 18.7121C11.8578 18.6424 11.7589 18.5425 11.6946 18.4238C11.6303 18.3051 11.6031 18.1722 11.616 18.04C11.6289 17.9079 11.6815 17.7816 11.7677 17.6754L14.5529 14.2478C14.6163 14.17 14.6617 14.081 14.6865 13.9864C14.7112 13.8917 14.7148 13.7934 14.6969 13.6974C14.679 13.6015 14.64 13.5099 14.5824 13.4284C14.5248 13.3468 14.4498 13.277 14.3619 13.2231C14.274 13.1693 14.1751 13.1326 14.0713 13.1153C13.9675 13.0981 13.861 13.1005 13.7582 13.1226C13.6555 13.1447 13.5587 13.186 13.4739 13.2438C13.3891 13.3017 13.3179 13.3749 13.2648 13.4591C13.2155 13.5429 13.1485 13.6168 13.0677 13.6764C12.9869 13.7359 12.894 13.78 12.7945 13.8059C12.695 13.8318 12.5909 13.839 12.4883 13.8271C12.3857 13.8153 12.2868 13.7846 12.1972 13.7369C12.1077 13.6891 12.0295 13.6253 11.9671 13.5492C11.9047 13.4731 11.8595 13.3863 11.8341 13.2938C11.8086 13.2013 11.8035 13.105 11.8191 13.0106C11.8346 12.9163 11.8705 12.8258 11.9245 12.7444C12.1803 12.3359 12.5748 12.0167 13.0471 11.8362C13.5194 11.6557 14.043 11.6241 14.5367 11.7462C15.0304 11.8684 15.4667 12.1374 15.7779 12.5117C16.0891 12.886 16.2579 13.3446 16.2581 13.8164C16.2597 14.2825 16.0951 14.7361 15.7897 15.1072L14.9118 16.1878C14.5205 16.6695 14.8633 17.3896 15.4839 17.3896V17.3896ZM5.30025 8.8139C4.51088 8.8139 3.87097 8.17399 3.87097 7.38462V7.11663C3.87097 6.47526 4.39089 5.95534 5.03226 5.95534H5.47891C5.87359 5.95534 6.19355 6.27529 6.19355 6.66998V6.66998C6.19355 6.85951 6.27511 7.04128 6.4203 7.1753C6.56549 7.30932 6.76241 7.38462 6.96774 7.38462C7.17307 7.38462 7.36999 7.30932 7.51518 7.1753C7.66037 7.04128 7.74194 6.85951 7.74194 6.66998V6.66998C7.74194 6.27529 8.06189 5.95534 8.45658 5.95534H14.7692C15.1639 5.95534 15.4839 6.27529 15.4839 6.66998V6.66998C15.4839 6.85951 15.5654 7.04128 15.7106 7.1753C15.8558 7.30932 16.0527 7.38462 16.2581 7.38462C16.4634 7.38462 16.6603 7.30932 16.8055 7.1753C16.9507 7.04128 17.0323 6.85951 17.0323 6.66998V6.66998C17.0323 6.27529 17.3522 5.95534 17.7469 5.95534H18.1935C18.8349 5.95534 19.3548 6.47526 19.3548 7.11663V7.38462C19.3548 8.17399 18.7149 8.8139 17.9256 8.8139H5.30025Z" fill="#2666EE"/>
<defs>
<clipPath id="clip0_4_154">
<rect width="24" height="24" rx="5" fill="white"/>
</clipPath>
</defs>
</svg>
