<svg width="31" height="31" viewBox="0 0 31 31" fill="none" xmlns="http://www.w3.org/2000/svg">
<g clip-path="url(#clip0_155_6364)">
<rect width="31" height="31" rx="5" fill="white"/>
<path d="M26.3786 25.1172H3.62305V25.679H26.3786V25.1172Z" fill="#79C3E3"/>
<path d="M22.4602 7.22656H5.63672V25.1174H22.4602V7.22656Z" fill="#79C3E3"/>
<path opacity="0.08" d="M22.4602 7.22656H5.63672V7.98905H22.4602V7.22656Z" fill="black"/>
<path d="M22.9187 6.3208H5.17773V7.22658H22.9187V6.3208Z" fill="white"/>
<path d="M24.4601 10.0771H7.58008V25.1164H24.4601V10.0771Z" fill="white"/>
<path d="M10.9317 11.8086H8.48047V14.1849H10.9317V11.8086Z" fill="#79C3E3"/>
<path d="M14.086 11.8086H11.6348V14.1849H14.086V11.8086Z" fill="#79C3E3"/>
<path d="M17.2461 11.8086H14.7949V14.1849H17.2461V11.8086Z" fill="#79C3E3"/>
<path d="M20.4004 11.8086H17.9492V14.1849H20.4004V11.8086Z" fill="#79C3E3"/>
<path d="M23.5586 11.8086H21.1074V14.1849H23.5586V11.8086Z" fill="#79C3E3"/>
<path d="M10.9317 14.7915H8.48047V17.1679H10.9317V14.7915Z" fill="#79C3E3"/>
<path d="M14.086 14.7915H11.6348V17.1679H14.086V14.7915Z" fill="#79C3E3"/>
<path d="M17.2461 14.7915H14.7949V17.1679H17.2461V14.7915Z" fill="#79C3E3"/>
<path d="M20.4004 14.7915H17.9492V17.1679H20.4004V14.7915Z" fill="#79C3E3"/>
<path d="M23.5586 14.7915H21.1074V17.1679H23.5586V14.7915Z" fill="#79C3E3"/>
<path opacity="0.08" d="M24.4581 10.0776H7.57812V10.6108H24.4581V10.0776Z" fill="black"/>
<path d="M24.8216 9.3252H7.21484V10.0777H24.8216V9.3252Z" fill="#79C3E3"/>
<path opacity="0.08" d="M7.57997 10.0776H7.0918V25.1173H7.57997V10.0776Z" fill="black"/>
<path d="M19.0728 20.4204H17.4629V21.5991H19.0728V20.4204Z" fill="#79C3E3"/>
<path d="M14.5748 20.4204H12.9648V21.5991H14.5748V20.4204Z" fill="#79C3E3"/>
<path d="M17.4624 20.4204H14.5742V21.5991H17.4624V20.4204Z" fill="#79C3E3"/>
<path d="M19.0728 21.5991H17.4629V25.1175H19.0728V21.5991Z" fill="#79C3E3"/>
<path d="M17.4624 21.5991H14.5742V25.1175H17.4624V21.5991Z" fill="#79C3E3"/>
<path d="M14.5748 21.5991H12.9648V25.1175H14.5748V21.5991Z" fill="#79C3E3"/>
<path d="M13.1005 21.5991H12.8301V25.1175H13.1005V21.5991Z" fill="#595854"/>
<path d="M16.0694 21.5991H15.9668V25.1175H16.0694V21.5991Z" fill="#595854"/>
<path d="M19.2086 25.1176H18.9382V21.7344H13.1007V25.1176H12.8301V21.4639H19.2086V25.1176Z" fill="#595854"/>
<path d="M19.2086 21.5991H18.9382V20.5556H13.1007V21.5991H12.8301V20.2852H19.2086V21.5991Z" fill="#595854"/>
<path d="M14.7099 21.5991H14.4395V25.1175H14.7099V21.5991Z" fill="#595854"/>
<path d="M17.5985 21.5991H17.3281V25.1175H17.5985V21.5991Z" fill="#595854"/>
<path d="M16.1532 20.4204H15.8828V21.5991H16.1532V20.4204Z" fill="#595854"/>
<path d="M17.5985 20.4204H17.3281V21.5991H17.5985V20.4204Z" fill="#595854"/>
<path d="M12.8301 21.5991H13.1007V20.5556H18.9382V21.5991H19.2086V20.2852H12.8301V21.5991Z" fill="#595854"/>
<path d="M14.7099 20.4204H14.4395V21.5991H14.7099V20.4204Z" fill="#595854"/>
<path d="M16.36 23.702C16.36 23.7385 16.33 23.7706 16.2914 23.7706C16.2549 23.7706 16.2228 23.7385 16.2228 23.702C16.2228 23.6741 16.2378 23.6505 16.2613 23.6398V23.211C16.2378 23.1981 16.2228 23.1766 16.2228 23.1488C16.2228 23.1101 16.2549 23.0801 16.2914 23.0801C16.33 23.0801 16.36 23.1101 16.36 23.1488C16.36 23.1766 16.345 23.1981 16.3235 23.211V23.6398C16.345 23.6505 16.36 23.6741 16.36 23.702ZM15.8482 23.702C15.8482 23.7385 15.8182 23.7706 15.7796 23.7706C15.7431 23.7706 15.7109 23.7385 15.7109 23.702C15.7109 23.6741 15.726 23.6505 15.7495 23.6398V23.211C15.726 23.1981 15.7109 23.1766 15.7109 23.1488C15.7109 23.1101 15.7431 23.0801 15.7796 23.0801C15.8182 23.0801 15.8482 23.1101 15.8482 23.1488C15.8482 23.1766 15.8332 23.1981 15.8117 23.211V23.6398C15.8332 23.6505 15.8482 23.6741 15.8482 23.702Z" fill="#F9F6C9"/>
<path d="M14.6308 19.3976C14.7096 19.3976 14.774 19.3664 14.8239 19.3041L14.9267 19.4099C14.8452 19.5017 14.7491 19.5476 14.6385 19.5476C14.5278 19.5476 14.4368 19.5127 14.3652 19.4428C14.2936 19.3729 14.2578 19.2847 14.2578 19.1782C14.2578 19.0717 14.2942 18.9828 14.3673 18.9115C14.4402 18.8403 14.5294 18.8047 14.6349 18.8047C14.7527 18.8047 14.8514 18.8496 14.9309 18.9393L14.8311 19.0523C14.7805 18.9893 14.7174 18.9578 14.6421 18.9578C14.5819 18.9578 14.5303 18.9775 14.4874 19.0169C14.4446 19.0563 14.4232 19.1094 14.4232 19.1761C14.4232 19.2429 14.4435 19.2965 14.4838 19.337C14.5242 19.3774 14.5733 19.3976 14.6308 19.3976ZM15.0531 19.5394V18.8211H15.2134V19.3966H15.5196V19.5394H15.0531ZM15.6367 18.8211H15.797V19.5394H15.6367V18.8211ZM16.4763 18.8211H16.6366V19.5394H16.4763L16.1341 19.0893V19.5394H15.9738V18.8211H16.1238L16.4763 19.2835V18.8211ZM16.8133 18.8211H16.9736V19.5394H16.8133V18.8211ZM17.4801 19.3976C17.5589 19.3976 17.6233 19.3664 17.6733 19.3041L17.776 19.4099C17.6945 19.5017 17.5984 19.5476 17.4878 19.5476C17.3772 19.5476 17.2861 19.5127 17.2145 19.4428C17.1429 19.3729 17.1071 19.2847 17.1071 19.1782C17.1071 19.0717 17.1436 18.9828 17.2166 18.9115C17.2895 18.8403 17.3787 18.8047 17.4842 18.8047C17.602 18.8047 17.7007 18.8496 17.7802 18.9393L17.6805 19.0523C17.6298 18.9893 17.5668 18.9578 17.4914 18.9578C17.4312 18.9578 17.3796 18.9775 17.3368 19.0169C17.2939 19.0563 17.2725 19.1094 17.2725 19.1761C17.2725 19.2429 17.2928 19.2965 17.3332 19.337C17.3736 19.3774 17.4226 19.3976 17.4801 19.3976Z" fill="#79C3E3"/>
<path d="M19.4175 19.1777L19.6595 19.315L19.5647 19.4819L19.3227 19.3413V19.6191H19.1331V19.3413L18.8877 19.4819L18.793 19.315L19.0349 19.1777L18.793 19.0371L18.8877 18.8703L19.1331 19.011V18.7329H19.3227V19.011L19.5647 18.8703L19.6595 19.0371L19.4175 19.1777Z" fill="#79C3E3"/>
<path d="M13.0017 19.1777L13.2436 19.315L13.1487 19.4819L12.9067 19.3413V19.6191H12.717V19.3413L12.4717 19.4819L12.377 19.315L12.6189 19.1777L12.377 19.0371L12.4717 18.8703L12.717 19.011V18.7329H12.9067V19.011L13.1487 18.8703L13.2436 19.0371L13.0017 19.1777Z" fill="#79C3E3"/>
<path d="M23.3611 21.0742H20.3672V22.0959H23.3611V21.0742Z" fill="#79C3E3"/>
<path d="M23.3611 22.0962H20.3672V25.1177H23.3611V22.0962Z" fill="#79C3E3"/>
<path d="M20.5069 25.1173V22.2361H23.2207V25.1173H23.5011V21.9556H20.2266V25.1173H20.5069Z" fill="#595854"/>
<path d="M20.2266 22.096H20.5069V21.2144H23.2207V22.096H23.5011V20.9341H20.2266V22.096Z" fill="#595854"/>
<path d="M21.9343 22.0957H21.793V25.1174H21.9343V22.0957Z" fill="#595854"/>
<path d="M23.5011 22.096H23.2207V21.2144H20.5069V22.096H20.2266V20.9341H23.5011V22.096Z" fill="#595854"/>
<path d="M22.003 21.0742H21.7227V22.0959H22.003V21.0742Z" fill="#595854"/>
<path d="M11.6736 21.0742H8.67969V22.0959H11.6736V21.0742Z" fill="#79C3E3"/>
<path d="M11.6736 22.0962H8.67969V25.1177H11.6736V22.0962Z" fill="#79C3E3"/>
<path d="M8.81942 25.1173V22.2361H11.533V25.1173H11.8134V21.9556H8.53906V25.1173H8.81942Z" fill="#595854"/>
<path d="M8.53906 22.096H8.81942V21.2144H11.533V22.096H11.8136V20.9341H8.53906V22.096Z" fill="#595854"/>
<path d="M10.2468 22.0957H10.1055V25.1174H10.2468V22.0957Z" fill="#595854"/>
<path d="M11.8136 22.096H11.533V21.2144H8.81942V22.096H8.53906V20.9341H11.8136V22.096Z" fill="#595854"/>
<path d="M10.3155 21.0742H10.0352V22.0959H10.3155V21.0742Z" fill="#595854"/>
</g>
<defs>
<clipPath id="clip0_155_6364">
<rect width="31" height="31" rx="5" fill="white"/>
</clipPath>
</defs>
</svg>
