<svg width="24" height="24" viewBox="0 0 24 24" fill="none" xmlns="http://www.w3.org/2000/svg">
<g clip-path="url(#clip0_4_50)">
<rect width="24" height="24" rx="5" fill="white"/>
<g clip-path="url(#clip1_4_50)">
<path d="M20.4215 19.4457H2.8043V19.8806H20.4215V19.4457Z" fill="#2666EE"/>
<path d="M17.3883 5.5947H4.3637V19.4457H17.3883V5.5947Z" fill="#2666EE"/>
<path opacity="0.08" d="M17.3883 5.5947H4.3637V6.18501H17.3883V5.5947Z" fill="black"/>
<path d="M17.7434 4.89346H4.00846V5.5947H17.7434V4.89346Z" fill="white"/>
<path d="M18.9364 7.80167H5.86804V19.445H18.9364V7.80167Z" fill="white"/>
<path d="M8.46259 9.14195H6.56489V10.9817H8.46259V9.14195Z" fill="#2666EE"/>
<path d="M10.9053 9.14195H9.00762V10.9817H10.9053V9.14195Z" fill="#2666EE"/>
<path d="M13.3511 9.14195H11.4534V10.9817H13.3511V9.14195Z" fill="#2666EE"/>
<path d="M15.7938 9.14195H13.8961V10.9817H15.7938V9.14195Z" fill="#2666EE"/>
<path d="M18.2396 9.14195H16.3419V10.9817H18.2396V9.14195Z" fill="#2666EE"/>
<path d="M8.46259 11.4515H6.56489V13.2912H8.46259V11.4515Z" fill="#2666EE"/>
<path d="M10.9053 11.4515H9.00762V13.2912H10.9053V11.4515Z" fill="#2666EE"/>
<path d="M13.3511 11.4515H11.4534V13.2912H13.3511V11.4515Z" fill="#2666EE"/>
<path d="M15.7938 11.4515H13.8961V13.2912H15.7938V11.4515Z" fill="#2666EE"/>
<path d="M18.2396 11.4515H16.3419V13.2912H18.2396V11.4515Z" fill="#2666EE"/>
<path opacity="0.08" d="M18.936 7.80208H5.86763V8.21485H18.936V7.80208Z" fill="black"/>
<path d="M19.2173 7.21947H5.5863V7.80208H19.2173V7.21947Z" fill="#2666EE"/>
<path opacity="0.08" d="M5.86763 7.80208H5.48969V19.4457H5.86763V7.80208Z" fill="black"/>
<path d="M14.7662 15.8092H13.5198V16.7218H14.7662V15.8092Z" fill="#2666EE"/>
<path d="M11.2838 15.8092H10.0374V16.7218H11.2838V15.8092Z" fill="#2666EE"/>
<path d="M13.5198 15.8092H11.2838V16.7218H13.5198V15.8092Z" fill="#2666EE"/>
<path d="M14.7662 16.7218H13.5198V19.4457H14.7662V16.7218Z" fill="#2666EE"/>
<path d="M13.5198 16.7218H11.2838V19.4457H13.5198V16.7218Z" fill="#2666EE"/>
<path d="M11.2838 16.7218H10.0374V19.4457H11.2838V16.7218Z" fill="#2666EE"/>
<path d="M10.142 16.7218H9.93266V19.4457H10.142V16.7218Z" fill="#595854"/>
<path d="M12.4415 16.7218H12.362V19.4457H12.4415V16.7218Z" fill="#595854"/>
<path d="M14.8708 19.4457H14.6615V16.8265H10.1421V19.4457H9.93266V16.617H14.8708V19.4457Z" fill="#595854"/>
<path d="M14.8708 16.7218H14.6615V15.9138H10.1421V16.7218H9.93266V15.7045H14.8708V16.7218Z" fill="#595854"/>
<path d="M11.3884 16.7218H11.1791V19.4457H11.3884V16.7218Z" fill="#595854"/>
<path d="M13.6244 16.7218H13.4151V19.4457H13.6244V16.7218Z" fill="#595854"/>
<path d="M12.5064 15.8092H12.2971V16.7218H12.5064V15.8092Z" fill="#595854"/>
<path d="M13.6244 15.8092H13.4151V16.7218H13.6244V15.8092Z" fill="#595854"/>
<path d="M9.93266 16.7218H10.1421V15.9138H14.6615V16.7218H14.8708V15.7045H9.93266V16.7218Z" fill="#595854"/>
<path d="M11.3884 15.8092H11.1791V16.7218H11.3884V15.8092Z" fill="#595854"/>
<path d="M12.6664 18.35C12.6664 18.3782 12.6432 18.4031 12.6133 18.4031C12.5851 18.4031 12.5602 18.3782 12.5602 18.35C12.5602 18.3284 12.5718 18.3101 12.5901 18.3019V17.9698C12.5718 17.9599 12.5602 17.9432 12.5602 17.9217C12.5602 17.8918 12.5851 17.8685 12.6133 17.8685C12.6432 17.8685 12.6664 17.8918 12.6664 17.9217C12.6664 17.9432 12.6548 17.9599 12.6382 17.9698V18.3019C12.6548 18.3101 12.6664 18.3284 12.6664 18.35ZM12.2702 18.35C12.2702 18.3782 12.247 18.4031 12.2171 18.4031C12.1888 18.4031 12.164 18.3782 12.164 18.35C12.164 18.3284 12.1756 18.3101 12.1938 18.3019V17.9698C12.1756 17.9599 12.164 17.9432 12.164 17.9217C12.164 17.8918 12.1888 17.8685 12.2171 17.8685C12.247 17.8685 12.2702 17.8918 12.2702 17.9217C12.2702 17.9432 12.2586 17.9599 12.242 17.9698V18.3019C12.2586 18.3101 12.2702 18.3284 12.2702 18.35Z" fill="#F9F6C9"/>
<path d="M11.3271 15.0175C11.3881 15.0175 11.4379 14.9934 11.4766 14.9451L11.5562 15.027C11.493 15.0981 11.4187 15.1336 11.333 15.1336C11.2474 15.1336 11.1768 15.1066 11.1214 15.0525C11.066 14.9984 11.0383 14.9301 11.0383 14.8476C11.0383 14.7652 11.0665 14.6964 11.123 14.6412C11.1795 14.5861 11.2486 14.5585 11.3303 14.5585C11.4215 14.5585 11.4978 14.5932 11.5594 14.6627L11.4822 14.7502C11.4429 14.7014 11.3941 14.677 11.3358 14.677C11.2892 14.677 11.2493 14.6923 11.2161 14.7228C11.1829 14.7533 11.1664 14.7943 11.1664 14.8461C11.1664 14.8978 11.182 14.9393 11.2133 14.9706C11.2446 15.0019 11.2825 15.0175 11.3271 15.0175ZM11.654 15.1273V14.5712H11.7781V15.0167H12.0152V15.1273H11.654ZM12.1058 14.5712H12.2299V15.1273H12.1058V14.5712ZM12.7558 14.5712H12.8799V15.1273H12.7558L12.4909 14.7789V15.1273H12.3668V14.5712H12.483L12.7558 14.9292V14.5712ZM13.0167 14.5712H13.1408V15.1273H13.0167V14.5712ZM13.533 15.0175C13.594 15.0175 13.6438 14.9934 13.6825 14.9451L13.7621 15.027C13.699 15.0981 13.6246 15.1336 13.539 15.1336C13.4533 15.1336 13.3828 15.1066 13.3273 15.0525C13.2719 14.9984 13.2442 14.9301 13.2442 14.8476C13.2442 14.7652 13.2724 14.6964 13.329 14.6412C13.3854 14.5861 13.4545 14.5585 13.5362 14.5585C13.6274 14.5585 13.7038 14.5932 13.7653 14.6627L13.6881 14.7502C13.6489 14.7014 13.6001 14.677 13.5418 14.677C13.4951 14.677 13.4552 14.6923 13.422 14.7228C13.3888 14.7533 13.3723 14.7943 13.3723 14.8461C13.3723 14.8978 13.3879 14.9393 13.4192 14.9706C13.4505 15.0019 13.4885 15.0175 13.533 15.0175Z" fill="#2666EE"/>
<path d="M15.0335 14.8473L15.2209 14.9536L15.1475 15.0828L14.9602 14.9739V15.1891H14.8133V14.9739L14.6234 15.0828L14.55 14.9536L14.7373 14.8473L14.55 14.7384L14.6234 14.6093L14.8133 14.7182V14.503H14.9602V14.7182L15.1475 14.6093L15.2209 14.7384L15.0335 14.8473Z" fill="#2666EE"/>
<path d="M10.0663 14.8473L10.2536 14.9536L10.1801 15.0828L9.99281 14.9739V15.1891H9.84595V14.9739L9.65602 15.0828L9.58266 14.9536L9.76998 14.8473L9.58266 14.7384L9.65602 14.6093L9.84595 14.7182V14.503H9.99281V14.7182L10.1801 14.6093L10.2536 14.7384L10.0663 14.8473Z" fill="#2666EE"/>
<path d="M18.0849 16.3155H15.767V17.1064H18.0849V16.3155Z" fill="#2666EE"/>
<path d="M18.0849 17.1064H15.767V19.4457H18.0849V17.1064Z" fill="#2666EE"/>
<path d="M15.8754 19.4457V17.215H17.9764V19.4457H18.1935V16.9978H15.6584V19.4457H15.8754Z" fill="#595854"/>
<path d="M15.6584 17.1064H15.8754V16.4239H17.9764V17.1064H18.1935V16.2069H15.6584V17.1064Z" fill="#595854"/>
<path d="M16.9805 17.1063H16.8711V19.4457H16.9805V17.1063Z" fill="#595854"/>
<path d="M18.1935 17.1064H17.9764V16.4239H15.8754V17.1064H15.6584V16.2069H18.1935V17.1064Z" fill="#595854"/>
<path d="M17.0345 16.3155H16.8174V17.1064H17.0345V16.3155Z" fill="#595854"/>
<path d="M9.03666 16.3155H6.71876V17.1064H9.03666V16.3155Z" fill="#2666EE"/>
<path d="M9.03666 17.1064H6.71876V19.4457H9.03666V17.1064Z" fill="#2666EE"/>
<path d="M6.82722 19.4457V17.215H8.92807V19.4457H9.14512V16.9978H6.61017V19.4457H6.82722Z" fill="#595854"/>
<path d="M6.61017 17.1064H6.82722V16.4239H8.92807V17.1064H9.14525V16.2069H6.61017V17.1064Z" fill="#595854"/>
<path d="M7.93228 17.1063H7.82286V19.4457H7.93228V17.1063Z" fill="#595854"/>
<path d="M9.14525 17.1064H8.92807V16.4239H6.82722V17.1064H6.61017V16.2069H9.14525V17.1064Z" fill="#595854"/>
<path d="M7.98624 16.3155H7.76919V17.1064H7.98624V16.3155Z" fill="#595854"/>
</g>
</g>
<defs>
<clipPath id="clip0_4_50">
<rect width="24" height="24" rx="5" fill="white"/>
</clipPath>
<clipPath id="clip1_4_50">
<rect width="18.5806" height="18.5806" fill="white" transform="translate(2.32258 3.09678)"/>
</clipPath>
</defs>
</svg>
