<svg width="24" height="24" viewBox="0 0 24 24" fill="none" xmlns="http://www.w3.org/2000/svg">
<rect width="24" height="24" rx="5" fill="white"/>
<path d="M10.8546 5.72851C11.1984 6.02024 11.4398 6.4517 11.4936 6.90125C11.4974 6.99165 11.4976 7.08187 11.4971 7.17234C11.4973 7.19616 11.4974 7.21998 11.4975 7.24452C11.4974 7.27905 11.4974 7.27905 11.4974 7.31427C11.4973 7.33503 11.4973 7.35578 11.4973 7.37717C11.4936 7.43758 11.482 7.49095 11.4655 7.54906C11.4961 7.53988 11.5267 7.53069 11.5583 7.52123C11.7081 7.48386 11.8541 7.4855 12.0077 7.48745C12.049 7.48748 12.049 7.48748 12.0913 7.48751C12.3124 7.48887 12.3124 7.48887 12.4231 7.5209C12.419 7.50147 12.415 7.48205 12.4108 7.46204C12.3337 7.07205 12.3589 6.68752 12.5692 6.33969C12.7798 6.04197 13.0219 5.86039 13.3596 5.72708C13.4849 5.67389 13.5849 5.59608 13.6923 5.51407C14.2529 5.09132 14.8566 4.93899 15.5565 5.02159C15.9001 5.07632 16.222 5.23586 16.5353 5.38028C16.5569 5.39003 16.5784 5.39978 16.6006 5.40982C17.1619 5.66559 17.5243 6.03778 17.7493 6.61464C17.9412 7.24306 17.7164 7.82339 17.4648 8.39404C17.4992 8.39713 17.5337 8.40022 17.5691 8.4034C17.7585 8.42729 17.892 8.52903 18.0123 8.67394C18.12 8.88508 18.146 9.08667 18.0792 9.31296C18.0061 9.50908 17.8847 9.62455 17.7021 9.7206C17.5913 9.76184 17.4975 9.75531 17.3803 9.74601C17.3768 9.76518 17.3734 9.78435 17.3698 9.80411C17.2489 10.3722 16.9149 10.8425 16.4508 11.1825C16.4262 11.1917 16.4015 11.2009 16.3761 11.2104C16.305 11.2593 16.305 11.2593 16.2987 11.3265C16.2961 11.4028 16.2978 11.4777 16.3012 11.5539C16.3018 11.5804 16.3025 11.6069 16.3031 11.6342C16.3048 11.6996 16.3071 11.7649 16.31 11.8303C16.3401 11.8427 16.3702 11.8552 16.4013 11.868C16.756 12.0146 17.1105 12.1617 17.4648 12.3091C17.4889 12.3191 17.513 12.3292 17.5378 12.3395C17.6691 12.3941 17.8003 12.4489 17.9314 12.5041C17.971 12.5207 18.0105 12.5372 18.0502 12.5537C18.1052 12.5766 18.1601 12.5998 18.2151 12.623C18.2458 12.6359 18.2765 12.6488 18.3081 12.6621C18.6043 12.8043 18.8299 13.0101 18.9453 13.3208C18.9974 13.4809 18.9979 13.6341 18.9972 13.8012C18.9975 13.8504 18.9975 13.8504 18.9978 13.9006C18.9983 14.0085 18.9982 14.1163 18.998 14.2241C18.9981 14.2802 18.9982 14.3364 18.9983 14.3925C18.9987 14.5686 18.9987 14.7448 18.9984 14.9209C18.998 15.1025 18.9984 15.284 18.9992 15.4656C18.9998 15.6218 19 15.778 18.9998 15.9342C18.9997 16.0274 18.9998 16.1206 19.0003 16.2137C19.0007 16.3174 19.0004 16.4211 18.9999 16.5248C19.0002 16.5556 19.0005 16.5864 19.0007 16.6182C19.0005 16.6464 19.0002 16.6746 18.9999 16.7037C18.9999 16.7282 18.9999 16.7527 18.9999 16.7779C18.981 16.8664 18.9428 16.9006 18.8731 16.9565C18.7954 16.9701 18.7954 16.9701 18.7052 16.9693C18.6714 16.9693 18.6375 16.9693 18.6027 16.9693C18.5663 16.9687 18.5299 16.9681 18.4924 16.9675C18.4547 16.9673 18.417 16.9671 18.3793 16.967C18.2802 16.9666 18.1811 16.9655 18.082 16.9642C17.9808 16.9631 17.8796 16.9626 17.7784 16.962C17.58 16.9608 17.3816 16.9589 17.1832 16.9565C17.1834 16.9803 17.1837 17.004 17.1839 17.0285C17.1862 17.2523 17.1879 17.476 17.189 17.6998C17.1896 17.8149 17.1904 17.9299 17.1917 18.045C17.1929 18.156 17.1936 18.2671 17.1939 18.3781C17.1941 18.4205 17.1945 18.4628 17.1951 18.5052C17.1959 18.5645 17.196 18.6238 17.196 18.6832C17.1962 18.717 17.1965 18.7507 17.1967 18.7855C17.18 18.8922 17.1547 18.9186 17.0705 18.9845C16.9916 18.9986 16.9916 18.9986 16.8986 18.9986C16.8631 18.9989 16.8276 18.9992 16.7911 18.9995C16.7516 18.9993 16.7122 18.999 16.6728 18.9988C16.6309 18.9989 16.5891 18.9991 16.5472 18.9993C16.4321 18.9998 16.317 18.9995 16.2018 18.9992C16.0777 18.9989 15.9536 18.9993 15.8295 18.9996C15.5863 19.0001 15.3431 19 15.0999 18.9997C14.9023 18.9995 14.7047 18.9994 14.5071 18.9995C14.479 18.9996 14.4509 18.9996 14.422 18.9996C14.3649 18.9996 14.3079 18.9997 14.2508 18.9997C13.7153 19 13.1799 18.9997 12.6444 18.999C12.1847 18.9985 11.7249 18.9986 11.2652 18.9992C10.7317 18.9998 10.1982 19 9.66468 18.9996C9.60782 18.9996 9.55096 18.9996 9.4941 18.9995C9.46612 18.9995 9.43815 18.9995 9.40932 18.9995C9.21189 18.9994 9.01447 18.9996 8.81705 18.9998C8.57654 19.0001 8.33604 19.0001 8.09553 18.9995C7.97276 18.9992 7.84999 18.999 7.72722 18.9994C7.61491 18.9997 7.50262 18.9996 7.39032 18.999C7.3496 18.9988 7.30889 18.9989 7.26818 18.9992C7.213 18.9995 7.15782 18.9991 7.10264 18.9986C7.05659 18.9986 7.05659 18.9986 7.00961 18.9986C6.91135 18.981 6.878 18.9503 6.81807 18.8718C6.80452 18.7855 6.80452 18.7855 6.80528 18.6832C6.80526 18.6645 6.80525 18.6458 6.80523 18.6265C6.80531 18.565 6.80618 18.5034 6.80707 18.4418C6.80728 18.399 6.80744 18.3563 6.80755 18.3135C6.80798 18.2011 6.80909 18.0886 6.81033 17.9762C6.81149 17.8614 6.812 17.7466 6.81257 17.6318C6.81378 17.4067 6.8157 17.1816 6.81807 16.9565C6.79715 16.9568 6.77623 16.957 6.75467 16.9573C6.55741 16.9595 6.36015 16.9612 6.16288 16.9623C6.06146 16.9629 5.96005 16.9637 5.85864 16.965C5.76075 16.9662 5.66287 16.9669 5.56498 16.9672C5.50949 16.9675 5.45401 16.9684 5.39854 16.9693C5.3478 16.9693 5.3478 16.9693 5.29603 16.9693C5.25138 16.9697 5.25138 16.9697 5.20582 16.9701C5.10655 16.9528 5.07848 16.9212 5.01545 16.8438C5.00127 16.778 5.00127 16.778 5.00114 16.7039C5.00082 16.6757 5.0005 16.6475 5.00018 16.6185C5.0004 16.5877 5.00063 16.557 5.00087 16.5253C5.00067 16.4927 5.00047 16.4602 5.00027 16.4267C4.99977 16.3189 5.0001 16.2112 5.00048 16.1034C5.00041 16.0284 5.0003 15.9535 5.00016 15.8786C4.99995 15.7213 5.00022 15.564 5.00076 15.4068C5.00137 15.2255 5.00117 15.0443 5.00055 14.8631C5.00004 14.7071 4.99997 14.5511 5.00026 14.3952C5.00044 14.3022 5.00042 14.2092 5.00009 14.1162C4.9998 14.0123 5.00024 13.9083 5.00087 13.8044C5.00064 13.774 5.00041 13.7436 5.00018 13.7122C5.00351 13.4114 5.1078 13.1615 5.29711 12.9288C5.45959 12.7788 5.63495 12.6825 5.83754 12.5978C5.88058 12.5793 5.88058 12.5793 5.92449 12.5605C6.03433 12.5136 6.14449 12.4676 6.25475 12.4218C6.27972 12.4114 6.30469 12.401 6.33041 12.3903C7.35625 11.9632 7.35625 11.9632 7.69122 11.8303C7.73804 11.4908 7.73804 11.4908 7.62916 11.1853C7.54898 11.1299 7.46866 11.0849 7.38139 11.0416C6.95991 10.7519 6.71612 10.233 6.62091 9.74601C6.60522 9.74732 6.58954 9.74863 6.57338 9.74997C6.37878 9.75918 6.24028 9.7211 6.09346 9.58989C5.9322 9.41632 5.87201 9.23377 5.88067 8.99818C5.9037 8.79768 5.99129 8.64056 6.14209 8.50671C6.27719 8.41529 6.37322 8.39181 6.53641 8.39404C6.52491 8.37207 6.5134 8.3501 6.50155 8.32746C6.45823 8.24421 6.41529 8.16078 6.37258 8.07721C6.35418 8.04139 6.33563 8.00564 6.31693 7.96997C6.08014 7.51771 5.99231 7.11374 6.13306 6.61695C6.23587 6.29099 6.47989 6.01563 6.77582 5.8503C6.86596 5.80424 6.95638 5.7642 7.05044 5.72708C7.17574 5.67389 7.27575 5.59608 7.38315 5.51407C8.44834 4.71069 9.82408 4.95849 10.8546 5.72851ZM7.56741 5.98599C7.44603 6.08189 7.32774 6.14259 7.18423 6.1971C6.91 6.3138 6.70959 6.48149 6.59274 6.76042C6.49422 7.03628 6.53927 7.29512 6.65447 7.55798C6.69443 7.64211 6.7388 7.72345 6.78363 7.80509C7.09453 8.37973 7.09453 8.37973 7.01523 8.73204C6.98168 8.7854 6.98168 8.7854 6.93073 8.81654C6.85449 8.82798 6.85449 8.82798 6.76702 8.83062C6.63364 8.83853 6.53711 8.8526 6.42375 8.9292C6.38374 9.00921 6.38672 9.06594 6.39558 9.15453C6.45845 9.23474 6.49557 9.26297 6.59274 9.29536C6.68632 9.30078 6.77984 9.30429 6.87352 9.30735C6.9589 9.32352 6.9589 9.32352 7.01017 9.36962C7.05148 9.45237 7.06632 9.52813 7.08213 9.61927C7.17033 10.0557 7.39321 10.4772 7.76731 10.7369C7.83828 10.7837 7.90982 10.8294 7.98246 10.8735C8.11111 10.952 8.11111 10.952 8.14187 11.0135C8.14535 11.0947 8.14718 11.1751 8.14759 11.2563C8.14775 11.2804 8.14792 11.3045 8.14808 11.3293C8.14835 11.3804 8.14853 11.4314 8.14864 11.4824C8.14891 11.5606 8.14979 11.6387 8.15067 11.7168C8.15086 11.7663 8.15101 11.8159 8.15111 11.8654C8.15146 11.8888 8.15181 11.9122 8.15217 11.9363C8.15153 12.0998 8.15153 12.0998 8.10505 12.1581C8.02566 12.222 7.93167 12.2559 7.83832 12.2946C7.80508 12.3087 7.80508 12.3087 7.77118 12.323C7.69825 12.3538 7.6252 12.3843 7.55215 12.4147C7.50155 12.4361 7.45095 12.4574 7.40037 12.4787C7.14685 12.5856 6.89279 12.6911 6.6384 12.7959C6.59228 12.8149 6.54616 12.8339 6.50004 12.853C6.41347 12.8887 6.32678 12.9242 6.24001 12.9594C5.80843 13.1305 5.80843 13.1305 5.51539 13.4762C5.46279 13.656 5.46216 13.8359 5.4629 14.0214C5.4629 14.0483 5.4629 14.0753 5.46289 14.103C5.46291 14.1916 5.46313 14.2801 5.46335 14.3687C5.4634 14.4303 5.46344 14.4919 5.46347 14.5535C5.46358 14.7152 5.46386 14.8769 5.46417 15.0387C5.46451 15.233 5.46464 15.4272 5.4648 15.6215C5.46507 15.9163 5.46561 16.2111 5.4661 16.5059C5.91225 16.5059 6.3584 16.5059 6.81807 16.5059C6.82737 16.3478 6.83666 16.1898 6.84624 16.027C6.96673 15.6656 7.12225 15.4402 7.46589 15.2666C7.53181 15.2428 7.59842 15.2209 7.66546 15.2005C7.69453 15.1917 7.69453 15.1917 7.72418 15.1826C7.98197 15.1048 8.24165 15.0335 8.50121 14.9619C8.55646 14.9466 8.6117 14.9313 8.66695 14.9159C8.81115 14.876 8.95537 14.8361 9.09961 14.7962C9.30267 14.74 9.5057 14.6838 9.70873 14.6275C9.81644 14.5977 9.92415 14.5679 10.0319 14.5381C10.1504 14.5053 10.2689 14.4724 10.3874 14.4394C10.4296 14.4277 10.4718 14.4159 10.5141 14.4042C10.5704 14.3886 10.6267 14.3728 10.683 14.357C10.714 14.3483 10.7451 14.3396 10.7771 14.3307C10.8436 14.3154 10.8436 14.3154 10.874 14.2807C10.8973 14.104 10.9162 13.9208 10.874 13.7456C10.7807 13.6284 10.6633 13.5682 10.536 13.4921C10.135 13.1519 9.93125 12.7165 9.7755 12.2246C9.74558 12.2239 9.71567 12.2232 9.68484 12.2224C9.22877 12.2064 9.22877 12.2064 9.05067 12.0375C8.8833 11.8546 8.86115 11.6934 8.8655 11.4486C8.88198 11.2644 8.94867 11.1543 9.08367 11.0311C9.21715 10.9202 9.34563 10.8936 9.51673 10.8832C9.54944 10.8811 9.58215 10.879 9.61586 10.8768C9.64066 10.8755 9.66545 10.8741 9.691 10.8727C9.65195 10.7342 9.59017 10.6137 9.5238 10.487C9.2774 10.0156 9.15812 9.60641 9.31857 9.08312C9.43798 8.75154 9.69047 8.47439 10.0044 8.31483C10.0806 8.27928 10.157 8.24724 10.2354 8.21669C10.3537 8.16609 10.4515 8.09303 10.5536 8.01556C10.5717 8.00211 10.5897 7.98866 10.6084 7.9748C10.6436 7.9485 10.6786 7.92199 10.7135 7.89524C10.7552 7.86354 10.7979 7.8331 10.8406 7.80289C10.9958 7.6599 11.0194 7.41309 11.0282 7.21051C11.033 6.82298 10.8955 6.48017 10.6346 6.19358C10.3802 5.95671 10.0537 5.82863 9.73853 5.69363C9.7073 5.6802 9.67606 5.66677 9.64387 5.65294C8.89607 5.34022 8.1953 5.48331 7.56741 5.98599ZM13.8766 5.98599C13.7552 6.08189 13.6369 6.14259 13.4934 6.1971C13.2192 6.3138 13.0188 6.48149 12.9019 6.76042C12.7985 7.04988 12.8573 7.31174 12.9738 7.58768C13.0733 7.7682 13.2158 7.81946 13.3984 7.89586C13.6072 7.98662 13.795 8.08001 13.9722 8.22505C13.9913 8.23895 14.0104 8.25286 14.03 8.26719C14.3502 8.51651 14.5625 8.95528 14.6201 9.35169C14.6511 9.8268 14.5749 10.2095 14.3746 10.6406C14.3364 10.7232 14.3102 10.7804 14.3102 10.8727C14.334 10.8734 14.3579 10.8741 14.3824 10.8749C14.6391 10.8877 14.82 10.9158 14.9968 11.1103C15.1539 11.2995 15.1481 11.51 15.127 11.7458C15.0811 11.9206 14.9667 12.0426 14.8172 12.1401C14.6942 12.2029 14.5776 12.2083 14.4423 12.2141C14.4214 12.2151 14.4005 12.2162 14.379 12.2174C14.328 12.22 14.2768 12.2223 14.2257 12.2246C14.2155 12.2556 14.2053 12.2866 14.1947 12.3185C14.0207 12.8345 13.7572 13.371 13.2505 13.6312C13.1762 13.6728 13.1762 13.6728 13.1273 13.7456C13.0922 13.9214 13.1113 14.1036 13.1273 14.2807C13.2837 14.3416 13.4397 14.3925 13.6015 14.4368C13.6253 14.4434 13.6491 14.45 13.6736 14.4568C13.7518 14.4785 13.8301 14.5 13.9083 14.5216C13.9634 14.5368 14.0185 14.5521 14.0736 14.5674C14.2186 14.6075 14.3636 14.6476 14.5087 14.6876C14.7395 14.7513 14.9702 14.8152 15.2009 14.8791C15.2805 14.9011 15.3602 14.9231 15.4398 14.9451C15.5395 14.9726 15.6392 15.0003 15.7388 15.0281C15.8416 15.0568 15.9446 15.0848 16.0478 15.1125C16.1002 15.1268 16.1527 15.1412 16.2052 15.1556C16.229 15.1618 16.2527 15.168 16.2772 15.1744C16.5672 15.2548 16.8288 15.3952 16.9913 15.6556C17.1609 15.9593 17.1605 16.1205 17.1832 16.5059C17.6293 16.5059 18.0755 16.5059 18.5351 16.5059C18.5368 16.0221 18.5368 16.0221 18.5379 15.5384C18.5382 15.341 18.5386 15.1436 18.5394 14.9461C18.54 14.7869 18.5403 14.6277 18.5405 14.4684C18.5406 14.4078 18.5408 14.3472 18.5411 14.2866C18.5415 14.2014 18.5416 14.1162 18.5415 14.0309C18.5418 13.9937 18.5418 13.9937 18.5421 13.9558C18.5414 13.7171 18.5243 13.4839 18.3661 13.2949C18.2368 13.1745 18.1075 13.105 17.9458 13.0355C17.9214 13.0247 17.8969 13.014 17.8717 13.0029C17.5761 12.8738 17.2775 12.7516 16.979 12.6295C16.7897 12.552 16.6005 12.4742 16.4116 12.3957C16.3412 12.3667 16.2705 12.3383 16.1998 12.31C16.1587 12.2931 16.1175 12.2761 16.0763 12.2592C16.0578 12.252 16.0392 12.2448 16.0201 12.2373C15.941 12.2041 15.8942 12.1789 15.848 12.1055C15.827 12.0082 15.8231 11.9144 15.8237 11.8153C15.8237 11.7952 15.8236 11.7751 15.8235 11.7544C15.8235 11.7121 15.8236 11.6698 15.8238 11.6275C15.8242 11.5629 15.8239 11.4984 15.8235 11.4339C15.8235 11.3926 15.8236 11.3514 15.8237 11.3101C15.8236 11.2909 15.8235 11.2718 15.8234 11.252C15.8244 11.1417 15.8346 11.0547 15.8875 10.9572C15.9533 10.908 16.0166 10.8656 16.0864 10.8234C16.5734 10.5122 16.8162 10.0971 16.9439 9.54353C16.9806 9.38522 16.9806 9.38522 17.0423 9.32352C17.1008 9.31714 17.1596 9.31341 17.2184 9.3112C17.3609 9.30237 17.4599 9.29251 17.5775 9.21086C17.6175 9.13084 17.6145 9.07412 17.6057 8.98553C17.5428 8.90532 17.5057 8.87709 17.4085 8.8447C17.3223 8.83823 17.2361 8.83398 17.1497 8.82996C17.0705 8.81654 17.0705 8.81654 17.0194 8.78023C16.9361 8.66014 16.9399 8.50642 16.9578 8.36588C16.9959 8.24016 17.0471 8.12036 17.0987 7.99972C17.1251 7.93659 17.1515 7.87339 17.1777 7.81015C17.1951 7.76834 17.2126 7.7266 17.2304 7.68494C17.366 7.36189 17.3737 6.99632 17.2468 6.66866C16.9978 6.12594 16.5736 5.91894 16.0477 5.69363C16.0165 5.6802 15.9852 5.66677 15.9531 5.65294C15.2053 5.34022 14.5045 5.48331 13.8766 5.98599ZM11.0993 8.19688C11.1433 8.28494 11.2205 8.29929 11.3088 8.33947C11.5726 8.46559 11.796 8.64533 11.9443 8.90103C11.9072 9.01225 11.8583 9.02919 11.7594 9.08939C11.7167 9.1157 11.7167 9.1157 11.6731 9.14253C11.651 9.15579 11.629 9.16904 11.6063 9.18269C11.5371 9.11544 11.4717 9.05023 11.4138 8.97299C11.3487 8.89614 11.2866 8.8503 11.2014 8.79717C11.1756 8.7808 11.1498 8.76442 11.1233 8.74755C10.8843 8.61757 10.604 8.60972 10.3403 8.66492C10.0892 8.75399 9.8911 8.9371 9.77363 9.17488C9.66059 9.45063 9.67341 9.70515 9.78606 9.98014C9.83595 10.0913 9.8876 10.2015 9.9445 10.3093C9.96309 10.3093 9.98168 10.3093 10.0008 10.3093C10.0119 10.2865 10.0119 10.2865 10.0232 10.2632C10.0566 10.1946 10.0903 10.1261 10.1241 10.0576C10.1357 10.0337 10.1473 10.0097 10.1593 9.98504C10.1705 9.96226 10.1818 9.93947 10.1934 9.916C10.2037 9.89491 10.214 9.87381 10.2247 9.85208C10.2543 9.80235 10.2543 9.80235 10.3107 9.77418C10.4916 9.75166 10.5757 9.78591 10.7189 9.89582C10.7399 9.91261 10.7608 9.9294 10.7824 9.9467C10.9748 10.0928 11.1554 10.2187 11.381 10.3093C11.4033 10.3188 11.4256 10.3282 11.4486 10.3379C11.8536 10.4787 12.3765 10.4383 12.7611 10.253C12.9318 10.1619 13.0884 10.0516 13.2409 9.93305C13.4641 9.75993 13.4641 9.75993 13.592 9.75482C13.695 9.77505 13.7114 9.78273 13.7751 9.85868C13.8054 9.90705 13.8054 9.90705 13.8326 9.95935C13.8425 9.97814 13.8524 9.99693 13.8626 10.0163C13.8726 10.0357 13.8827 10.0552 13.893 10.0752C13.9034 10.095 13.9138 10.1147 13.9244 10.1351C13.9499 10.1837 13.9752 10.2324 14.0004 10.2812C14.1988 10.0388 14.1958 9.70638 14.1694 9.40802C14.0935 9.04155 13.8926 8.72014 13.5831 8.50891C13.377 8.38493 13.1603 8.28544 12.9407 8.18808C12.9141 8.17623 12.8876 8.16438 12.8603 8.15217C12.5887 8.03496 12.3175 7.95525 12.02 7.95923C11.986 7.95949 11.986 7.95949 11.9512 7.95975C11.6473 7.96755 11.3641 8.04557 11.0993 8.19688ZM10.5078 10.3375C10.4615 10.4255 10.4151 10.5135 10.3687 10.6016C10.3555 10.6266 10.3424 10.6517 10.3288 10.6775C10.3161 10.7014 10.3035 10.7254 10.2905 10.7501C10.2789 10.7722 10.2672 10.7943 10.2552 10.8171C10.1708 10.9785 10.1924 11.1472 10.1927 11.3268C10.1927 11.3461 10.1928 11.3654 10.1928 11.3852C10.1947 12.0346 10.2896 12.5694 10.7384 13.0626C11.0883 13.3851 11.5487 13.5873 12.0288 13.5766C12.5235 13.5438 12.9931 13.3573 13.3334 12.9882C13.628 12.6183 13.7724 12.2465 13.8032 11.774C13.8065 11.727 13.8065 11.727 13.8099 11.6791C13.8404 11.1686 13.8059 10.7973 13.5216 10.3657C13.4177 10.3657 13.3951 10.3914 13.3139 10.4537C12.792 10.8275 12.1938 10.9106 11.5674 10.8366C11.1869 10.7732 10.8176 10.5603 10.5078 10.3375ZM9.35301 11.4078C9.313 11.4878 9.31599 11.5445 9.32485 11.6331C9.38771 11.7133 9.42483 11.7416 9.52201 11.774C9.59637 11.774 9.67072 11.774 9.74734 11.774C9.74734 11.6252 9.74734 11.4765 9.74734 11.3233C9.52804 11.3187 9.52804 11.3187 9.35301 11.4078ZM14.2539 11.3233C14.2539 11.472 14.2539 11.6207 14.2539 11.774C14.4732 11.7786 14.4732 11.7786 14.6482 11.6895C14.6882 11.6095 14.6852 11.5527 14.6764 11.4641C14.6135 11.3839 14.5764 11.3557 14.4792 11.3233C14.4049 11.3233 14.3305 11.3233 14.2539 11.3233ZM11.3246 13.9427C11.2852 14.2152 11.2852 14.2152 11.3854 14.4608C11.4661 14.5533 11.5567 14.6344 11.6485 14.7156C11.6798 14.7447 11.7111 14.774 11.7422 14.8034C11.8179 14.8745 11.8948 14.9441 11.9725 15.0131C12.1373 14.9414 12.26 14.807 12.3879 14.6839C12.4016 14.6707 12.4153 14.6575 12.4295 14.6439C12.6407 14.4428 12.6407 14.4428 12.7179 14.1727C12.7117 14.0935 12.6987 14.019 12.6766 13.9427C12.6585 13.9467 12.6404 13.9507 12.6217 13.9548C12.413 13.9972 12.2132 14.0076 12.0006 14.0061C11.9697 14.0063 11.9387 14.0066 11.9069 14.0068C11.707 14.0063 11.5198 13.9857 11.3246 13.9427ZM10.7821 14.7973C10.7523 14.8056 10.7224 14.8139 10.6916 14.8225C10.659 14.8317 10.6265 14.8409 10.593 14.8504C10.5588 14.86 10.5246 14.8696 10.4894 14.8794C10.3963 14.9055 10.3032 14.9317 10.2102 14.958C10.1134 14.9853 10.0165 15.0125 9.91966 15.0396C9.80099 15.073 9.68233 15.1063 9.56369 15.1397C9.30728 15.2119 9.05066 15.2832 8.79387 15.354C8.69836 15.3804 8.60285 15.4069 8.50734 15.4333C8.44721 15.4499 8.38706 15.4665 8.3269 15.483C8.24331 15.5059 8.1598 15.5291 8.0763 15.5523C8.05225 15.5588 8.02821 15.5653 8.00344 15.5721C7.72806 15.6492 7.5216 15.7318 7.35322 15.9707C7.26082 16.1429 7.26456 16.3439 7.26553 16.5353C7.26552 16.5571 7.26552 16.5788 7.26552 16.6012C7.26554 16.6724 7.26575 16.7435 7.26598 16.8147C7.26603 16.8643 7.26607 16.9139 7.2661 16.9635C7.2662 17.0936 7.26648 17.2236 7.26679 17.3537C7.26713 17.51 7.26726 17.6664 7.26742 17.8227C7.2677 18.0597 7.26824 18.2968 7.26873 18.5338C7.71488 18.5338 8.16103 18.5338 8.62069 18.5338C8.62069 17.9389 8.62069 17.3441 8.62069 16.7312C8.76941 16.7312 8.91813 16.7312 9.07135 16.7312C9.07135 17.3261 9.07135 17.9209 9.07135 18.5338C11.0047 18.5338 12.938 18.5338 14.9299 18.5338C14.9299 17.9389 14.9299 17.3441 14.9299 16.7312C15.0786 16.7312 15.2273 16.7312 15.3805 16.7312C15.3805 17.3261 15.3805 17.9209 15.3805 18.5338C15.8267 18.5338 16.2728 18.5338 16.7325 18.5338C16.7341 18.1452 16.7341 18.1452 16.7353 17.7566C16.7356 17.5979 16.736 17.4393 16.7368 17.2806C16.7374 17.1526 16.7377 17.0246 16.7379 16.8966C16.738 16.8479 16.7382 16.7992 16.7385 16.7506C16.7614 16.3025 16.7614 16.3025 16.597 15.9038C16.5766 15.8782 16.5766 15.8782 16.5559 15.8521C16.406 15.6971 16.2627 15.6492 16.0589 15.5923C16.0263 15.583 15.9937 15.5736 15.9601 15.5639C15.8641 15.5365 15.7681 15.5093 15.6719 15.4823C15.5766 15.4555 15.4814 15.4284 15.3862 15.4013C15.1108 15.3229 14.8351 15.2453 14.5592 15.1683C14.4137 15.1277 14.2682 15.087 14.1228 15.0459C13.9799 15.0056 13.837 14.9655 13.6939 14.9257C13.6399 14.9106 13.586 14.8954 13.532 14.8801C13.4573 14.8589 13.3824 14.8381 13.3075 14.8174C13.2855 14.8111 13.2635 14.8048 13.2409 14.7982C13.1284 14.7676 13.0414 14.7471 12.9301 14.7877C12.8664 14.8421 12.8097 14.8957 12.752 14.9558C12.7354 14.9726 12.7189 14.9894 12.7018 15.0067C12.6491 15.0602 12.5968 15.1141 12.5446 15.168C12.4919 15.2218 12.4392 15.2756 12.3864 15.3293C12.3536 15.3627 12.3209 15.3962 12.2883 15.4298C12.1922 15.5283 12.1491 15.5714 12.0112 15.5905C11.7479 15.5853 11.5202 15.2367 11.3458 15.0571C11.3319 15.0427 11.3181 15.0283 11.3038 15.0135C11.2633 14.9715 11.2225 14.9298 11.1816 14.8882C11.1577 14.8635 11.1337 14.8388 11.1091 14.8133C11.0014 14.7257 10.9059 14.7625 10.7821 14.7973Z" fill="#2666EE"/>
</svg>
