<svg width="24" height="24" viewBox="0 0 24 24" fill="none" xmlns="http://www.w3.org/2000/svg">
<rect width="24" height="24" rx="5" fill="white"/>
<path d="M9.80714 12.6952C9.81604 12.7254 9.81604 12.7254 9.82511 12.7563C9.95239 13.1486 10.2217 13.4328 10.5034 13.7244C10.5222 13.7438 10.5409 13.7633 10.5603 13.7833C10.779 14.0085 10.9981 14.2266 11.2452 14.4208C11.322 14.4822 11.3941 14.547 11.4664 14.6136C11.5873 14.7238 11.7124 14.8268 11.841 14.9277C11.8583 14.9413 11.8755 14.9548 11.8933 14.9688C11.9272 14.9951 11.9612 15.0212 11.9955 15.0471C12.0316 15.0747 12.0671 15.1032 12.1019 15.1323C12.1622 15.1825 12.1622 15.1825 12.2591 15.238C12.4073 15.2194 12.5295 15.0876 12.6413 14.9939C12.6735 14.9674 12.6735 14.9674 12.7063 14.9403C12.7493 14.9047 12.7923 14.869 12.8353 14.8333C12.8866 14.7908 12.9381 14.7487 12.9899 14.7069C13.1484 14.579 13.3021 14.4472 13.4524 14.3097C13.5155 14.2526 13.5794 14.1968 13.6438 14.1412C14.3602 13.5232 14.3602 13.5232 14.7717 12.6952C15.047 12.6755 15.384 12.7026 15.6082 12.8789C15.917 13.2442 16.0427 13.7686 16.0128 14.239C15.9777 14.254 15.9777 14.254 15.9419 14.2692C15.6522 14.4015 15.4559 14.5547 15.3317 14.8539C15.2483 15.1204 15.2543 15.3698 15.3714 15.6241C15.4991 15.8656 15.6598 16.0163 15.9169 16.1202C16.1724 16.1892 16.4625 16.1794 16.7027 16.0649C16.9661 15.908 17.0973 15.708 17.1934 15.4196C17.2194 15.0647 17.1858 14.8181 16.9512 14.5417C16.9512 14.5218 16.9512 14.5018 16.9512 14.4812C16.8811 14.4459 16.8107 14.4113 16.7399 14.3771C16.7079 14.3615 16.6759 14.3459 16.6428 14.3298C16.6106 14.3142 16.5783 14.2986 16.5451 14.2825C16.4669 14.239 16.4669 14.239 16.4366 14.1785C16.4302 14.1234 16.4239 14.0684 16.4186 14.0132C16.3915 13.7347 16.3337 13.4781 16.255 13.2098C16.2446 13.1695 16.2344 13.1292 16.2247 13.0887C17.0135 13.316 17.6826 14.1195 18.0662 14.8026C18.2417 15.126 18.3672 15.4588 18.4648 15.8131C18.4735 15.8443 18.4735 15.8443 18.4824 15.8761C18.6604 16.5493 18.645 17.4451 18.3057 18.0621C18.0029 18.5326 17.5501 18.736 17.0241 18.8675C16.4048 18.9989 15.7592 19.0008 15.1288 18.9995C15.0596 18.9996 14.9903 18.9997 14.9211 18.9998C14.7357 19.0001 14.5504 19 14.365 18.9998C14.1693 18.9996 13.9737 18.9998 13.778 18.9999C13.4288 19 13.0795 18.9998 12.7303 18.9995C12.4154 18.9992 12.1006 18.9993 11.7858 18.9996C11.4177 18.9999 11.0495 19 10.6814 18.9998C10.4875 18.9997 10.2935 18.9997 10.0996 18.9999C9.91709 19.0001 9.73461 19 9.55213 18.9996C9.48588 18.9995 9.41962 18.9996 9.35337 18.9997C9.00045 19.0004 8.65027 18.9908 8.29826 18.9642C8.26626 18.9618 8.23425 18.9594 8.20128 18.9569C7.54659 18.903 6.89309 18.767 6.4224 18.2727C5.96057 17.7015 5.96645 16.9285 6.03219 16.2325C6.12872 15.4737 6.46494 14.7277 6.96161 14.1482C6.97459 14.1329 6.98758 14.1176 7.00096 14.1018C7.34649 13.6975 7.7548 13.3577 8.23302 13.119C8.253 13.119 8.27297 13.119 8.29356 13.119C8.28473 13.1631 8.2759 13.2073 8.26707 13.2514C8.25876 13.2933 8.25876 13.2933 8.25028 13.3361C8.23977 13.3882 8.22897 13.4402 8.21764 13.4922C8.18807 13.6302 8.16951 13.7635 8.15906 13.9045C8.14047 14.1205 8.10346 14.2682 7.9426 14.4229C7.86563 14.4845 7.78631 14.5406 7.70515 14.5966C7.39054 14.8172 7.19553 15.1598 7.05242 15.5104C7.03088 15.6184 7.03088 15.6184 7.02936 15.6841C7.01454 15.8249 6.96758 15.9621 6.92945 16.0981C6.87521 16.3056 6.86438 16.5003 6.86323 16.7137C6.8626 16.7421 6.86198 16.7705 6.86133 16.7998C6.86003 17.0349 6.89091 17.2446 7.01778 17.4463C7.23377 17.6528 7.51303 17.6763 7.79869 17.6739C7.90602 17.6589 7.96529 17.6336 8.05139 17.5689C8.09818 17.4753 8.09055 17.3996 8.08166 17.2965C8.0145 17.2085 7.97512 17.1802 7.86976 17.1451C7.82934 17.1427 7.78881 17.1418 7.74832 17.1421C7.72539 17.1422 7.70246 17.1423 7.67884 17.1424C7.65506 17.1427 7.63128 17.1429 7.60677 17.1432C7.57057 17.1434 7.57057 17.1434 7.53364 17.1436C7.47414 17.144 7.41464 17.1445 7.35514 17.1451C7.23471 16.7838 7.3055 16.244 7.45671 15.902C7.50656 15.813 7.56341 15.7408 7.62758 15.6618C7.6668 15.5979 7.70524 15.5336 7.74299 15.4688C7.87469 15.2498 8.01486 15.0554 8.26329 14.9655C8.41381 14.9394 8.50478 14.9856 8.62631 15.0685C8.82337 15.2253 8.94324 15.4238 9.06312 15.6425C9.10493 15.7211 9.10493 15.7211 9.15843 15.7656C9.22604 15.8399 9.24007 15.9234 9.26603 16.0194C9.28114 16.074 9.28114 16.074 9.29654 16.1297C9.34734 16.3372 9.35773 16.5293 9.35685 16.7421C9.35697 16.7708 9.35708 16.7996 9.3572 16.8292C9.35717 16.8568 9.35713 16.8843 9.35709 16.9127C9.35705 16.9377 9.35702 16.9627 9.35698 16.9885C9.35307 17.0543 9.35307 17.0543 9.32279 17.1451C9.28994 17.144 9.25708 17.143 9.22323 17.1419C9.17948 17.1411 9.13573 17.1402 9.09197 17.1394C9.07039 17.1387 9.04881 17.1379 9.02658 17.1371C8.88107 17.1351 8.78244 17.1544 8.65682 17.2359C8.60502 17.3352 8.59032 17.3891 8.6133 17.4989C8.66839 17.5875 8.71442 17.614 8.80818 17.6597C9.11436 17.7058 9.37234 17.6576 9.62551 17.4781C9.80995 17.2761 9.81821 17.0105 9.8166 16.7497C9.81649 16.7219 9.81639 16.694 9.81628 16.6654C9.81115 16.3398 9.74422 16.0393 9.64384 15.73C9.62525 15.6608 9.6197 15.5988 9.61605 15.5275C9.58282 15.158 9.26145 14.8237 8.99383 14.5933C8.92586 14.5373 8.92586 14.5373 8.83277 14.4793C8.71967 14.4014 8.62946 14.3328 8.566 14.2088C8.49195 13.7747 8.63607 13.2961 8.87889 12.9383C9.00324 12.7917 9.17101 12.7621 9.35307 12.7254C9.39989 12.7151 9.39989 12.7151 9.44766 12.7046C9.56767 12.6916 9.68657 12.6928 9.80714 12.6952Z" fill="#2666EE"/>
<path d="M12.1341 5.00146C13.1168 4.97504 13.9708 5.30868 14.7021 5.95655C15.3245 6.54665 15.718 7.38589 15.75 8.24265C15.7604 8.71021 15.7336 9.15355 15.6193 9.60747C15.6098 9.64545 15.6098 9.64545 15.6001 9.6842C15.3456 10.6697 14.8503 11.5811 14.1662 12.3319C14.1455 12.3549 14.1247 12.3778 14.1033 12.4014C13.6518 12.8758 13.0404 13.2323 12.3769 13.2543C12.0762 13.2575 11.8132 13.234 11.5326 13.119C11.5138 13.1113 11.4951 13.1037 11.4757 13.0958C11.1261 12.9491 10.8455 12.7342 10.5639 12.4833C10.5385 12.4609 10.513 12.4386 10.4868 12.4155C10.154 12.1027 9.87711 11.6998 9.65576 11.3027C9.64305 11.2801 9.63034 11.2575 9.61724 11.2342C9.0039 10.1328 8.59646 8.77818 8.94009 7.52346C8.99365 7.34347 9.0611 7.17423 9.14114 7.00411C9.14988 6.98544 9.15861 6.96677 9.16762 6.94753C9.558 6.12748 10.2611 5.51294 11.1106 5.19739C11.4416 5.0822 11.7846 5.01556 12.1341 5.00146Z" fill="#2666EE"/>
<path d="M16.4763 14.7594C16.625 14.8596 16.6979 14.9701 16.7332 15.1439C16.7472 15.2897 16.7221 15.3965 16.6291 15.5112C16.5162 15.6201 16.4149 15.6922 16.2553 15.6981C16.0946 15.6822 15.9703 15.6337 15.8633 15.5105C15.7615 15.3624 15.7502 15.2313 15.7706 15.0564C15.8114 14.9305 15.8781 14.8439 15.9882 14.7707C16.1504 14.69 16.309 14.6994 16.4763 14.7594Z" fill="#2666EE"/>
</svg>
