<svg width="24" height="24" viewBox="0 0 24 24" fill="none" xmlns="http://www.w3.org/2000/svg">
<rect width="24" height="24" rx="5" fill="white"/>
<path d="M15.0799 17.0995C15.1381 17.1886 15.1711 17.2918 15.1754 17.3982C15.1797 17.5045 15.1553 17.6101 15.1046 17.7037C15.0539 17.7973 14.9788 17.8754 14.8874 17.9299C14.796 17.9844 14.6915 18.0131 14.5851 18.0131H3.68759C3.58115 18.0131 3.4767 17.9844 3.38526 17.9299C3.29381 17.8754 3.21878 17.7973 3.16809 17.7037C3.1174 17.6101 3.09293 17.5045 3.09726 17.3982C3.1016 17.2918 3.13458 17.1886 3.19272 17.0995C4.02448 15.8192 5.2479 14.8422 6.68045 14.3142C5.88851 13.7869 5.28726 13.0189 4.96561 12.1235C4.64396 11.2281 4.619 10.253 4.8944 9.34235C5.16981 8.4317 5.73096 7.63385 6.49489 7.06678C7.25881 6.49972 8.18494 6.19355 9.13633 6.19355C10.0877 6.19355 11.0139 6.49972 11.7778 7.06678C12.5417 7.63385 13.1029 8.4317 13.3783 9.34235C13.6537 10.253 13.6287 11.2281 13.3071 12.1235C12.9854 13.0189 12.3842 13.7869 11.5922 14.3142C13.0248 14.8422 14.2482 15.8192 15.0799 17.0995ZM21.5731 17.0884C20.7411 15.8135 19.5204 14.8407 18.092 14.3142C19.0269 13.6844 19.6867 12.722 19.9371 11.6229C20.1875 10.5238 20.0096 9.37063 19.4397 8.39806C18.8698 7.42548 17.9506 6.70664 16.8694 6.38785C15.7882 6.06906 14.6261 6.17428 13.6197 6.68209C13.5812 6.70196 13.5476 6.73005 13.5212 6.76437C13.4947 6.79868 13.4762 6.83839 13.4668 6.88067C13.4574 6.92296 13.4575 6.96678 13.4669 7.00905C13.4764 7.05132 13.495 7.09099 13.5215 7.12526C14.2698 8.05873 14.6996 9.20729 14.7478 10.4027C14.7961 11.5981 14.4603 12.7776 13.7896 13.7683C13.7462 13.8331 13.7302 13.9123 13.745 13.9888C13.7598 14.0653 13.8042 14.1329 13.8686 14.1768C14.7431 14.7871 15.4916 15.5602 16.0734 16.4539C16.308 16.8132 16.4038 17.2456 16.343 17.6704C16.3361 17.7127 16.3385 17.7559 16.35 17.7971C16.3616 17.8384 16.3819 17.8766 16.4096 17.9092C16.4374 17.9418 16.4719 17.968 16.5107 17.9859C16.5496 18.0039 16.5919 18.0132 16.6347 18.0131H21.0885C21.2187 18.0132 21.3451 17.9703 21.4484 17.8911C21.5516 17.8119 21.6258 17.7008 21.6595 17.5751C21.68 17.4925 21.683 17.4064 21.6681 17.3226C21.6532 17.2387 21.6208 17.1589 21.5731 17.0884Z" fill="#2666EE"/>
</svg>
