<svg width="24" height="24" viewBox="0 0 24 24" fill="none" xmlns="http://www.w3.org/2000/svg">
<g clip-path="url(#clip0_218_10181)">
<rect width="24" height="24" rx="5" fill="white"/>
<path d="M10.4981 20.5635C10.4981 20.8591 10.3806 21.1427 10.1715 21.3518C9.96245 21.5608 9.67889 21.6783 9.38322 21.6783H4.18064C3.68785 21.6783 3.21524 21.4825 2.86679 21.1341C2.51833 20.7856 2.32257 20.313 2.32257 19.8202V4.95572C2.32257 4.46293 2.51833 3.99033 2.86679 3.64187C3.21524 3.29342 3.68785 3.09766 4.18064 3.09766H9.38322C9.67889 3.09766 9.96245 3.21511 10.1715 3.42418C10.3806 3.63326 10.4981 3.91682 10.4981 4.21249C10.4981 4.50817 10.3806 4.79173 10.1715 5.00081C9.96245 5.20988 9.67889 5.32733 9.38322 5.32733H4.55225V19.4486H9.38322C9.67889 19.4486 9.96245 19.5661 10.1715 19.7752C10.3806 19.9842 10.4981 20.2678 10.4981 20.5635ZM20.5771 11.5992L16.861 7.8831C16.6516 7.67367 16.3675 7.55601 16.0713 7.55601C15.7751 7.55601 15.4911 7.67367 15.2816 7.8831C15.0722 8.09254 14.9545 8.37659 14.9545 8.67278C14.9545 8.96897 15.0722 9.25302 15.2816 9.46246L17.0942 11.2731H9.38322C9.08754 11.2731 8.80398 11.3906 8.59491 11.5997C8.38583 11.8087 8.26838 12.0923 8.26838 12.388C8.26838 12.6837 8.38583 12.9672 8.59491 13.1763C8.80398 13.3854 9.08754 13.5028 9.38322 13.5028H17.0942L15.2807 15.3154C15.0713 15.5248 14.9536 15.8089 14.9536 16.105C14.9536 16.4012 15.0713 16.6853 15.2807 16.8947C15.4901 17.1041 15.7742 17.2218 16.0704 17.2218C16.3666 17.2218 16.6506 17.1041 16.8601 16.8947L20.5762 13.1786C20.6802 13.0751 20.7627 12.9521 20.8191 12.8166C20.8754 12.6811 20.9045 12.5358 20.9046 12.3891C20.9046 12.2424 20.8758 12.0971 20.8196 11.9615C20.7634 11.826 20.681 11.7029 20.5771 11.5992Z" fill="#2666EE"/>
</g>
<defs>
<clipPath id="clip0_218_10181">
<rect width="24" height="24" rx="5" fill="white"/>
</clipPath>
</defs>
</svg>
