<svg width="24" height="24" viewBox="0 0 24 24" fill="none" xmlns="http://www.w3.org/2000/svg">
<g clip-path="url(#clip0_4_37)">
<rect width="24" height="24" rx="5" fill="white"/>
<path d="M6.15499 6.00822C6.19746 6.00752 6.19746 6.00752 6.24079 6.00681C6.37078 6.00552 6.50076 6.00434 6.63075 6.00367C6.69895 6.0032 6.76714 6.00241 6.83533 6.0013C7.37465 5.99258 7.7689 6.0172 8.17336 6.4087C8.39043 6.64226 8.47427 6.93713 8.55064 7.23953C8.56378 7.28992 8.56378 7.28992 8.57719 7.34134C8.61002 7.46753 8.64195 7.59392 8.67357 7.72042C14.1861 7.73474 14.1861 7.73474 19.81 7.74935C19.7775 7.97714 19.7775 7.97714 19.7515 8.06815C19.7456 8.08895 19.7398 8.10975 19.7338 8.13117C19.7242 8.16446 19.7242 8.16446 19.7144 8.19843C19.7075 8.22252 19.7007 8.24662 19.6937 8.27144C19.6708 8.35184 19.6478 8.43218 19.6248 8.51253C19.6083 8.57032 19.5919 8.62812 19.5755 8.68593C19.5308 8.84288 19.486 8.99978 19.4411 9.15667C19.394 9.32156 19.3471 9.48649 19.3001 9.65142C19.221 9.92897 19.1417 10.2065 19.0625 10.484C18.9713 10.803 18.8803 11.122 18.7894 11.4411C18.7016 11.7494 18.6136 12.0577 18.5257 12.366C18.4884 12.4964 18.4513 12.6268 18.4141 12.7573C18.37 12.9119 18.3259 13.0664 18.2817 13.221C18.2657 13.2771 18.2497 13.3332 18.2337 13.3892C18.1095 13.8252 17.9776 14.2586 17.843 14.6915C17.8261 14.6916 17.8092 14.6916 17.7917 14.6917C16.7879 14.694 15.784 14.6966 14.7801 14.6996C14.6596 14.7 14.5391 14.7004 14.4185 14.7007C14.3945 14.7008 14.3705 14.7009 14.3458 14.7009C13.9573 14.7021 13.5687 14.703 13.1802 14.7039C12.7815 14.7048 12.3828 14.7059 11.9841 14.7072C11.7381 14.708 11.4921 14.7087 11.2461 14.7091C11.0774 14.7094 10.9087 14.7099 10.74 14.7106C10.6427 14.711 10.5454 14.7113 10.448 14.7113C10.3424 14.7114 10.2369 14.7119 10.1313 14.7124C10.1006 14.7123 10.0699 14.7123 10.0383 14.7122C9.75574 14.7142 9.75574 14.7142 9.51604 14.8506C9.41596 14.9684 9.41748 15.0479 9.41943 15.1984C9.42758 15.2923 9.45019 15.3439 9.51242 15.4147C9.69113 15.5464 9.87836 15.5345 10.0911 15.534C10.1205 15.534 10.1499 15.5341 10.1801 15.5341C10.2787 15.5342 10.3773 15.5341 10.476 15.534C10.5466 15.5341 10.6173 15.5341 10.6879 15.5342C10.8205 15.5343 10.953 15.5344 11.0855 15.5344C11.3462 15.5344 11.6069 15.5347 11.8675 15.5352C11.9086 15.5353 11.9497 15.5354 11.9908 15.5355C12.053 15.5356 12.1153 15.5357 12.1776 15.5358C12.4122 15.5362 12.6469 15.5366 12.8815 15.537C12.903 15.537 12.9244 15.537 12.9465 15.5371C13.2936 15.5376 13.6407 15.5377 13.9878 15.5376C14.3446 15.5376 14.7013 15.5381 15.0581 15.5391C15.2779 15.5397 15.4977 15.5398 15.7175 15.5394C15.8863 15.5392 16.055 15.5396 16.2238 15.5404C16.2928 15.5406 16.3617 15.5405 16.4307 15.5402C16.9513 15.538 17.3249 15.5804 17.7179 15.9522C18.0054 16.2568 18.062 16.6025 18.0554 17.0015C18.0396 17.3584 17.8604 17.6388 17.6062 17.8788C17.2602 18.1604 16.8831 18.2011 16.4546 18.1626C16.1271 18.0893 15.8333 17.8924 15.6447 17.613C15.5354 17.418 15.4387 17.243 15.4384 17.0164C15.4383 16.9912 15.4383 16.966 15.4383 16.9401C15.4384 16.914 15.4385 16.8879 15.4386 16.861C15.4385 16.8349 15.4384 16.8088 15.4383 16.7819C15.4383 16.7441 15.4383 16.7441 15.4384 16.7055C15.4384 16.6826 15.4384 16.6597 15.4385 16.6361C15.4422 16.5717 15.4422 16.5717 15.4711 16.456C14.5929 16.456 13.7148 16.456 12.81 16.456C12.8195 16.4942 12.8291 16.5324 12.8389 16.5717C12.8764 16.9769 12.8436 17.3323 12.5966 17.6691C12.3869 17.9152 12.0995 18.1374 11.7662 18.1682C11.3455 18.1834 11.0013 18.1523 10.6672 17.8676C10.4529 17.6668 10.2495 17.3894 10.2318 17.0858C10.2318 17.0515 10.2318 17.0515 10.2317 17.0164C10.2317 16.9912 10.2317 16.966 10.2316 16.9401C10.2317 16.914 10.2318 16.8879 10.232 16.861C10.2318 16.8349 10.2317 16.8088 10.2316 16.7819C10.2317 16.7441 10.2317 16.7441 10.2317 16.7055C10.2318 16.6826 10.2318 16.6597 10.2318 16.6361C10.2355 16.5726 10.247 16.517 10.2645 16.456C10.2437 16.4559 10.2229 16.4558 10.2014 16.4556C9.64859 16.4501 9.24458 16.4287 8.82769 16.0342C8.53741 15.7267 8.48598 15.3826 8.49211 14.9809C8.50415 14.66 8.65355 14.3949 8.87764 14.1687C9.13237 13.9395 9.13237 13.9395 9.25209 13.9395C9.24783 13.9225 9.24358 13.9055 9.23919 13.8881C8.9792 12.8518 8.7212 11.815 8.46463 10.7779C8.44216 10.6871 8.41968 10.5963 8.39721 10.5054C8.2536 9.92496 8.11012 9.34446 7.96766 8.76372C7.95105 8.69599 7.93442 8.62826 7.9178 8.56053C7.87274 8.37694 7.8277 8.19335 7.78286 8.0097C7.76115 7.92083 7.73934 7.83199 7.71755 7.74313C7.70635 7.69705 7.70635 7.69705 7.69492 7.65005C7.62378 7.26584 7.62378 7.26584 7.40084 6.96835C7.26048 6.92005 7.13757 6.90309 6.98955 6.90282C6.97041 6.90276 6.95128 6.90271 6.93156 6.90265C6.89141 6.90261 6.85125 6.90271 6.8111 6.90296C6.75016 6.90327 6.68925 6.90296 6.62832 6.90259C6.58903 6.90263 6.54975 6.9027 6.51047 6.90282C6.47525 6.90288 6.44003 6.90295 6.40375 6.90301C6.2542 6.91398 6.13702 6.93892 6.01783 7.03163C5.93772 7.12417 5.93772 7.12417 5.8967 7.31546C5.60079 7.31546 5.30488 7.31546 5 7.31546C5 6.9037 5.11325 6.63698 5.39287 6.34147C5.59629 6.14943 5.87411 6.01243 6.15499 6.00822ZM8.87605 8.61712C8.97625 9.06803 8.97625 9.06803 9.08418 9.51696C9.09233 9.54965 9.09233 9.54965 9.10063 9.583C9.10624 9.60551 9.11185 9.62802 9.11763 9.65122C9.12968 9.69979 9.14172 9.74837 9.15376 9.79695C9.17928 9.89994 9.20484 10.0029 9.23043 10.1059C9.2983 10.3791 9.36594 10.6523 9.43355 10.9255C9.44043 10.9533 9.4473 10.9811 9.45439 11.0097C9.62049 11.681 9.78386 12.353 9.94656 13.0251C9.96761 13.112 9.98868 13.1989 10.0098 13.2858C10.0241 13.3451 10.0384 13.4043 10.0527 13.4636C10.0612 13.4986 10.0697 13.5336 10.0784 13.5697C10.0858 13.6001 10.0931 13.6305 10.1007 13.6618C10.1146 13.7164 10.131 13.7703 10.1488 13.8238C12.4588 13.8238 14.7688 13.8238 17.1488 13.8238C17.2048 13.6746 17.2552 13.5329 17.2988 13.3808C17.3045 13.3609 17.3102 13.3409 17.3162 13.3203C17.3352 13.2542 17.354 13.188 17.3729 13.1218C17.3866 13.0741 17.4003 13.0264 17.414 12.9787C17.451 12.8496 17.4879 12.7205 17.5248 12.5914C17.5556 12.4836 17.5864 12.3757 17.6173 12.2679C17.6901 12.0136 17.7627 11.7594 17.8354 11.505C17.9103 11.2426 17.9854 10.9803 18.0606 10.7179C18.1252 10.4925 18.1897 10.2671 18.254 10.0417C18.2925 9.90708 18.331 9.7725 18.3696 9.63795C18.4058 9.51158 18.4419 9.38518 18.4779 9.25874C18.4911 9.21231 18.5044 9.1659 18.5178 9.11951C18.536 9.05627 18.554 8.99298 18.5719 8.92967C18.582 8.89424 18.5922 8.85881 18.6026 8.82231C18.6285 8.72941 18.6285 8.72941 18.624 8.61712C15.4072 8.61712 12.1904 8.61712 8.87605 8.61712ZM11.1648 16.6332C11.1159 16.7581 11.1132 16.8733 11.1323 17.0056C11.1948 17.133 11.2594 17.2138 11.3926 17.2659C11.5385 17.2857 11.648 17.2825 11.7813 17.2171C11.8785 17.1294 11.9333 17.0709 11.9513 16.9381C11.959 16.7728 11.9413 16.67 11.8265 16.5428C11.7155 16.4449 11.6057 16.4412 11.4631 16.4458C11.3282 16.4653 11.2523 16.5341 11.1648 16.6332ZM16.3714 16.6332C16.3226 16.7581 16.3198 16.8733 16.3389 17.0056C16.4015 17.133 16.4661 17.2138 16.5992 17.2659C16.7451 17.2857 16.8547 17.2825 16.9879 17.2171C17.0851 17.1294 17.14 17.0709 17.158 16.9381C17.1657 16.7728 17.1479 16.67 17.0331 16.5428C16.9221 16.4449 16.8123 16.4412 16.6697 16.4458C16.5349 16.4653 16.4589 16.5341 16.3714 16.6332Z" fill="#2666EE"/>
<path d="M15.4126 9.71686C15.5145 9.76484 15.5803 9.82003 15.6598 9.90059C15.6842 9.9252 15.7086 9.9498 15.7338 9.97516C15.759 10.0009 15.7843 10.0266 15.8103 10.0531C15.836 10.0791 15.8617 10.105 15.8881 10.1318C15.9515 10.1958 16.0147 10.26 16.0778 10.3243C16.036 10.4203 15.9838 10.4834 15.9098 10.5571C15.8869 10.5802 15.8639 10.6032 15.8402 10.627C15.8024 10.6645 15.8024 10.6645 15.7638 10.7027C15.7373 10.7293 15.7108 10.7558 15.6834 10.7832C15.6108 10.8558 15.5379 10.9283 15.4651 11.0008C15.3889 11.0766 15.3129 11.1525 15.2369 11.2285C15.093 11.3722 14.9489 11.5158 14.8048 11.6593C14.6407 11.8228 14.4768 11.9864 14.3129 12.15C13.9758 12.4865 13.6384 12.8228 13.301 13.159C13.1941 13.109 13.1257 13.0486 13.042 12.9645C13.0282 12.9507 13.0143 12.9368 13.0001 12.9226C12.9546 12.877 12.9092 12.8313 12.8639 12.7855C12.8323 12.7538 12.8007 12.7221 12.7691 12.6904C12.686 12.6071 12.6031 12.5237 12.5203 12.4402C12.4357 12.3549 12.3509 12.2699 12.2661 12.1848C12.0999 12.018 11.9338 11.851 11.7679 11.6838C11.8159 11.5819 11.8711 11.5161 11.9516 11.4366C11.9762 11.4122 12.0008 11.3877 12.0262 11.3626C12.0519 11.3373 12.0777 11.3121 12.1042 11.2861C12.1301 11.2604 12.1561 11.2347 12.1828 11.2082C12.2469 11.1449 12.311 11.0816 12.3753 11.0185C12.4967 11.0659 12.5774 11.1554 12.6669 11.2465C12.6834 11.2631 12.6999 11.2798 12.717 11.2969C12.7695 11.3498 12.8219 11.4029 12.8743 11.456C12.91 11.492 12.9457 11.528 12.9814 11.5639C13.0688 11.652 13.156 11.7401 13.2431 11.8284C13.3265 11.7906 13.3862 11.7504 13.4507 11.6857C13.4681 11.6683 13.4856 11.6509 13.5036 11.6331C13.5223 11.6141 13.5411 11.5951 13.5605 11.5755C13.5805 11.5555 13.6006 11.5354 13.6212 11.5148C13.6874 11.4485 13.7534 11.3821 13.8194 11.3157C13.8652 11.2697 13.9111 11.2238 13.957 11.1778C14.0777 11.0569 14.1983 10.9357 14.3188 10.8146C14.4418 10.691 14.565 10.5675 14.6882 10.4441C14.9298 10.2018 15.1712 9.9594 15.4126 9.71686Z" fill="#2666EE"/>
</g>
<defs>
<clipPath id="clip0_4_37">
<rect width="24" height="24" rx="5" fill="white"/>
</clipPath>
</defs>
</svg>
