<svg width="24" height="24" viewBox="0 0 24 24" fill="none" xmlns="http://www.w3.org/2000/svg">
<g clip-path="url(#clip0_4_28)">
<rect width="24" height="24" rx="5" fill="white"/>
<path d="M5.07704 8.55363C5.24557 8.57645 5.38915 8.64573 5.54261 8.71513C5.57203 8.72826 5.60144 8.74139 5.63175 8.75492C5.72908 8.79842 5.8263 8.84215 5.92353 8.88588C5.99214 8.91658 6.06076 8.94726 6.12938 8.97793C6.2721 9.04172 6.41478 9.10559 6.55744 9.16952C6.85205 9.30149 7.14705 9.43259 7.44207 9.56363C7.53643 9.60554 7.63077 9.64748 7.72512 9.68941C8.32108 9.95426 8.91736 10.2184 9.51418 10.4813C9.67572 10.5525 9.83708 10.6241 9.99833 10.6959C10.0664 10.726 10.1345 10.7562 10.2025 10.7863C10.2304 10.7988 10.2583 10.8114 10.287 10.8243C10.5124 10.9234 10.7282 10.9853 10.9686 11.0592C10.9686 13.3499 10.9686 15.6405 10.9686 18.0005C10.4249 17.8063 10.4249 17.8063 10.186 17.6953C10.1589 17.683 10.1318 17.6706 10.1039 17.6579C10.0461 17.6314 9.98829 17.6049 9.93055 17.5784C9.77359 17.5062 9.61634 17.4346 9.45909 17.3631C9.42685 17.3484 9.3946 17.3337 9.36138 17.3186C9.06329 17.1831 8.76367 17.0513 8.46358 16.9203C7.97571 16.7074 7.48885 16.4923 7.00356 16.2736C6.9419 16.2458 6.88021 16.2181 6.81851 16.1904C6.03135 15.8371 5.48638 15.522 5.11235 14.7127C4.99988 14.4001 4.99962 14.0964 5.00056 13.7687C5.00046 13.7142 5.00034 13.6598 5.0002 13.6054C4.99989 13.4583 5.00001 13.3113 5.00022 13.1643C5.00039 13.0101 5.00023 12.8559 5.00013 12.7017C5.00001 12.443 5.00017 12.1842 5.00049 11.9255C5.00086 11.6265 5.00074 11.3276 5.00037 11.0286C5.00006 10.7716 5.00002 10.5145 5.00019 10.2574C5.0003 10.1041 5.00031 9.95071 5.00009 9.79734C4.99989 9.65324 5.00003 9.50914 5.00042 9.36504C5.00051 9.31222 5.00048 9.25939 5.00033 9.20657C5.00015 9.13437 5.00038 9.06218 5.00072 8.98998C5.00074 8.94962 5.00077 8.90925 5.0008 8.86766C5.00961 8.75301 5.03605 8.66066 5.07704 8.55363Z" fill="#2666EE"/>
<path d="M17.9777 8.58706C18.0095 8.72152 18.016 8.84679 18.0163 8.9848C18.0164 9.00733 18.0165 9.02987 18.0166 9.05308C18.0169 9.12835 18.017 9.20361 18.017 9.27888C18.0172 9.33295 18.0173 9.38703 18.0175 9.4411C18.018 9.58789 18.0182 9.73467 18.0183 9.88146C18.0184 9.97329 18.0186 10.0651 18.0187 10.157C18.0192 10.4447 18.0195 10.7324 18.0196 11.0201C18.0198 11.3515 18.0204 11.6829 18.0214 12.0143C18.0221 12.2709 18.0224 12.5275 18.0225 12.7841C18.0225 12.9371 18.0227 13.0901 18.0233 13.2432C18.0239 13.3873 18.024 13.5315 18.0237 13.6756C18.0236 13.7283 18.0238 13.7809 18.0241 13.8335C18.028 14.4779 17.8604 15.023 17.4108 15.4944C16.877 16.0243 16.0273 16.2759 15.348 16.5724C14.9619 16.7411 14.5771 16.9122 14.1933 17.0859C13.7097 17.3047 13.2249 17.5202 12.7379 17.7313C12.6972 17.749 12.6972 17.749 12.6557 17.767C12.5797 17.8001 12.5035 17.833 12.4273 17.8658C12.3937 17.8804 12.3937 17.8804 12.3595 17.8953C12.2567 17.9394 12.1612 17.9728 12.0522 18.0001C12.0522 15.7094 12.0522 13.4188 12.0522 11.0588C12.2534 10.9918 12.4545 10.9247 12.6617 10.8557C12.7788 10.8076 12.8926 10.7596 13.0068 10.7061C13.0495 10.6866 13.0495 10.6866 13.0931 10.6667C13.1815 10.6263 13.2698 10.5855 13.358 10.5446C13.4473 10.5034 13.5366 10.4623 13.6261 10.4214C13.681 10.3962 13.7359 10.3709 13.7907 10.3454C13.964 10.2658 14.1388 10.2013 14.3208 10.1446C14.3212 10.1852 14.3215 10.2259 14.3218 10.2677C14.3232 10.4195 14.3254 10.5712 14.3279 10.7229C14.3288 10.7883 14.3295 10.8538 14.33 10.9193C14.3308 11.0138 14.3323 11.1082 14.3341 11.2027C14.3341 11.2317 14.3342 11.2607 14.3342 11.2905C14.3389 11.488 14.3805 11.6378 14.4901 11.8037C14.6227 11.9283 14.7501 11.9484 14.9303 11.9471C15.0261 11.9359 15.0896 11.8924 15.1673 11.8376C15.1897 11.8376 15.212 11.8376 15.2351 11.8376C15.3108 11.6911 15.341 11.5769 15.3436 11.4119C15.3443 11.3732 15.3449 11.3346 15.3456 11.2948C15.3462 11.2531 15.3468 11.2114 15.3473 11.1685C15.3484 11.1044 15.3484 11.1044 15.3495 11.0391C15.3513 10.9257 15.353 10.8123 15.3547 10.6989C15.3564 10.5832 15.3582 10.4674 15.3601 10.3517C15.3637 10.1246 15.3672 9.89761 15.3705 9.67057C15.7326 9.50005 16.0967 9.33412 16.4619 9.17016C16.5776 9.1182 16.6933 9.06614 16.809 9.0141C16.8659 8.98854 16.9228 8.96304 16.9798 8.9376C17.1225 8.87386 17.2648 8.80939 17.4065 8.74338C17.4343 8.7306 17.4621 8.71781 17.4907 8.70463C17.5434 8.68038 17.596 8.65583 17.6484 8.63093C17.7744 8.57341 17.8455 8.54358 17.9777 8.58706Z" fill="#2666EE"/>
<path d="M13.0506 5.47193C13.1178 5.50213 13.1851 5.5323 13.2523 5.56245C13.392 5.62505 13.5316 5.68777 13.6712 5.75057C13.9675 5.8838 14.2646 6.01541 14.5617 6.14713C14.7193 6.21708 14.8768 6.2872 15.0344 6.35731C15.2494 6.45301 15.4645 6.54852 15.6798 6.64377C15.7972 6.69575 15.9145 6.74787 16.0318 6.80002C16.086 6.82411 16.1403 6.84814 16.1946 6.87211C17.1648 7.30021 17.1648 7.30021 17.4015 7.57124C17.4015 7.59358 17.4015 7.61593 17.4015 7.63895C17.3626 7.65614 17.3236 7.67332 17.2834 7.69103C17.134 7.75693 16.9846 7.82289 16.8352 7.88885C16.7351 7.93301 16.635 7.97713 16.5349 8.02124C16.235 8.15352 15.9353 8.28618 15.6374 8.42302C15.5922 8.44367 15.5471 8.46431 15.5019 8.48496C15.42 8.52242 15.3384 8.56035 15.2568 8.59856C15.2206 8.61513 15.1844 8.63171 15.1471 8.64879C15.1163 8.66314 15.0855 8.67749 15.0537 8.69227C14.906 8.74177 14.8017 8.73814 14.6561 8.68283C14.6192 8.66435 14.5823 8.64587 14.5443 8.62684C14.5239 8.61677 14.5035 8.6067 14.4825 8.59633C14.4385 8.57461 14.3947 8.5527 14.3509 8.53063C14.2569 8.4833 14.1625 8.43686 14.0682 8.39039C14.0196 8.36646 13.971 8.3425 13.9225 8.31849C13.6992 8.20818 13.4737 8.10282 13.2474 7.99871C12.886 7.83196 12.5257 7.66309 12.166 7.49293C12.114 7.46836 12.062 7.44379 12.0101 7.41922C11.9319 7.38226 11.8537 7.34529 11.7756 7.30832C11.5052 7.18047 11.2346 7.05309 10.9639 6.92578C10.9169 6.90365 10.8699 6.88152 10.8228 6.85938C10.6001 6.75457 10.3773 6.64983 10.1545 6.54519C10.049 6.49565 9.94354 6.44609 9.83808 6.39653C9.78801 6.373 9.73793 6.34949 9.68784 6.32599C9.4474 6.21317 9.20719 6.10032 8.97046 5.97983C8.97046 5.95748 8.97046 5.93514 8.97046 5.91211C9.15947 5.829 9.3485 5.74593 9.53754 5.66288C9.60164 5.63471 9.66573 5.60654 9.72982 5.57836C10.3431 5.30872 10.3431 5.30872 10.6321 5.184C10.6679 5.16852 10.7037 5.15304 10.7406 5.1371C11.5512 4.80601 12.3099 5.13681 13.0506 5.47193Z" fill="#2666EE"/>
<path d="M7.9691 6.63998C8.00488 6.65745 8.04067 6.67492 8.07753 6.69291C8.11608 6.71194 8.15463 6.73096 8.19435 6.75056C8.27771 6.79128 8.36114 6.83183 8.44459 6.87237C8.46594 6.88276 8.48729 6.89315 8.50928 6.90385C8.72192 7.00709 8.93623 7.10657 9.15088 7.20555C9.5308 7.381 9.90927 7.55936 10.2873 7.73884C10.6733 7.92206 11.0596 8.10453 11.447 8.28482C11.8042 8.45115 12.1611 8.61831 12.5175 8.7864C12.5704 8.81134 12.6233 8.83627 12.6762 8.86117C12.978 9.00329 13.2784 9.14749 13.5759 9.2985C13.445 9.41164 13.2911 9.47215 13.1343 9.54094C13.0894 9.56077 13.0894 9.56077 13.0437 9.58101C12.9805 9.6089 12.9172 9.6367 12.8539 9.66441C12.7577 9.70658 12.6618 9.74923 12.5659 9.79191C12.5042 9.81903 12.4426 9.84612 12.3809 9.87319C12.3525 9.88585 12.3242 9.89851 12.2949 9.91156C12.0398 10.0224 11.7944 10.0869 11.5147 10.0879C11.4778 10.0884 11.4409 10.089 11.4028 10.0896C11.0645 10.0574 10.7623 9.92391 10.4545 9.78735C10.4106 9.7681 10.3668 9.74887 10.3229 9.72965C9.8668 9.52931 9.41293 9.32391 8.95889 9.11897C8.49339 8.90886 8.02675 8.70138 7.55987 8.49435C7.34081 8.39718 7.12186 8.29975 6.90292 8.20229C6.79791 8.15556 6.6929 8.10883 6.58788 8.0621C6.51937 8.03161 6.45087 8.00111 6.38236 7.9706C6.28665 7.92797 6.19092 7.88538 6.09518 7.8428C6.0666 7.83005 6.03801 7.81731 6.00857 7.80418C5.87954 7.74683 5.75059 7.69043 5.6189 7.63937C5.77167 7.26848 6.32813 7.09408 6.66699 6.94112C6.77776 6.89101 6.88807 6.83995 6.99841 6.78891C7.07466 6.7542 7.15093 6.71954 7.22723 6.68495C7.2634 6.66822 7.29957 6.65149 7.33683 6.63425C7.37085 6.61908 7.40486 6.6039 7.43991 6.58827C7.46996 6.57464 7.50001 6.56102 7.53098 6.54698C7.69614 6.49881 7.82086 6.56694 7.9691 6.63998Z" fill="#2666EE"/>
</g>
<defs>
<clipPath id="clip0_4_28">
<rect width="24" height="24" rx="5" fill="white"/>
</clipPath>
</defs>
</svg>
