<svg width="24" height="24" viewBox="0 0 24 24" fill="none" xmlns="http://www.w3.org/2000/svg">
<rect width="24" height="24" rx="5" fill="white"/>
<path d="M7.56736 5.00389C7.59879 5.00375 7.63021 5.0036 7.66259 5.00345C7.7497 5.00312 7.83681 5.00317 7.92392 5.00337C8.01791 5.0035 8.1119 5.00316 8.20589 5.00288C8.38998 5.00241 8.57407 5.00239 8.75817 5.00253C8.90779 5.00264 9.05741 5.0026 9.20703 5.00245C9.23897 5.00242 9.23897 5.00242 9.27155 5.00239C9.3148 5.00235 9.35805 5.00231 9.4013 5.00227C9.80695 5.00189 10.2126 5.00204 10.6182 5.00235C10.9894 5.00262 11.3605 5.00227 11.7317 5.00162C12.1127 5.00095 12.4938 5.00069 12.8749 5.00087C13.0888 5.00097 13.3027 5.00091 13.5167 5.00043C13.6988 5.00003 13.8809 5.00001 14.0631 5.00048C14.156 5.00072 14.2489 5.00077 14.3418 5.00036C14.4426 5 14.5433 5.00031 14.644 5.00079C14.6734 5.00053 14.7027 5.00027 14.733 5C14.8927 5.00158 14.9959 5.0105 15.1186 5.12362C15.1998 5.2337 15.2108 5.31296 15.2109 5.44855C15.211 5.46727 15.2111 5.48599 15.2113 5.50528C15.2116 5.56815 15.2113 5.63101 15.2111 5.69387C15.2112 5.73935 15.2113 5.78482 15.2115 5.83029C15.2119 5.95536 15.2118 6.08043 15.2116 6.20549C15.2115 6.34033 15.2118 6.47517 15.2121 6.61001C15.2126 6.87421 15.2126 7.13841 15.2124 7.40261C15.2123 7.6173 15.2124 7.83199 15.2125 8.04668C15.2125 8.07721 15.2126 8.10774 15.2126 8.1392C15.2126 8.20121 15.2127 8.26323 15.2127 8.32525C15.2131 8.90712 15.2129 9.48899 15.2126 10.0709C15.2123 10.6035 15.2127 11.136 15.2133 11.6686C15.214 12.2152 15.2143 12.7618 15.2141 13.3084C15.214 13.6154 15.2141 13.9223 15.2145 14.2293C15.2149 14.4906 15.215 14.752 15.2145 15.0133C15.2142 15.1467 15.2142 15.28 15.2146 15.4134C15.215 15.5355 15.2149 15.6575 15.2143 15.7795C15.2142 15.8237 15.2143 15.8679 15.2146 15.9121C15.2149 15.9721 15.2146 16.0321 15.2142 16.0921C15.2142 16.1255 15.2141 16.1588 15.2141 16.1932C15.1944 16.325 15.1333 16.4099 15.0355 16.4983C14.908 16.5479 14.7831 16.541 14.6475 16.5402C14.616 16.5404 14.5846 16.5405 14.5522 16.5407C14.4651 16.541 14.378 16.541 14.2909 16.5408C14.1969 16.5406 14.1029 16.541 14.0089 16.5412C13.8249 16.5417 13.6408 16.5417 13.4567 16.5416C13.307 16.5415 13.1574 16.5415 13.0078 16.5417C12.9865 16.5417 12.9652 16.5417 12.9433 16.5417C12.9 16.5418 12.8568 16.5418 12.8135 16.5419C12.4079 16.5422 12.0022 16.5421 11.5966 16.5418C11.2254 16.5415 10.8543 16.5419 10.4832 16.5425C10.1021 16.5432 9.72105 16.5434 9.33999 16.5433C9.12604 16.5432 8.91209 16.5432 8.69815 16.5437C8.51602 16.5441 8.3339 16.5441 8.15177 16.5436C8.05885 16.5434 7.96593 16.5434 7.87301 16.5438C7.77228 16.5441 7.67156 16.5438 7.57083 16.5433C7.54146 16.5436 7.51209 16.5439 7.48183 16.5441C7.32218 16.5425 7.21896 16.5336 7.0962 16.4205C7.015 16.3104 7.00408 16.2312 7.00397 16.0956C7.00384 16.0769 7.00371 16.0581 7.00358 16.0388C7.00325 15.976 7.00351 15.9131 7.00376 15.8503C7.00365 15.8048 7.0035 15.7593 7.00332 15.7138C7.00292 15.5888 7.00304 15.4637 7.00324 15.3386C7.00337 15.2038 7.00303 15.069 7.00275 14.9341C7.00228 14.6699 7.00226 14.4057 7.0024 14.1415C7.00251 13.9268 7.00247 13.7121 7.00233 13.4974C7.00231 13.4669 7.00229 13.4364 7.00226 13.4049C7.00222 13.3429 7.00218 13.2809 7.00214 13.2189C7.00176 12.637 7.00191 12.0551 7.00223 11.4733C7.0025 10.9407 7.00214 10.4081 7.00149 9.87548C7.00083 9.3289 7.00056 8.78232 7.00074 8.23573C7.00084 7.92876 7.00078 7.62178 7.0003 7.3148C6.9999 7.05348 6.99988 6.79216 7.00036 6.53084C7.00059 6.39747 7.00065 6.2641 7.00023 6.13072C6.99985 6.00868 6.99998 5.88664 7.00051 5.76459C7.00061 5.72039 7.00053 5.67619 7.00025 5.632C6.99989 5.57198 7.0002 5.512 7.00068 5.45199C7.00069 5.40196 7.00069 5.40196 7.00069 5.35092C7.02049 5.21917 7.08158 5.13425 7.17932 5.04583C7.30683 4.99623 7.43175 5.00314 7.56736 5.00389ZM8.32413 7.25202C8.24989 7.37393 8.25179 7.49523 8.26955 7.63404C8.32941 7.75596 8.39199 7.82256 8.51514 7.87962C8.63886 7.91268 8.76236 7.91095 8.88947 7.91087C8.92497 7.91101 8.92497 7.91101 8.96119 7.91115C9.03926 7.91141 9.11733 7.91146 9.1954 7.91149C9.24981 7.91158 9.30421 7.91167 9.35862 7.91177C9.47262 7.91193 9.58662 7.91198 9.70062 7.91197C9.84648 7.91196 9.99234 7.91234 10.1382 7.91281C10.2506 7.91311 10.3629 7.91317 10.4753 7.91315C10.5291 7.91318 10.5828 7.9133 10.6366 7.91351C10.7119 7.91378 10.7872 7.9137 10.8625 7.91354C10.8956 7.91377 10.8956 7.91377 10.9293 7.914C11.0976 7.91307 11.2434 7.90001 11.3752 7.78582C11.4815 7.6613 11.5037 7.59125 11.4995 7.43141C11.4829 7.31541 11.4399 7.2471 11.353 7.17016C11.1924 7.09237 11.033 7.07645 10.8571 7.07814C10.8334 7.07804 10.8098 7.07794 10.7854 7.07783C10.7079 7.07762 10.6304 7.07798 10.5529 7.07838C10.4987 7.0784 10.4444 7.07838 10.3902 7.07834C10.2768 7.07834 10.1635 7.07863 10.0501 7.07912C9.90514 7.07974 9.76014 7.07976 9.61514 7.07957C9.50325 7.07948 9.39135 7.07966 9.27945 7.07993C9.22599 7.08003 9.17253 7.08007 9.11908 7.08002C9.04431 7.08001 8.96956 7.08036 8.8948 7.0808C8.87291 7.08073 8.85102 7.08067 8.82846 7.0806C8.63295 7.08243 8.46923 7.11106 8.32413 7.25202ZM8.32413 8.88925C8.24989 9.01116 8.25179 9.13246 8.26955 9.27127C8.32941 9.39319 8.39199 9.45979 8.51514 9.51685C8.62851 9.54603 8.73638 9.54764 8.85316 9.54779C8.8732 9.54785 8.89324 9.54791 8.91389 9.54798C8.98089 9.54815 9.0479 9.54813 9.11491 9.5481C9.16301 9.54819 9.21111 9.54828 9.25921 9.54838C9.38978 9.54862 9.52036 9.54869 9.65093 9.5487C9.73253 9.54872 9.81412 9.54878 9.89572 9.54885C10.1804 9.54911 10.4652 9.54922 10.7499 9.5492C11.0152 9.54918 11.2805 9.54947 11.5458 9.5499C11.7737 9.55026 12.0016 9.5504 12.2294 9.55039C12.3655 9.55038 12.5016 9.55046 12.6376 9.55074C12.7656 9.55101 12.8936 9.55101 13.0215 9.55081C13.0685 9.55078 13.1154 9.55085 13.1623 9.55101C13.2264 9.55122 13.2906 9.5511 13.3547 9.55089C13.3906 9.5509 13.4265 9.55092 13.4634 9.55093C13.6099 9.54097 13.719 9.52016 13.831 9.42305C13.9373 9.29853 13.9595 9.22848 13.9553 9.06864C13.9387 8.95209 13.8952 8.88533 13.8088 8.80739C13.5769 8.69995 13.3376 8.71416 13.0875 8.71537C13.0394 8.7153 12.9913 8.7152 12.9432 8.71506C12.8131 8.71481 12.683 8.71506 12.5528 8.71543C12.4164 8.71574 12.28 8.71562 12.1436 8.71557C11.9147 8.71555 11.6857 8.71585 11.4567 8.71635C11.1922 8.71693 10.9277 8.71703 10.6632 8.71686C10.4084 8.7167 10.1536 8.71685 9.89877 8.71716C9.79048 8.71729 9.68218 8.71731 9.57389 8.71725C9.44636 8.7172 9.31883 8.71742 9.1913 8.71786C9.14456 8.71797 9.09782 8.71799 9.05108 8.71792C8.98717 8.71783 8.92327 8.71808 8.85936 8.71841C8.82363 8.71847 8.78791 8.71852 8.7511 8.71858C8.57884 8.7306 8.44918 8.76777 8.32413 8.88925ZM8.32413 10.5265C8.24989 10.6484 8.25179 10.7697 8.26955 10.9085C8.32941 11.0304 8.39199 11.097 8.51514 11.1541C8.62851 11.1833 8.73638 11.1849 8.85316 11.185C8.8732 11.1851 8.89324 11.1851 8.91389 11.1852C8.98089 11.1854 9.0479 11.1854 9.11491 11.1853C9.16301 11.1854 9.21111 11.1855 9.25921 11.1856C9.38978 11.1859 9.52036 11.1859 9.65093 11.1859C9.73253 11.186 9.81412 11.186 9.89572 11.1861C10.1804 11.1863 10.4652 11.1864 10.7499 11.1864C11.0152 11.1864 11.2805 11.1867 11.5458 11.1871C11.7737 11.1875 12.0016 11.1876 12.2294 11.1876C12.3655 11.1876 12.5016 11.1877 12.6376 11.188C12.7656 11.1882 12.8936 11.1882 13.0215 11.188C13.0685 11.188 13.1154 11.1881 13.1623 11.1882C13.2264 11.1885 13.2906 11.1883 13.3547 11.1881C13.3906 11.1881 13.4265 11.1881 13.4634 11.1882C13.6099 11.1782 13.719 11.1574 13.831 11.0603C13.9373 10.9358 13.9595 10.8657 13.9553 10.7059C13.9387 10.5893 13.8952 10.5226 13.8088 10.4446C13.5769 10.3372 13.3376 10.3514 13.0875 10.3526C13.0394 10.3525 12.9913 10.3524 12.9432 10.3523C12.8131 10.352 12.683 10.3523 12.5528 10.3527C12.4164 10.353 12.28 10.3529 12.1436 10.3528C11.9147 10.3528 11.6857 10.3531 11.4567 10.3536C11.1922 10.3542 10.9277 10.3543 10.6632 10.3541C10.4084 10.3539 10.1536 10.3541 9.89877 10.3544C9.79048 10.3545 9.68218 10.3545 9.57389 10.3545C9.44636 10.3544 9.31883 10.3547 9.1913 10.3551C9.14456 10.3552 9.09782 10.3552 9.05108 10.3551C8.98717 10.3551 8.92327 10.3553 8.85936 10.3556C8.82363 10.3557 8.78791 10.3558 8.7511 10.3558C8.57884 10.3678 8.44918 10.405 8.32413 10.5265ZM8.32413 12.1637C8.24989 12.2856 8.25179 12.4069 8.26955 12.5457C8.32941 12.6677 8.39199 12.7342 8.51514 12.7913C8.62851 12.8205 8.73638 12.8221 8.85316 12.8223C8.8732 12.8223 8.89324 12.8224 8.91389 12.8224C8.98089 12.8226 9.0479 12.8226 9.11491 12.8226C9.16301 12.8226 9.21111 12.8227 9.25921 12.8228C9.38978 12.8231 9.52036 12.8231 9.65093 12.8232C9.73253 12.8232 9.81412 12.8232 9.89572 12.8233C10.1804 12.8236 10.4652 12.8237 10.7499 12.8237C11.0152 12.8236 11.2805 12.8239 11.5458 12.8244C11.7737 12.8247 12.0016 12.8249 12.2294 12.8248C12.3655 12.8248 12.5016 12.8249 12.6376 12.8252C12.7656 12.8255 12.8936 12.8255 13.0215 12.8253C13.0685 12.8252 13.1154 12.8253 13.1623 12.8255C13.2264 12.8257 13.2906 12.8256 13.3547 12.8253C13.3906 12.8254 13.4265 12.8254 13.4634 12.8254C13.6099 12.8154 13.719 12.7946 13.831 12.6975C13.9373 12.573 13.9595 12.5029 13.9553 12.3431C13.9387 12.2266 13.8952 12.1598 13.8088 12.0818C13.5769 11.9744 13.3376 11.9886 13.0875 11.9898C13.0394 11.9898 12.9913 11.9897 12.9432 11.9895C12.8131 11.9893 12.683 11.9895 12.5528 11.9899C12.4164 11.9902 12.28 11.9901 12.1436 11.99C11.9147 11.99 11.6857 11.9903 11.4567 11.9908C11.1922 11.9914 10.9277 11.9915 10.6632 11.9913C10.4084 11.9912 10.1536 11.9913 9.89877 11.9916C9.79048 11.9917 9.68218 11.9918 9.57389 11.9917C9.44636 11.9917 9.31883 11.9919 9.1913 11.9923C9.14456 11.9924 9.09782 11.9925 9.05108 11.9924C8.98717 11.9923 8.92327 11.9925 8.85936 11.9929C8.82363 11.9929 8.78791 11.993 8.7511 11.993C8.57884 12.0051 8.44918 12.0422 8.32413 12.1637ZM11.5986 13.8009C11.5243 13.9229 11.5263 14.0441 11.544 14.183C11.6039 14.3049 11.6665 14.3715 11.7896 14.4285C11.8906 14.4535 11.985 14.4594 12.0888 14.4598C12.137 14.4601 12.137 14.4601 12.1862 14.4603C12.2207 14.4604 12.2552 14.4604 12.2908 14.4604C12.3443 14.4606 12.3443 14.4606 12.399 14.4607C12.4744 14.4609 12.5499 14.4609 12.6253 14.4609C12.7216 14.4609 12.8179 14.4613 12.9142 14.4617C13.0066 14.4621 13.0989 14.4621 13.1913 14.4621C13.2429 14.4624 13.2429 14.4624 13.2955 14.4627C13.5846 14.4672 13.5846 14.4672 13.831 14.3347C13.9373 14.2102 13.9595 14.1402 13.9553 13.9803C13.9387 13.864 13.8955 13.7966 13.8088 13.7191C13.6146 13.6165 13.4017 13.6257 13.1879 13.6273C13.1523 13.6273 13.1168 13.6273 13.0802 13.6273C13.0053 13.6273 12.9305 13.6275 12.8557 13.628C12.7603 13.6287 12.6649 13.6287 12.5694 13.6285C12.4777 13.6284 12.3859 13.6287 12.2942 13.629C12.2601 13.629 12.2261 13.629 12.191 13.6289C11.8665 13.6315 11.8665 13.6315 11.5986 13.8009Z" fill="#2666EE"/>
<path d="M16.0191 7.49763C16.2143 7.49486 16.4095 7.49295 16.6047 7.49163C16.671 7.49109 16.7374 7.49034 16.8038 7.4894C16.8993 7.48807 16.9948 7.48745 17.0903 7.48697C17.1199 7.48641 17.1495 7.48584 17.18 7.48526C17.3427 7.48522 17.4497 7.49048 17.5745 7.60678C17.6555 7.7168 17.6666 7.79582 17.6667 7.93129C17.6668 7.94996 17.6669 7.96864 17.6671 7.98788C17.6674 8.05059 17.6671 8.11329 17.6669 8.176C17.667 8.22136 17.6672 8.26672 17.6673 8.31208C17.6677 8.43684 17.6676 8.56159 17.6674 8.68635C17.6673 8.82085 17.6676 8.95535 17.6679 9.08986C17.6684 9.3534 17.6684 9.61694 17.6683 9.88049C17.6681 10.0946 17.6682 10.3088 17.6683 10.523C17.6683 10.5534 17.6684 10.5839 17.6684 10.6152C17.6684 10.6771 17.6685 10.739 17.6685 10.8008C17.6689 11.3813 17.6687 11.9617 17.6684 12.5421C17.6682 13.0734 17.6685 13.6047 17.6692 14.1359C17.6698 14.6812 17.6701 15.2264 17.6699 15.7716C17.6698 16.0778 17.6699 16.384 17.6704 16.6903C17.6708 16.9509 17.6708 17.2116 17.6703 17.4723C17.6701 17.6053 17.67 17.7383 17.6704 17.8714C17.6708 17.9931 17.6707 18.1149 17.6701 18.2366C17.67 18.2807 17.6701 18.3248 17.6704 18.3689C17.6708 18.4287 17.6705 18.4886 17.67 18.5484C17.67 18.5817 17.67 18.615 17.67 18.6493C17.6501 18.7809 17.589 18.8658 17.4913 18.9542C17.3638 19.0038 17.2389 18.9969 17.1033 18.9961C17.0719 18.9963 17.0404 18.9964 17.0081 18.9966C16.921 18.9969 16.8338 18.9968 16.7467 18.9966C16.6527 18.9965 16.5588 18.9968 16.4648 18.9971C16.2807 18.9976 16.0966 18.9976 15.9125 18.9975C15.7629 18.9974 15.6132 18.9974 15.4636 18.9975C15.4423 18.9976 15.421 18.9976 15.3991 18.9976C15.3559 18.9976 15.3126 18.9977 15.2694 18.9977C14.8637 18.9981 14.4581 18.998 14.0524 18.9976C13.6813 18.9974 13.3101 18.9977 12.939 18.9984C12.5579 18.999 12.1769 18.9993 11.7958 18.9991C11.5819 18.999 11.3679 18.9991 11.154 18.9996C10.9718 19 10.7897 19 10.6076 18.9995C10.5147 18.9993 10.4218 18.9992 10.3288 18.9996C10.2281 19 10.1274 18.9997 10.0266 18.9992C9.99728 18.9995 9.96791 18.9997 9.93765 19C9.77289 18.9984 9.6777 18.9859 9.55202 18.8764C9.43497 18.7489 9.45985 18.585 9.46217 18.4222C9.46228 18.3915 9.4624 18.3608 9.46252 18.3292C9.46298 18.2313 9.464 18.1335 9.46505 18.0356C9.46546 17.9692 9.46583 17.9027 9.46616 17.8363C9.46707 17.6736 9.46844 17.511 9.47016 17.3483C9.49726 17.3482 9.52435 17.3481 9.55227 17.348C10.2125 17.3458 10.8728 17.3433 11.5331 17.3405C11.8524 17.3391 12.1717 17.3378 12.491 17.3368C12.7694 17.3359 13.0478 17.3348 13.3263 17.3335C13.4736 17.3328 13.6209 17.3322 13.7682 17.3318C13.9071 17.3315 14.046 17.3309 14.1849 17.3301C14.2356 17.3298 14.2864 17.3297 14.3372 17.3296C14.8363 17.329 15.2833 17.3076 15.6652 16.9444C15.9728 16.6008 15.9958 16.2036 15.9961 15.7635C15.9962 15.7281 15.9964 15.6926 15.9965 15.6562C15.9969 15.5584 15.9971 15.4606 15.9973 15.3629C15.9975 15.2572 15.9979 15.1516 15.9982 15.046C15.9988 14.8632 15.9993 14.6803 15.9997 14.4975C16.0004 14.2332 16.0011 13.9688 16.0019 13.7045C16.0032 13.2756 16.0044 12.8467 16.0055 12.4178C16.0066 12.0013 16.0077 11.5847 16.0089 11.1682C16.009 11.1296 16.009 11.1296 16.0091 11.0903C16.0095 10.9614 16.0099 10.8325 16.0103 10.7036C16.0134 9.63497 16.0163 8.5663 16.0191 7.49763Z" fill="#2666EE"/>
</svg>
