<svg width="24" height="24" viewBox="0 0 24 24" fill="none" xmlns="http://www.w3.org/2000/svg">
<g clip-path="url(#clip0_218_15640)">
<rect width="24" height="24" rx="5" fill="white"/>
</g>
<path d="M21.5067 10.5308C21.4882 10.4302 21.4498 10.335 21.3942 10.2518C21.3385 10.1686 21.2668 10.0992 21.1841 10.0485L21.0855 9.98806C19.6087 9.08185 18.7064 7.47566 18.7006 5.74299L18.6999 5.52776C18.6996 5.42436 18.6785 5.32226 18.6379 5.22851C18.5974 5.13476 18.5385 5.0516 18.4652 4.98478C17.5677 4.16735 16.5341 3.54092 15.4195 3.13879C15.3317 3.1068 15.2387 3.09497 15.1464 3.10404C15.0541 3.11312 14.9646 3.1429 14.8837 3.19149C13.3483 4.11562 11.4248 4.11348 9.88966 3.18881C9.80866 3.13995 9.71905 3.10994 9.62661 3.10071C9.53418 3.09148 9.44097 3.10324 9.35301 3.13522C8.23906 3.53993 7.20664 4.16878 6.31065 4.98835C6.23747 5.05508 6.17859 5.13809 6.13807 5.23168C6.09754 5.32526 6.07634 5.42719 6.07592 5.53044L6.07501 5.75106C6.06784 7.48226 5.16565 9.08656 3.69009 9.992L3.58928 10.0539C3.5065 10.1046 3.43484 10.1739 3.37917 10.2571C3.3235 10.3404 3.28511 10.4355 3.26663 10.5361C3.04019 11.7613 3.04019 13.0225 3.26663 14.2477C3.28511 14.3483 3.3235 14.4435 3.37917 14.5267C3.43484 14.6099 3.5065 14.6792 3.58928 14.73L3.68778 14.7904C5.1646 15.6966 6.06698 17.3028 6.07272 19.0355L6.07343 19.2516C6.07373 19.355 6.09488 19.4571 6.1354 19.5509C6.17593 19.6446 6.23487 19.7278 6.30816 19.7946C7.20567 20.612 8.23921 21.2385 9.35384 21.6406C9.44162 21.6726 9.53465 21.6844 9.62693 21.6753C9.71922 21.6663 9.80871 21.6365 9.88966 21.5879C11.4259 20.6614 13.3494 20.6605 14.8862 21.5861C14.985 21.6454 15.0965 21.6762 15.2096 21.6754C15.2821 21.6754 15.3541 21.6627 15.4228 21.6379C16.5365 21.2334 17.5688 20.6052 18.4652 19.7866C18.5384 19.7198 18.5972 19.6368 18.6378 19.5432C18.6783 19.4497 18.6995 19.3477 18.6999 19.2445L18.7008 19.0239C18.708 17.2927 19.6102 15.6884 21.0857 14.7829L21.1865 14.7211C21.2693 14.6703 21.341 14.601 21.3967 14.5178C21.4523 14.4346 21.4907 14.3394 21.5092 14.2388C21.7344 13.0146 21.7335 11.7546 21.5067 10.5308ZM12.3879 15.9597C11.7317 15.9597 11.0903 15.7502 10.5447 15.3577C9.99908 14.9652 9.57383 14.4073 9.32272 13.7545C9.07161 13.1018 9.00591 12.3835 9.13392 11.6905C9.26194 10.9976 9.57792 10.3611 10.0419 9.86147C10.5059 9.36187 11.0971 9.02164 11.7407 8.88381C12.3842 8.74597 13.0513 8.81671 13.6576 9.08709C14.2638 9.35747 14.7819 9.81534 15.1465 10.4028C15.5111 10.9903 15.7056 11.6809 15.7056 12.3875C15.7056 13.3349 15.3561 14.2435 14.7339 14.9134C14.1117 15.5834 13.2678 15.9597 12.3879 15.9597Z" fill="#2666EE"/>
<defs>
<clipPath id="clip0_218_15640">
<rect width="24" height="24" rx="5" fill="white"/>
</clipPath>
</defs>
</svg>
