<svg width="31" height="31" viewBox="0 0 31 31" fill="none" xmlns="http://www.w3.org/2000/svg">
<g clip-path="url(#clip0_155_6321)">
<rect width="31" height="31" rx="5" fill="white"/>
<path d="M7.77015 8.73723C8.06004 9.0062 8.24946 9.34005 8.28211 9.73756C8.28289 9.78059 8.28367 9.82363 8.28447 9.86796C8.28577 9.91112 8.28707 9.95429 8.28841 9.99876C8.27189 10.1166 8.27189 10.1166 8.20482 10.2063C8.07275 10.3028 7.97731 10.2903 7.81873 10.2676C7.70544 10.1984 7.70544 10.1984 7.61732 10.0662C7.60029 9.98591 7.58586 9.90503 7.57327 9.82391C7.52653 9.55075 7.43171 9.38372 7.21452 9.21025C6.98547 9.07349 6.7693 9.03209 6.50705 9.08103C6.25247 9.15501 6.09948 9.25689 5.93372 9.46515C5.80196 9.73038 5.7985 10.0448 5.89005 10.3241C6.00207 10.5429 6.14864 10.6528 6.35855 10.7711C6.49768 10.8093 6.63733 10.8282 6.78024 10.8467C7.24303 10.9175 7.64582 11.0388 7.94795 11.4261C8.25276 11.8594 8.32072 12.2599 8.27189 12.7852C8.17648 13.2097 7.92231 13.5546 7.57327 13.8113C7.18172 14.0323 6.70641 14.0914 6.27339 13.9812C5.83134 13.8368 5.49747 13.5964 5.2823 13.1754C5.18607 12.9662 5.14127 12.7898 5.13754 12.5586C5.13624 12.5103 5.13495 12.462 5.13361 12.4123C5.15013 12.2817 5.15013 12.2817 5.217 12.1898C5.34635 12.0988 5.44962 12.1146 5.60329 12.1306C5.75434 12.2313 5.75434 12.2313 5.79151 12.3609C5.80105 12.4127 5.8106 12.4644 5.82043 12.5177C5.88799 12.8066 5.9662 13.0071 6.2075 13.188C6.4353 13.315 6.63886 13.3586 6.89668 13.3139C7.17914 13.233 7.34376 13.0924 7.51033 12.8481C7.61125 12.5566 7.61156 12.2982 7.48515 12.0142C7.38983 11.8199 7.25095 11.7306 7.06346 11.6271C6.92429 11.5891 6.78468 11.5701 6.64178 11.5516C6.33327 11.5039 6.06529 11.4569 5.80469 11.2746C5.75952 11.2455 5.75952 11.2455 5.71343 11.2158C5.40709 10.9907 5.19545 10.6465 5.13412 10.2701C5.08754 9.78143 5.13816 9.32848 5.44988 8.93509C6.07875 8.25674 7.03103 8.15417 7.77015 8.73723Z" fill="#78C3E3"/>
<path d="M4.76553 21.7735C4.83582 21.7731 4.83582 21.7731 4.90753 21.7727C5.06214 21.7721 5.2167 21.7729 5.3713 21.7738C5.47883 21.7738 5.58636 21.7737 5.69389 21.7736C5.91911 21.7735 6.14432 21.7742 6.36953 21.7753C6.65834 21.7767 6.94711 21.7766 7.23592 21.776C7.45789 21.7756 7.67987 21.776 7.90184 21.7766C8.00834 21.7769 8.11484 21.7769 8.22134 21.7767C8.37008 21.7765 8.51879 21.7774 8.66753 21.7785C8.73365 21.7781 8.73365 21.7781 8.8011 21.7778C8.97882 21.78 9.09797 21.7817 9.25658 21.8662C9.45768 22.0908 9.39116 22.4452 9.39131 22.7271C9.39193 22.7848 9.39255 22.8425 9.39318 22.9019C9.39328 22.9574 9.39338 23.0128 9.39348 23.07C9.39368 23.1207 9.39389 23.1714 9.3941 23.2237C9.38158 23.3629 9.35715 23.4446 9.28117 23.5611C9.1083 23.6475 8.90956 23.6198 8.71927 23.6204C8.67145 23.6207 8.62363 23.621 8.57436 23.6214C8.41568 23.6223 8.257 23.6229 8.09832 23.6234C8.01717 23.6237 8.01717 23.6237 7.93439 23.6241C7.64817 23.6251 7.36196 23.6258 7.07574 23.6263C6.77965 23.6269 6.48358 23.6286 6.1875 23.6306C5.96021 23.6319 5.73292 23.6323 5.50563 23.6325C5.39646 23.6328 5.28729 23.6333 5.17812 23.6343C5.0255 23.6355 4.87293 23.6355 4.72031 23.6351C4.67505 23.6357 4.62979 23.6364 4.58316 23.6371C4.27802 23.6345 4.27802 23.6345 4.11742 23.5186C3.961 23.2852 4.01404 22.9761 4.01635 22.7051C4.01515 22.6405 4.01395 22.5758 4.01271 22.5092C4.01281 22.4472 4.01291 22.3851 4.01301 22.3212C4.01297 22.2645 4.01294 22.2077 4.0129 22.1493C4.04468 22.0002 4.04468 22.0002 4.14322 21.8918C4.35451 21.7636 4.52285 21.7709 4.76553 21.7735ZM4.69924 22.4534C4.69924 22.6195 4.69924 22.7857 4.69924 22.9569C6.0285 22.9569 7.35777 22.9569 8.72731 22.9569C8.72731 22.7907 8.72731 22.6246 8.72731 22.4534C7.39805 22.4534 6.06878 22.4534 4.69924 22.4534Z" fill="#78C2E2"/>
<path d="M4.69696 20.3752C4.76033 20.3755 4.76033 20.3755 4.82498 20.3758C4.86944 20.3756 4.9139 20.3754 4.95971 20.3752C5.1072 20.3748 5.25467 20.3751 5.40216 20.3754C5.50438 20.3754 5.6066 20.3753 5.70882 20.3751C5.9233 20.375 6.13777 20.3752 6.35225 20.3757C6.62745 20.3762 6.90265 20.3759 7.17785 20.3753C7.38903 20.375 7.6002 20.3751 7.81138 20.3753C7.91286 20.3754 8.01434 20.3753 8.11582 20.3751C8.25759 20.3748 8.39934 20.3752 8.54111 20.3758C8.58325 20.3756 8.6254 20.3754 8.66882 20.3752C8.86487 20.3766 8.96143 20.3782 9.12832 20.4895C9.17867 20.6311 9.17867 20.6311 9.17867 20.7916C9.08006 20.9256 8.99959 21.0255 8.83268 21.0665C8.71781 21.0758 8.6054 21.0768 8.49017 21.0751C8.42504 21.0757 8.42504 21.0757 8.35859 21.0762C8.21541 21.0771 8.07232 21.0761 7.92914 21.075C7.82951 21.0751 7.72989 21.0752 7.63026 21.0754C7.42163 21.0755 7.21302 21.0748 7.0044 21.0734C6.73692 21.0717 6.4695 21.072 6.20202 21.073C5.99637 21.0735 5.79073 21.073 5.58508 21.0723C5.48645 21.072 5.38782 21.072 5.28919 21.0724C5.15141 21.0726 5.01369 21.0716 4.87592 21.0702C4.83513 21.0706 4.79435 21.0709 4.75233 21.0712C4.5732 21.0682 4.46553 21.0575 4.3177 20.9524C4.24428 20.842 4.24428 20.842 4.25057 20.6594C4.32427 20.3752 4.42138 20.3772 4.69696 20.3752Z" fill="#78C3E3"/>
<path d="M4.92896 17.5409C4.99323 17.5402 4.99323 17.5402 5.05881 17.5396C5.20009 17.5384 5.34133 17.5388 5.48262 17.5392C5.581 17.539 5.67938 17.5386 5.77776 17.5383C5.9838 17.5378 6.18983 17.538 6.39587 17.5387C6.65985 17.5396 6.92377 17.5384 7.18774 17.5366C7.39084 17.5355 7.59393 17.5356 7.79704 17.536C7.89437 17.5361 7.99169 17.5357 8.08901 17.535C8.2251 17.5341 8.3611 17.5348 8.49719 17.536C8.55738 17.5351 8.55738 17.5351 8.6188 17.5342C8.82242 17.5377 8.9183 17.5599 9.08154 17.6856C9.18027 17.8195 9.18027 17.8195 9.17712 17.98C9.12992 18.1216 9.12992 18.1216 9.02921 18.2223C8.88289 18.2326 8.74135 18.2366 8.59495 18.2361C8.52752 18.2365 8.52752 18.2365 8.45873 18.2369C8.30961 18.2376 8.1605 18.2376 8.01138 18.2374C7.90803 18.2376 7.80468 18.2379 7.70133 18.2381C7.48448 18.2385 7.26764 18.2385 7.05079 18.2382C6.77254 18.2379 6.4943 18.2388 6.21604 18.2399C6.00254 18.2407 5.78903 18.2407 5.57552 18.2406C5.47291 18.2406 5.37031 18.2408 5.2677 18.2414C5.12436 18.242 4.98105 18.2416 4.83771 18.241C4.7951 18.2414 4.75248 18.2418 4.70858 18.2422C4.41899 18.2396 4.41899 18.2396 4.31089 18.1548C4.24588 18.0712 4.24588 18.0712 4.2207 17.9233C4.24588 17.7691 4.24588 17.7691 4.34637 17.6605C4.54145 17.5409 4.70694 17.5391 4.92896 17.5409Z" fill="#78C3E2"/>
<path d="M4.87607 14.7862C4.94204 14.786 4.94204 14.786 5.00934 14.7857C5.15492 14.7852 5.30049 14.7855 5.44606 14.7859C5.54708 14.7858 5.64811 14.7857 5.74913 14.7856C5.96093 14.7854 6.17273 14.7857 6.38454 14.7861C6.6563 14.7867 6.92805 14.7864 7.19981 14.7858C7.40843 14.7854 7.61706 14.7855 7.82569 14.7858C7.9259 14.7858 8.02612 14.7858 8.12634 14.7855C8.26629 14.7853 8.40623 14.7857 8.54618 14.7862C8.58778 14.786 8.62937 14.7858 8.67222 14.7856C8.86725 14.7871 8.96191 14.7892 9.12797 14.9C9.17518 15.0416 9.17518 15.0416 9.17832 15.2021C9.10505 15.336 9.10505 15.336 8.97692 15.4538C8.8224 15.4789 8.69577 15.4878 8.54127 15.4856C8.47541 15.4861 8.47541 15.4861 8.40822 15.4867C8.26314 15.4875 8.11813 15.4866 7.97305 15.4855C7.87222 15.4855 7.77139 15.4856 7.67056 15.4859C7.45926 15.486 7.24799 15.4853 7.03669 15.4839C6.76577 15.4822 6.4949 15.4825 6.22398 15.4834C6.01578 15.4839 5.80759 15.4835 5.59939 15.4827C5.49949 15.4825 5.3996 15.4825 5.29971 15.4828C5.16011 15.4831 5.02058 15.4821 4.88099 15.4807C4.83966 15.481 4.79833 15.4813 4.75574 15.4817C4.5755 15.4786 4.46605 15.4685 4.31721 15.3628C4.24393 15.2524 4.24393 15.2524 4.24708 15.0699C4.33926 14.7381 4.58354 14.7848 4.87607 14.7862Z" fill="#78C3E3"/>
<path d="M12.0601 5.50207C12.1417 5.50173 12.2233 5.50128 12.3049 5.50073C12.5253 5.49959 12.7456 5.50003 12.9659 5.50083C13.1973 5.50147 13.4286 5.50087 13.6599 5.50048C14.0483 5.50002 14.4367 5.50062 14.825 5.50182C15.2731 5.50319 15.7212 5.50275 16.1692 5.50136C16.555 5.50022 16.9407 5.50006 17.3264 5.50072C17.5563 5.50111 17.7862 5.50117 18.0162 5.50033C18.2324 5.4996 18.4486 5.50011 18.6649 5.50156C18.7439 5.50189 18.8229 5.5018 18.902 5.50124C19.4186 5.49793 19.8201 5.54911 20.2282 5.88848C20.2541 5.92021 20.2801 5.95195 20.3068 5.98465C20.3473 6.03207 20.3473 6.03207 20.3887 6.08044C20.472 6.21144 20.5115 6.34385 20.5586 6.49131C20.5924 6.49117 20.6263 6.49103 20.6611 6.49089C21.4857 6.48755 22.3103 6.48505 23.1348 6.48348C23.5336 6.48271 23.9324 6.48165 24.3311 6.47992C24.6788 6.47841 25.0265 6.47743 25.3742 6.4771C25.5582 6.4769 25.7422 6.47644 25.9261 6.47534C26.1319 6.47412 26.3376 6.47409 26.5434 6.47416C26.6039 6.47362 26.6644 6.47308 26.7267 6.47252C27.2488 6.47443 27.6811 6.5692 28.0609 6.94447C28.3324 7.32765 28.3485 7.6989 28.3443 8.15573C28.3445 8.22649 28.3449 8.29726 28.3454 8.36802C28.3463 8.5613 28.3457 8.75455 28.3448 8.94783C28.3441 9.15672 28.3449 9.3656 28.3455 9.57449C28.3464 9.98321 28.346 10.3919 28.3451 10.8006C28.3444 11.1328 28.3442 11.465 28.3444 11.7972C28.3444 11.8682 28.3444 11.8682 28.3444 11.9407C28.3445 12.0368 28.3445 12.133 28.3446 12.2291C28.345 13.0787 28.3442 13.9284 28.3427 14.778C28.3412 15.6021 28.3409 16.4263 28.3417 17.2504C28.3425 18.1483 28.3427 19.0463 28.3418 19.9442C28.3417 20.04 28.3416 20.1357 28.3415 20.2315C28.3415 20.2786 28.3415 20.3257 28.3414 20.3743C28.3411 20.7061 28.3413 21.0379 28.3416 21.3697C28.342 21.774 28.3417 22.1784 28.3404 22.5827C28.3398 22.7889 28.3395 22.9952 28.34 23.2014C28.3405 23.3903 28.3401 23.5792 28.3389 23.7681C28.3386 23.8686 28.3392 23.9691 28.3398 24.0696C28.336 24.4816 28.2896 24.7584 28.0176 25.0812C27.9862 25.1079 27.9548 25.1346 27.9224 25.1621C27.8915 25.1894 27.8606 25.2167 27.8288 25.2449C27.4104 25.5149 26.9846 25.4955 26.5044 25.494C26.4233 25.4942 26.3421 25.4946 26.2609 25.495C26.0413 25.4959 25.8217 25.4958 25.6021 25.4956C25.4184 25.4954 25.2347 25.4957 25.0511 25.496C24.6176 25.4967 24.1841 25.4966 23.7506 25.4961C23.3041 25.4955 22.8577 25.4962 22.4112 25.4975C22.0272 25.4987 21.6431 25.499 21.2591 25.4987C21.03 25.4985 20.801 25.4986 20.5719 25.4995C20.3565 25.5003 20.141 25.5001 19.9256 25.4992C19.8468 25.499 19.768 25.4991 19.6891 25.4996C19.1859 25.5028 18.792 25.4619 18.3778 25.1589C18.2111 24.9884 18.041 24.7662 18.041 24.5169C16.313 24.5169 14.585 24.5169 12.8046 24.5169C12.7713 24.6332 12.7381 24.7496 12.7039 24.8694C12.5061 25.2038 12.2052 25.3545 11.8479 25.4736C11.7379 25.4787 11.6278 25.4806 11.5177 25.481C11.4672 25.4813 11.4672 25.4813 11.4156 25.4816C11.3024 25.4821 11.1893 25.4823 11.0761 25.4825C10.995 25.4828 10.914 25.4832 10.8329 25.4835C10.5664 25.4846 10.3 25.4851 10.0335 25.4856C9.94167 25.4858 9.84987 25.486 9.75806 25.4862C9.32657 25.4872 8.89508 25.4879 8.46358 25.4883C7.96601 25.4888 7.46845 25.4901 6.97088 25.4922C6.58603 25.4937 6.20117 25.4944 5.81631 25.4946C5.5866 25.4947 5.3569 25.4952 5.12719 25.4964C4.91084 25.4976 4.6945 25.4978 4.47814 25.4973C4.39903 25.4973 4.31991 25.4976 4.2408 25.4983C3.74684 25.5024 3.29954 25.4885 2.90273 25.1623C2.85678 25.1061 2.85678 25.1061 2.8099 25.0488C2.77822 25.0114 2.74655 24.9741 2.71391 24.9357C2.56375 24.7174 2.52037 24.5337 2.51987 24.2704C2.51952 24.2105 2.51916 24.1507 2.51879 24.0891C2.51891 24.0235 2.51904 23.958 2.51916 23.8905C2.51894 23.82 2.51867 23.7495 2.51836 23.6791C2.51765 23.4854 2.51757 23.2918 2.51759 23.0981C2.5175 22.8893 2.51685 22.6804 2.51627 22.4716C2.51512 22.0149 2.51472 21.5582 2.51446 21.1015C2.5143 20.8162 2.51397 20.531 2.51361 20.2458C2.51262 19.456 2.5118 18.6662 2.51165 17.8765C2.51164 17.8259 2.51163 17.7754 2.51162 17.7233C2.5116 17.6208 2.51159 17.5184 2.51157 17.4159C2.51156 17.3651 2.51155 17.3142 2.51154 17.2618C2.51153 17.2109 2.51152 17.16 2.51151 17.1075C2.51133 16.2825 2.50997 15.4574 2.50809 14.6324C2.50617 13.7852 2.5052 12.938 2.50518 12.0908C2.50515 11.6152 2.50473 11.1396 2.50327 10.6639C2.50204 10.2589 2.50167 9.85393 2.50243 9.44891C2.50279 9.24234 2.50275 9.03579 2.5016 8.82922C2.50056 8.6399 2.5007 8.45062 2.50174 8.2613C2.502 8.16082 2.50103 8.06034 2.5 7.95986C2.50399 7.53198 2.56652 7.16004 2.88196 6.8484C3.30121 6.49582 3.77449 6.46943 4.30224 6.47416C4.36713 6.47414 4.43203 6.47412 4.49888 6.4741C4.6755 6.47405 4.8521 6.47494 5.02872 6.47599C5.21378 6.47694 5.39885 6.47703 5.58392 6.47721C5.93377 6.47767 6.28362 6.47891 6.63348 6.48043C7.03203 6.48212 7.43057 6.48295 7.82912 6.48371C8.64842 6.48528 9.46771 6.48794 10.287 6.49131C10.3098 6.4199 10.3098 6.4199 10.333 6.34706C10.3857 6.19488 10.4353 6.1058 10.5388 5.98465C10.5647 5.95292 10.5907 5.92118 10.6174 5.88848C11.0602 5.52019 11.5067 5.49816 12.0601 5.50207ZM10.9746 6.48398C10.8365 6.75861 10.8637 7.06384 10.866 7.36387C10.8658 7.43249 10.8655 7.50112 10.8651 7.56974C10.8644 7.75782 10.8649 7.94587 10.8656 8.13394C10.8662 8.33696 10.8656 8.53998 10.8651 8.743C10.8644 9.1405 10.8648 9.53799 10.8656 9.93549C10.8664 10.3984 10.8663 10.8613 10.8661 11.3242C10.8658 12.15 10.8665 12.9759 10.8677 13.8017C10.8689 14.6032 10.8693 15.4046 10.8688 16.2061C10.8682 17.0788 10.8681 17.9515 10.8688 18.8242C10.8689 18.9173 10.869 19.0103 10.869 19.1034C10.8691 19.1492 10.8691 19.1949 10.8692 19.2421C10.8694 19.5648 10.8693 19.8875 10.8691 20.2102C10.8688 20.6034 10.8691 20.9965 10.8701 21.3897C10.8706 21.5903 10.8709 21.791 10.8705 21.9916C10.8701 22.1752 10.8705 22.3589 10.8714 22.5425C10.8717 22.6404 10.8712 22.7384 10.8708 22.8363C10.8705 23.2455 10.8705 23.2455 11.0423 23.6106C11.2926 23.8481 11.479 23.8686 11.8155 23.8694C11.8813 23.8697 11.9472 23.87 12.015 23.8703C12.0879 23.8704 12.1608 23.8704 12.2337 23.8705C12.3106 23.8707 12.3874 23.871 12.4643 23.8712C12.673 23.8719 12.8817 23.8722 13.0903 23.8725C13.2208 23.8726 13.3512 23.8728 13.4816 23.873C13.8899 23.8737 14.2981 23.8742 14.7063 23.8744C15.1773 23.8746 15.6483 23.8755 16.1193 23.877C16.4835 23.8781 16.8478 23.8786 17.212 23.8786C17.4295 23.8787 17.6469 23.879 17.8644 23.8799C18.069 23.8807 18.2736 23.8808 18.4782 23.8804C18.5532 23.8803 18.6282 23.8806 18.7031 23.8811C19.2256 23.8929 19.2256 23.8929 19.7026 23.7113C19.9108 23.4922 19.9606 23.3282 19.9611 23.0314C19.9615 22.9445 19.9615 22.9445 19.9618 22.8558C19.9618 22.7918 19.9618 22.7278 19.9618 22.6619C19.962 22.5935 19.9621 22.5251 19.9624 22.4567C19.9629 22.2683 19.963 22.0798 19.9632 21.8914C19.9634 21.6883 19.9639 21.4853 19.9643 21.2822C19.9653 20.7917 19.9658 20.3011 19.9662 19.8105C19.9665 19.5796 19.9667 19.3486 19.967 19.1177C19.9679 18.3502 19.9686 17.5826 19.969 16.8151C19.969 16.6159 19.9691 16.4167 19.9692 16.2174C19.9693 16.1679 19.9693 16.1184 19.9693 16.0674C19.9697 15.2651 19.971 14.4627 19.9726 13.6604C19.9743 12.8369 19.9752 12.0134 19.9754 11.1899C19.9755 10.7275 19.9759 10.265 19.9772 9.80254C19.9783 9.40874 19.9787 9.01495 19.9782 8.62115C19.978 8.42021 19.9781 8.21929 19.9791 8.01835C19.98 7.83435 19.9799 7.65037 19.9791 7.46637C19.9789 7.36838 19.9798 7.27038 19.9806 7.17239C19.9781 6.83676 19.9701 6.60453 19.753 6.34026C19.5384 6.19506 19.3667 6.17027 19.1107 6.17002C19.0778 6.16979 19.0449 6.16955 19.0109 6.16931C18.9012 6.16871 18.7915 6.16918 18.6818 6.16966C18.6029 6.16945 18.524 6.16919 18.4451 6.16886C18.2312 6.16817 18.0173 6.16844 17.8034 6.16891C17.5794 6.1693 17.3554 6.16894 17.1313 6.16871C16.7551 6.16843 16.3789 6.16879 16.0027 6.16951C15.568 6.17033 15.1334 6.17007 14.6987 6.16924C14.3252 6.16855 13.9517 6.16845 13.5782 6.16885C13.3553 6.16908 13.1323 6.16912 12.9094 6.16862C12.6998 6.16818 12.4902 6.16848 12.2806 6.16936C12.2037 6.16956 12.1269 6.1695 12.05 6.16917C11.945 6.16875 11.8399 6.16927 11.7349 6.17002C11.6468 6.17011 11.6468 6.17011 11.5569 6.1702C11.2899 6.20149 11.1458 6.27552 10.9746 6.48398ZM3.26935 7.44168C3.14881 7.67348 3.13089 7.87677 3.1307 8.13556C3.13054 8.19267 3.13038 8.24978 3.13021 8.30862C3.13029 8.37112 3.13036 8.43362 3.13044 8.49802C3.13035 8.56528 3.13023 8.63253 3.1301 8.69979C3.12979 8.88454 3.1298 9.06929 3.12986 9.25405C3.12987 9.45333 3.12959 9.65261 3.12935 9.85189C3.12893 10.2423 3.12879 10.6327 3.12877 11.0231C3.12874 11.3404 3.12864 11.6577 3.12848 11.975C3.12803 12.8745 3.1278 13.7739 3.12784 14.6734C3.12784 14.7219 3.12784 14.7704 3.12785 14.8204C3.12785 14.8689 3.12785 14.9175 3.12785 14.9675C3.12787 15.7545 3.12739 16.5416 3.12668 17.3286C3.12596 18.1366 3.12561 18.9446 3.12565 19.7526C3.12567 20.2063 3.12553 20.66 3.12499 21.1137C3.12453 21.4999 3.12442 21.8862 3.12476 22.2724C3.12493 22.4695 3.12493 22.6665 3.1245 22.8636C3.1241 23.044 3.12417 23.2245 3.12461 23.4049C3.12472 23.501 3.12434 23.5971 3.12394 23.6932C3.11295 24.1776 3.11295 24.1776 3.31026 24.6047C3.55231 24.7801 3.66025 24.8254 3.95852 24.8265C4.00798 24.8267 4.00798 24.8267 4.05845 24.827C4.16946 24.8276 4.28046 24.8278 4.39148 24.828C4.47087 24.8283 4.55026 24.8286 4.62965 24.829C4.84573 24.8298 5.06181 24.8304 5.27789 24.8308C5.41285 24.831 5.54782 24.8313 5.68279 24.8317C6.10498 24.8326 6.52717 24.8333 6.94936 24.8338C7.43687 24.8343 7.92438 24.8356 8.41189 24.8376C8.78857 24.8391 9.16525 24.8399 9.54194 24.84C9.76697 24.8402 9.992 24.8406 10.217 24.8419C10.4288 24.8431 10.6405 24.8433 10.8523 24.8427C10.93 24.8427 11.0076 24.843 11.0853 24.8437C11.1915 24.8446 11.2976 24.8443 11.4038 24.8436C11.4631 24.8437 11.5225 24.8438 11.5837 24.844C11.7827 24.8136 11.8928 24.742 12.0493 24.6176C12.0659 24.5844 12.0825 24.5512 12.0996 24.5169C12.0546 24.5151 12.0096 24.5132 11.9631 24.5112C10.9902 24.4583 10.9902 24.4583 10.6127 24.1013C10.3719 23.815 10.281 23.4987 10.28 23.1304C10.2797 23.0734 10.2795 23.0163 10.2792 22.9576C10.2791 22.8949 10.2791 22.8322 10.279 22.7676C10.2788 22.7003 10.2786 22.6331 10.2783 22.5658C10.2776 22.3808 10.2772 22.1959 10.2769 22.0109C10.2765 21.8115 10.2758 21.6121 10.2752 21.4127C10.2741 21.0671 10.2731 20.7216 10.2724 20.376C10.2712 19.8764 10.2698 19.3768 10.2683 18.8772C10.2659 18.0667 10.2637 17.2561 10.2617 16.4456C10.2597 15.6581 10.2576 14.8707 10.2554 14.0833C10.2553 14.0347 10.2551 13.9862 10.255 13.9362C10.2543 13.6928 10.2536 13.4493 10.2529 13.2059C10.2472 11.1859 10.2418 9.16588 10.2367 7.14587C9.39587 7.14234 8.55508 7.13968 7.71428 7.13805C7.32387 7.13727 6.93346 7.13621 6.54306 7.13448C6.2027 7.13297 5.86235 7.132 5.52199 7.13166C5.34184 7.13146 5.1617 7.131 4.98155 7.1299C4.78024 7.12868 4.57896 7.12865 4.37765 7.12872C4.31818 7.12818 4.25871 7.12764 4.19744 7.12708C3.82048 7.1285 3.5238 7.13366 3.26935 7.44168ZM20.6089 7.14587C20.6089 7.18011 20.6088 7.21435 20.6088 7.24963C20.6059 9.27919 20.6021 11.3087 20.5974 13.3383C20.5968 13.582 20.5963 13.8257 20.5957 14.0694C20.5956 14.1179 20.5955 14.1665 20.5954 14.2165C20.5936 15.002 20.5924 15.7875 20.5913 16.573C20.5902 17.3791 20.5885 18.1851 20.5864 18.9912C20.585 19.4886 20.5841 19.9859 20.5838 20.4833C20.5835 20.8243 20.5827 21.1654 20.5815 21.5065C20.5808 21.7033 20.5803 21.9 20.5805 22.0968C20.5807 22.2771 20.5801 22.4574 20.5791 22.6377C20.5787 22.7335 20.579 22.8293 20.5794 22.9251C20.5755 23.3922 20.5213 23.7873 20.1932 24.1391C19.8666 24.421 19.5004 24.4676 19.0827 24.4949C19.0195 24.4991 18.9564 24.5033 18.8913 24.5077C18.8433 24.5107 18.7954 24.5138 18.746 24.5169C18.9528 24.7485 18.9528 24.7485 19.2366 24.8258C19.3255 24.8261 19.3255 24.8261 19.4163 24.8265C19.4657 24.8267 19.4657 24.8267 19.5162 24.827C19.6272 24.8276 19.7382 24.8278 19.8492 24.828C19.9286 24.8283 20.008 24.8286 20.0874 24.829C20.3035 24.8298 20.5195 24.8304 20.7356 24.8308C20.8706 24.831 21.0056 24.8313 21.1405 24.8317C21.5627 24.8326 21.9849 24.8333 22.4071 24.8338C22.8946 24.8343 23.3821 24.8356 23.8696 24.8376C24.2463 24.8391 24.623 24.8399 24.9997 24.84C25.2247 24.8402 25.4497 24.8406 25.6748 24.8419C25.8865 24.8431 26.0983 24.8433 26.31 24.8427C26.3877 24.8427 26.4654 24.843 26.543 24.8437C26.6492 24.8446 26.7553 24.8443 26.8615 24.8436C26.9209 24.8437 26.9803 24.8438 27.0414 24.844C27.2795 24.8077 27.4356 24.694 27.5983 24.5201C27.7137 24.3197 27.7148 24.1068 27.715 23.88C27.7152 23.8229 27.7154 23.7659 27.7156 23.7071C27.7156 23.6447 27.7155 23.5823 27.7155 23.5179C27.7156 23.4507 27.7158 23.3836 27.716 23.3164C27.7164 23.1318 27.7164 22.9473 27.7165 22.7627C27.7166 22.5636 27.717 22.3645 27.7173 22.1655C27.718 21.7302 27.7183 21.2949 27.7185 20.8597C27.7186 20.5879 27.7189 20.316 27.7191 20.0442C27.7197 19.2915 27.7202 18.5388 27.7204 17.7862C27.7204 17.738 27.7204 17.6898 27.7204 17.6402C27.7204 17.5919 27.7204 17.5436 27.7205 17.4939C27.7205 17.3961 27.7205 17.2982 27.7205 17.2004C27.7205 17.1519 27.7205 17.1034 27.7206 17.0534C27.7208 16.2671 27.7216 15.4807 27.7228 14.6944C27.724 13.887 27.7246 13.0795 27.7247 12.2721C27.7247 11.8188 27.725 11.3655 27.7259 10.9122C27.7267 10.5263 27.727 10.1403 27.7266 9.7543C27.7264 9.55743 27.7264 9.36056 27.7271 9.1637C27.7278 8.9833 27.7277 8.80292 27.7271 8.62252C27.7269 8.52671 27.7275 8.4309 27.7282 8.33509C27.7259 7.94641 27.7184 7.5628 27.4346 7.27175C27.2327 7.15353 27.0654 7.13959 26.8334 7.13982C26.7785 7.13975 26.7236 7.13968 26.667 7.13961C26.5769 7.13988 26.5769 7.13988 26.4851 7.14016C26.4217 7.14015 26.3583 7.14014 26.293 7.14013C26.1194 7.14012 25.9458 7.14042 25.7722 7.14077C25.5907 7.14108 25.4092 7.14111 25.2277 7.14117C24.8841 7.14133 24.5405 7.14174 24.1968 7.14225C23.8056 7.14281 23.4144 7.14309 23.0231 7.14334C22.2184 7.14386 21.4137 7.14475 20.6089 7.14587Z" fill="#78C3E3"/>
<path d="M16.3868 7.42292C16.6865 7.66156 16.9118 7.972 16.9839 8.35402C16.9909 8.4388 16.995 8.52386 16.9965 8.60892C16.9978 8.65208 16.9991 8.69524 17.0005 8.73971C16.9839 8.85753 16.9839 8.85753 16.9187 8.94722C16.7742 9.05057 16.6511 9.02991 16.4804 9.00858C16.3448 8.86822 16.311 8.75548 16.2885 8.56486C16.2388 8.29322 16.1464 8.12127 15.9266 7.95121C15.7016 7.82518 15.4959 7.78043 15.2405 7.82219C14.9573 7.90255 14.753 8.06965 14.5954 8.31626C14.5331 8.62089 14.5129 8.89939 14.6678 9.17851C14.8182 9.3852 14.9766 9.49161 15.2217 9.56244C15.3378 9.58011 15.4543 9.59569 15.571 9.60964C16.0654 9.67 16.386 9.86249 16.699 10.2502C17.0094 10.6597 17.026 11.0735 16.9839 11.5765C16.8824 11.9961 16.5853 12.3397 16.2318 12.5772C15.8336 12.8051 15.4116 12.8424 14.9699 12.7283C14.5417 12.5877 14.1826 12.2797 13.9611 11.8868C13.8421 11.6156 13.8141 11.3145 13.8622 11.0226C13.9295 10.9317 13.9295 10.9317 14.0132 10.8716C14.2186 10.8502 14.2917 10.8558 14.4664 10.9723C14.5089 11.1072 14.5089 11.1072 14.5419 11.2681C14.5857 11.4801 14.6329 11.6098 14.7685 11.7779C14.7685 11.8111 14.7685 11.8443 14.7685 11.8786C14.8521 11.913 14.9361 11.9463 15.0203 11.9793C15.067 11.999 15.1137 12.0187 15.1619 12.0391C15.4218 12.1053 15.6343 12.079 15.8699 11.951C15.9052 11.9271 15.9406 11.9032 15.9769 11.8786C16.0102 11.8786 16.0434 11.8786 16.0776 11.8786C16.1122 11.8119 16.1455 11.7447 16.1783 11.6772C16.197 11.6419 16.2157 11.6066 16.235 11.5702C16.3126 11.315 16.3299 11.0603 16.2367 10.8069C16.0906 10.5435 15.913 10.4014 15.6245 10.3177C15.446 10.289 15.2673 10.2668 15.0879 10.2447C14.7101 10.1825 14.3747 9.97804 14.1436 9.66885C13.8597 9.23424 13.8049 8.81835 13.8622 8.30367C14.0075 7.82804 14.2946 7.50413 14.7077 7.23863C15.2328 6.98712 15.93 7.10111 16.3868 7.42292Z" fill="#78C3E3"/>
<path d="M25.1922 8.73675C25.46 8.98526 25.675 9.32108 25.7042 9.69283C25.7049 9.74112 25.7057 9.78941 25.7065 9.83916C25.7078 9.88745 25.7091 9.93574 25.7104 9.9855C25.6939 10.1161 25.6939 10.1161 25.6271 10.2077C25.4963 10.3 25.3959 10.2865 25.2408 10.2671C25.0859 10.1517 25.0583 10.0327 25.0173 9.8486C24.9417 9.55352 24.8617 9.34213 24.5988 9.16887C24.2833 9.0536 24.0352 9.01935 23.7249 9.15156C23.508 9.28396 23.3568 9.474 23.2771 9.71329C23.2427 9.99885 23.2787 10.2201 23.4049 10.4774C23.6204 10.7464 23.8743 10.8026 24.196 10.843C24.6998 10.9207 25.0935 11.0538 25.4184 11.4685C25.7173 11.903 25.7451 12.3203 25.6939 12.835C25.5956 13.2445 25.3121 13.5576 24.9859 13.8106C24.5783 14.036 24.1556 14.0885 23.7041 13.9821C23.2575 13.8415 22.9339 13.5781 22.7071 13.168C22.5801 12.8853 22.5092 12.5903 22.5722 12.2812C22.6381 12.1927 22.6381 12.1927 22.7232 12.1301C22.8994 12.1081 22.8994 12.1081 23.0757 12.1301C23.2113 12.2705 23.2451 12.3832 23.2676 12.5738C23.3173 12.8455 23.4097 13.0174 23.6295 13.1875C23.8545 13.3135 24.0602 13.3583 24.3156 13.3165C24.5852 13.2405 24.7982 13.0795 24.9471 12.8419C25.0398 12.6039 25.0323 12.3149 24.9544 12.0731C24.8411 11.855 24.6955 11.7449 24.4855 11.6266C24.3474 11.5896 24.2087 11.5719 24.067 11.5542C23.5447 11.4745 23.159 11.2943 22.8239 10.8714C22.5583 10.4402 22.4892 9.96995 22.6048 9.47196C22.7574 9.05147 23.0345 8.72407 23.4238 8.50329C24.0197 8.22654 24.6829 8.335 25.1922 8.73675Z" fill="#78C3E3"/>
<path d="M22.167 21.7892C22.2137 21.7888 22.2605 21.7885 22.3087 21.7882C22.4638 21.7872 22.619 21.7866 22.7742 21.7861C22.8271 21.7859 22.88 21.7857 22.9346 21.7855C23.2146 21.7844 23.4947 21.7837 23.7748 21.7832C24.0643 21.7827 24.3538 21.7809 24.6434 21.7789C24.8658 21.7776 25.0882 21.7772 25.3106 21.777C25.4173 21.7768 25.5241 21.7762 25.6308 21.7752C25.7802 21.774 25.9295 21.7741 26.0788 21.7744C26.145 21.7734 26.145 21.7734 26.2126 21.7725C26.4172 21.7742 26.5241 21.7827 26.7028 21.8909C26.8354 22.0371 26.8331 22.125 26.8329 22.3205C26.833 22.3825 26.8331 22.4446 26.8332 22.5085C26.832 22.5731 26.8308 22.6378 26.8296 22.7044C26.8302 22.769 26.8307 22.8337 26.8313 22.9003C26.8276 23.3701 26.8276 23.3701 26.7285 23.5177C26.535 23.6576 26.3597 23.6385 26.1264 23.636C26.0785 23.6362 26.0306 23.6365 25.9812 23.6368C25.8229 23.6374 25.6645 23.6366 25.5061 23.6357C25.3961 23.6357 25.2862 23.6358 25.1762 23.6359C24.9457 23.636 24.7152 23.6353 24.4848 23.6342C24.189 23.6328 23.8933 23.6329 23.5975 23.6336C23.3705 23.6339 23.1434 23.6335 22.9163 23.6329C22.8073 23.6327 22.6982 23.6326 22.5891 23.6328C22.4369 23.633 22.2846 23.6322 22.1324 23.6311C22.0871 23.6313 22.0418 23.6315 21.9952 23.6317C21.9537 23.6312 21.9123 23.6307 21.8696 23.6302C21.8336 23.6301 21.7976 23.63 21.7606 23.6299C21.6371 23.605 21.5931 23.5559 21.5144 23.4597C21.4087 23.2482 21.4525 22.9713 21.4515 22.739C21.4505 22.6815 21.4494 22.6241 21.4483 22.5648C21.448 22.4816 21.448 22.4816 21.4476 22.3966C21.4469 22.3204 21.4469 22.3204 21.4461 22.2427C21.467 22.0768 21.517 21.9826 21.6151 21.8484C21.7856 21.7632 21.9794 21.7897 22.167 21.7892ZM22.1186 22.4526C22.1186 22.6188 22.1186 22.785 22.1186 22.9561C23.4479 22.9561 24.7772 22.9561 26.1467 22.9561C26.1467 22.79 26.1467 22.6238 26.1467 22.4526C24.8175 22.4526 23.4882 22.4526 22.1186 22.4526Z" fill="#78C3E2"/>
<path d="M13.474 21.0605C13.5208 21.0601 13.5676 21.0596 13.6158 21.0592C13.7702 21.0581 13.9245 21.0588 14.0788 21.0597C14.1863 21.0595 14.2937 21.0593 14.4011 21.0589C14.6261 21.0586 14.8511 21.0591 15.0761 21.0603C15.3644 21.0617 15.6527 21.0609 15.9411 21.0594C16.1629 21.0585 16.3846 21.0588 16.6064 21.0594C16.7127 21.0596 16.819 21.0594 16.9253 21.0588C17.074 21.0582 17.2225 21.0591 17.3711 21.0605C17.437 21.0598 17.437 21.0598 17.5042 21.059C17.7245 21.0628 17.813 21.0726 17.9927 21.2119C18.1108 21.3713 18.1219 21.4521 18.1193 21.6487C18.119 21.7061 18.1186 21.7634 18.1182 21.8225C18.1157 21.9116 18.1157 21.9116 18.1132 22.0026C18.1128 22.092 18.1128 22.092 18.1123 22.1832C18.1053 22.6789 18.1053 22.6789 17.9905 22.8554C17.8174 22.9419 17.6183 22.9131 17.4278 22.9131C17.3799 22.9132 17.332 22.9134 17.2826 22.9136C17.1237 22.914 16.9648 22.9141 16.8059 22.9142C16.6957 22.9144 16.5856 22.9145 16.4755 22.9147C16.2444 22.915 16.0134 22.9151 15.7823 22.9151C15.4857 22.9151 15.1892 22.9158 14.8927 22.9166C14.6652 22.9172 14.4377 22.9173 14.2102 22.9173C14.1008 22.9173 13.9915 22.9175 13.8821 22.9179C13.7294 22.9184 13.5766 22.9183 13.4239 22.918C13.3785 22.9183 13.333 22.9185 13.2862 22.9188C13.2446 22.9186 13.203 22.9184 13.1602 22.9182C13.1241 22.9182 13.088 22.9182 13.0508 22.9183C12.9554 22.9057 12.9554 22.9057 12.8043 22.805C12.7182 22.5467 12.7383 22.2762 12.7351 22.0057C12.7323 21.9162 12.7323 21.9162 12.7294 21.825C12.7288 21.7674 12.7282 21.7098 12.7276 21.6505C12.7266 21.5979 12.7256 21.5454 12.7246 21.4912C12.8076 21.0777 13.1204 21.0564 13.474 21.0605ZM13.4086 21.7477C13.4086 21.9138 13.4086 22.08 13.4086 22.2512C14.7378 22.2512 16.0671 22.2512 17.4366 22.2512C17.4366 22.085 17.4366 21.9189 17.4366 21.7477C16.1074 21.7477 14.7781 21.7477 13.4086 21.7477Z" fill="#78C3E3"/>
<path d="M13.5862 16.5975C13.6301 16.5971 13.674 16.5968 13.7192 16.5965C13.8646 16.5955 14.0099 16.5953 14.1552 16.5952C14.2561 16.5949 14.357 16.5945 14.4579 16.5942C14.6695 16.5936 14.8811 16.5934 15.0927 16.5935C15.364 16.5935 15.6353 16.5921 15.9066 16.5904C16.115 16.5892 16.3234 16.589 16.5318 16.5891C16.6319 16.589 16.7319 16.5885 16.832 16.5877C16.9718 16.5868 17.1116 16.587 17.2514 16.5877C17.2928 16.5871 17.3342 16.5865 17.3769 16.5859C17.5575 16.5879 17.6667 16.5972 17.816 16.7029C17.8893 16.8135 17.8893 16.8135 17.8861 16.996C17.8389 17.166 17.8389 17.166 17.6879 17.2667C17.543 17.277 17.4029 17.2815 17.2579 17.2813C17.1921 17.2818 17.1921 17.2818 17.1249 17.2823C16.9796 17.2833 16.8342 17.2835 16.6889 17.2836C16.588 17.2839 16.4871 17.2843 16.3862 17.2846C16.1746 17.2852 15.963 17.2854 15.7514 17.2853C15.4801 17.2853 15.2088 17.2867 14.9375 17.2884C14.7291 17.2896 14.5207 17.2898 14.3123 17.2897C14.2123 17.2898 14.1122 17.2903 14.0122 17.291C13.8723 17.292 13.7326 17.2917 13.5927 17.2911C13.5513 17.2917 13.5099 17.2923 13.4672 17.2929C13.2866 17.2909 13.1774 17.2816 13.0281 17.1759C12.9549 17.0653 12.9549 17.0653 12.958 16.8828C13.05 16.5516 13.294 16.5972 13.5862 16.5975Z" fill="#78C2E3"/>
<path d="M22.3028 20.3729C22.3695 20.3724 22.3695 20.3724 22.4375 20.3719C22.5847 20.3709 22.7319 20.3707 22.8792 20.3706C22.9813 20.3703 23.0835 20.3699 23.1856 20.3696C23.3998 20.369 23.614 20.3688 23.8281 20.3688C24.1029 20.3689 24.3777 20.3675 24.6525 20.3657C24.8635 20.3646 25.0745 20.3644 25.2854 20.3645C25.3868 20.3644 25.4881 20.3639 25.5894 20.3631C25.731 20.3621 25.8725 20.3624 26.014 20.363C26.0561 20.3625 26.0981 20.3619 26.1415 20.3613C26.4231 20.3644 26.4231 20.3644 26.5525 20.4783C26.6254 20.6467 26.5952 20.7671 26.5501 20.9414C26.3569 21.0701 26.1984 21.0573 25.9745 21.0575C25.9095 21.0581 25.9095 21.0581 25.8432 21.0588C25.6997 21.06 25.5563 21.0604 25.4128 21.0608C25.3132 21.0612 25.2135 21.0617 25.1139 21.0621C24.9049 21.063 24.6959 21.0633 24.4868 21.0635C24.219 21.0638 23.9513 21.0657 23.6835 21.068C23.4776 21.0695 23.2717 21.0698 23.0659 21.0699C22.9671 21.0701 22.8684 21.0707 22.7697 21.0718C22.6315 21.0731 22.4935 21.0729 22.3553 21.0722C22.3146 21.073 22.2738 21.0737 22.2318 21.0745C22.0189 21.0717 21.9394 21.0587 21.7645 20.9243C21.666 20.7903 21.666 20.7903 21.666 20.6298C21.7741 20.3257 22.0277 20.3726 22.3028 20.3729Z" fill="#78C3E3"/>
<path d="M22.2972 14.785C22.341 14.7846 22.3849 14.7843 22.4302 14.784C22.5755 14.783 22.7208 14.7828 22.8662 14.7827C22.9671 14.7824 23.068 14.782 23.1689 14.7817C23.3805 14.7811 23.5921 14.7809 23.8036 14.781C24.075 14.781 24.3462 14.7796 24.6175 14.7779C24.826 14.7767 25.0344 14.7765 25.2428 14.7766C25.3428 14.7765 25.4429 14.776 25.5429 14.7752C25.6827 14.7743 25.8225 14.7745 25.9623 14.7752C26.0038 14.7746 26.0452 14.774 26.0878 14.7734C26.2684 14.7754 26.3777 14.7847 26.527 14.8904C26.6002 15.001 26.6002 15.001 26.5971 15.1835C26.5498 15.3535 26.5498 15.3535 26.3988 15.4542C26.2539 15.4648 26.1138 15.4695 25.9689 15.4696C25.903 15.4702 25.903 15.4702 25.8358 15.4709C25.6905 15.4721 25.5452 15.4725 25.3998 15.4729C25.2989 15.4733 25.198 15.4738 25.0971 15.4742C24.8855 15.4751 24.674 15.4755 24.4624 15.4756C24.191 15.4759 23.9198 15.4778 23.6485 15.4801C23.44 15.4816 23.2316 15.4819 23.0232 15.482C22.9232 15.4822 22.8232 15.4828 22.7231 15.4839C22.5833 15.4852 22.4435 15.485 22.3037 15.4844C22.2623 15.4851 22.2208 15.4858 22.1782 15.4866C21.9798 15.4841 21.8876 15.4729 21.739 15.3364C21.6658 15.2024 21.6658 15.2024 21.669 15.0419C21.7703 14.7377 22.0254 14.7847 22.2972 14.785Z" fill="#78C3E3"/>
<path d="M22.3949 17.5484C22.4585 17.5479 22.4585 17.5479 22.5233 17.5473C22.6629 17.5464 22.8025 17.5466 22.9422 17.5469C23.0394 17.5467 23.1367 17.5464 23.2339 17.5461C23.4376 17.5456 23.6413 17.5458 23.8449 17.5463C24.1059 17.5468 24.3667 17.5458 24.6277 17.5444C24.8284 17.5434 25.0292 17.5435 25.23 17.5437C25.3262 17.5437 25.4224 17.5434 25.5186 17.5428C25.6531 17.5421 25.7875 17.5426 25.922 17.5435C25.9617 17.543 26.0014 17.5425 26.0422 17.542C26.2287 17.5445 26.3394 17.563 26.4997 17.6614C26.6005 17.7701 26.6005 17.7701 26.6257 17.9243C26.5978 18.0879 26.5764 18.1237 26.4494 18.2233C26.2993 18.2385 26.1597 18.2444 26.0095 18.2436C25.942 18.2442 25.942 18.2442 25.8732 18.2447C25.7244 18.2456 25.5755 18.2454 25.4267 18.2451C25.3234 18.2454 25.2201 18.2456 25.1169 18.2459C24.9003 18.2464 24.6838 18.2462 24.4672 18.2457C24.1894 18.2452 23.9115 18.2462 23.6337 18.2477C23.4204 18.2486 23.2071 18.2486 22.9938 18.2483C22.8913 18.2483 22.7889 18.2486 22.6864 18.2492C22.5433 18.2499 22.4002 18.2494 22.2571 18.2486C22.2146 18.249 22.1721 18.2495 22.1282 18.25C21.8429 18.2464 21.8429 18.2464 21.7141 18.1306C21.6441 17.9719 21.6611 17.8825 21.7165 17.7198C21.9273 17.5478 22.1341 17.5469 22.3949 17.5484Z" fill="#78C3E2"/>
<path d="M13.6794 19.3615C13.7212 19.3612 13.7631 19.361 13.8062 19.3607C13.9442 19.36 14.0822 19.3605 14.2202 19.361C14.3164 19.3609 14.4125 19.3607 14.5086 19.3606C14.7099 19.3603 14.9112 19.3607 15.1125 19.3614C15.3704 19.3622 15.6282 19.3617 15.8861 19.3608C16.0845 19.3603 16.2829 19.3605 16.4814 19.3608C16.5765 19.3609 16.6715 19.3608 16.7666 19.3605C16.8995 19.3601 17.0324 19.3607 17.1654 19.3615C17.2242 19.3611 17.2242 19.3611 17.2841 19.3606C17.5104 19.3632 17.6617 19.3876 17.8392 19.5321C17.8946 19.6948 17.9116 19.7843 17.8415 19.9429C17.6808 20.0876 17.5042 20.0637 17.2985 20.0617C17.2536 20.062 17.2086 20.0624 17.1623 20.0628C17.0134 20.0636 16.8646 20.0631 16.7158 20.0624C16.6125 20.0625 16.5092 20.0627 16.4059 20.063C16.1894 20.0633 15.9728 20.0628 15.7563 20.0619C15.4784 20.0607 15.2006 20.0614 14.9227 20.0626C14.7094 20.0633 14.4962 20.0631 14.2829 20.0626C14.1804 20.0624 14.0779 20.0626 13.9755 20.0631C13.8324 20.0636 13.6893 20.0628 13.5462 20.0617C13.5037 20.0621 13.4611 20.0625 13.4173 20.0629C13.1319 20.0588 13.1319 20.0588 13.0032 19.9429C12.9331 19.7843 12.9501 19.6948 13.0055 19.5321C13.2156 19.3612 13.4197 19.3595 13.6794 19.3615Z" fill="#78C3E2"/>
<path d="M13.4105 13.8278C13.4746 13.8279 13.4746 13.8279 13.54 13.828C13.5849 13.8276 13.6299 13.8273 13.6762 13.8269C13.8253 13.826 13.9744 13.8258 14.1235 13.8257C14.2269 13.8253 14.3302 13.825 14.4336 13.8247C14.6504 13.824 14.8673 13.8239 15.0841 13.8239C15.3624 13.8239 15.6406 13.8226 15.9189 13.8208C16.1324 13.8197 16.3459 13.8195 16.5594 13.8196C16.662 13.8194 16.7646 13.819 16.8672 13.8182C17.0106 13.8172 17.1538 13.8175 17.2972 13.8181C17.3398 13.8176 17.3824 13.817 17.4263 13.8164C17.7121 13.8195 17.7121 13.8195 17.8416 13.935C17.9085 14.0889 17.8836 14.1871 17.8387 14.3461C17.7069 14.4779 17.6127 14.4596 17.4332 14.4616C17.3691 14.4615 17.3691 14.4615 17.3037 14.4614C17.2588 14.4618 17.2138 14.4621 17.1675 14.4624C17.0184 14.4634 16.8693 14.4636 16.7201 14.4637C16.6168 14.464 16.5134 14.4644 16.4101 14.4647C16.1932 14.4653 15.9764 14.4655 15.7596 14.4655C15.4813 14.4654 15.2031 14.4668 14.9248 14.4686C14.7113 14.4697 14.4978 14.4699 14.2843 14.4698C14.1817 14.4699 14.0791 14.4704 13.9765 14.4712C13.8331 14.4722 13.6898 14.4719 13.5465 14.4713C13.5039 14.4718 13.4612 14.4724 13.4173 14.473C13.1316 14.4699 13.1316 14.4699 13.002 14.3544C12.9351 14.2005 12.9601 14.1023 13.005 13.9433C13.1368 13.8115 13.231 13.8298 13.4105 13.8278Z" fill="#78C2E2"/>
</g>
<defs>
<clipPath id="clip0_155_6321">
<rect width="31" height="31" rx="5" fill="white"/>
</clipPath>
</defs>
</svg>
