<svg width="24" height="24" viewBox="0 0 24 24" fill="none" xmlns="http://www.w3.org/2000/svg">
<g clip-path="url(#clip0_4_16)">
<rect width="24" height="24" rx="5" fill="white"/>
<path d="M7.85887 11.0015C7.91183 11.0014 7.96479 11.0013 8.01775 11.0012C8.1623 11.0009 8.30686 11.001 8.45141 11.0012C8.60769 11.0014 8.76397 11.0011 8.92025 11.0009C9.22601 11.0006 9.53177 11.0007 9.83754 11.0009C10.0861 11.0011 10.3347 11.0011 10.5833 11.001C10.6364 11.001 10.6364 11.001 10.6906 11.001C10.7626 11.0009 10.8346 11.0009 10.9065 11.0009C11.5809 11.0007 12.2552 11.0009 12.9296 11.0013C13.5078 11.0016 14.086 11.0016 14.6641 11.0013C15.3361 11.0009 16.0081 11.0007 16.6801 11.0009C16.7518 11.001 16.8235 11.001 16.8952 11.001C16.9305 11.001 16.9658 11.001 17.0021 11.001C17.2503 11.0011 17.4985 11.001 17.7467 11.0008C18.0493 11.0006 18.3518 11.0007 18.6544 11.0011C18.8087 11.0013 18.963 11.0013 19.1173 11.0011C19.2587 11.0009 19.4001 11.001 19.5415 11.0014C19.5925 11.0015 19.6435 11.0014 19.6944 11.0012C20.1419 10.9998 20.5511 11.0117 20.9126 11.3005C21.2034 11.5969 21.2928 11.8719 21.2902 12.281C21.2829 12.4911 21.2413 12.6456 21.1299 12.8221C21.1172 12.8447 21.1045 12.8672 21.0915 12.8904C20.9347 13.1419 20.6851 13.285 20.4054 13.3656C20.2933 13.3747 20.2933 13.3747 20.1713 13.3749C20.1013 13.3752 20.1013 13.3752 20.0299 13.3756C19.9783 13.3755 19.9268 13.3754 19.8753 13.3753C19.8203 13.3754 19.7654 13.3756 19.7104 13.3758C19.5595 13.3762 19.4087 13.3762 19.2578 13.3761C19.095 13.3761 18.9322 13.3765 18.7694 13.3768C18.4506 13.3774 18.1317 13.3776 17.8128 13.3777C17.5537 13.3777 17.2945 13.3779 17.0353 13.3781C16.3005 13.3787 15.5656 13.3791 14.8308 13.379C14.7714 13.379 14.7714 13.379 14.7107 13.379C14.6711 13.379 14.6314 13.379 14.5905 13.379C13.9477 13.379 13.3048 13.3797 12.662 13.3807C12.0019 13.3817 11.3419 13.3822 10.6818 13.3822C10.3112 13.3821 9.94062 13.3823 9.57004 13.3831C9.25453 13.3838 8.93902 13.3839 8.62351 13.3834C8.46256 13.3832 8.30161 13.3832 8.14066 13.3838C7.99323 13.3844 7.84581 13.3843 7.69838 13.3837C7.64514 13.3836 7.59189 13.3837 7.53865 13.3841C7.11219 13.3871 6.83292 13.3228 6.51951 13.0293C6.27138 12.7812 6.19282 12.555 6.18779 12.2085C6.18957 11.9735 6.22086 11.7895 6.34856 11.5904C6.3635 11.5652 6.37844 11.54 6.39384 11.5141C6.54066 11.2918 6.74627 11.1288 7.00748 11.0633C7.29206 11.0069 7.56958 11.0005 7.85887 11.0015Z" fill="#2666EE"/>
<path d="M7.28895 5.82073C7.33156 5.82049 7.37418 5.82026 7.41808 5.82002C7.48781 5.82019 7.48781 5.82019 7.55894 5.82036C7.60908 5.82022 7.65922 5.82006 7.70936 5.81986C7.84696 5.81942 7.98456 5.81943 8.12216 5.81951C8.27064 5.81953 8.41911 5.81913 8.56759 5.81879C8.85842 5.81818 9.14926 5.81798 9.44009 5.81794C9.67653 5.81791 9.91297 5.81776 10.1494 5.81753C10.8199 5.81689 11.4904 5.81656 12.1609 5.81661C12.2151 5.81662 12.2151 5.81662 12.2704 5.81662C12.3066 5.81662 12.3428 5.81663 12.3801 5.81663C12.9665 5.81666 13.5528 5.81597 14.1392 5.81495C14.7414 5.8139 15.3436 5.8134 15.9459 5.81347C16.2839 5.81349 16.6219 5.81329 16.96 5.81251C17.2478 5.81185 17.5357 5.81169 17.8235 5.81219C17.9703 5.81242 18.1171 5.81243 18.2639 5.8118C18.3984 5.81123 18.5329 5.81133 18.6675 5.81196C18.7389 5.81213 18.8103 5.81158 18.8817 5.811C19.2341 5.81374 19.5393 5.87978 19.8039 6.12554C20.0951 6.46084 20.1419 6.78025 20.122 7.2086C20.097 7.4808 19.9536 7.7149 19.7532 7.8951C19.5306 8.0625 19.3123 8.15763 19.0301 8.15802C18.9874 8.15825 18.9448 8.15849 18.9009 8.15873C18.8544 8.15861 18.8079 8.1585 18.7599 8.15839C18.7098 8.15852 18.6596 8.15869 18.6094 8.15888C18.4718 8.15933 18.3341 8.15932 18.1964 8.15923C18.0479 8.15922 17.8993 8.15962 17.7508 8.15996C17.4598 8.16056 17.1688 8.16076 16.8779 8.1608C16.6414 8.16084 16.4048 8.16099 16.1683 8.16121C15.4976 8.16185 14.8269 8.16219 14.1563 8.16213C14.1201 8.16213 14.0839 8.16213 14.0467 8.16212C14.0105 8.16212 13.9743 8.16212 13.937 8.16212C13.3504 8.16209 12.7638 8.16278 12.1771 8.1638C11.5747 8.16484 10.9723 8.16534 10.3699 8.16528C10.0317 8.16526 9.69349 8.16545 9.35531 8.16623C9.06738 8.16689 8.77945 8.16705 8.49152 8.16656C8.34465 8.16632 8.1978 8.16632 8.05093 8.16695C7.91637 8.16752 7.78183 8.16741 7.64727 8.16678C7.57577 8.16662 7.50428 8.16717 7.43279 8.16774C7.01254 8.16448 6.75217 8.04514 6.45722 7.75018C6.22237 7.50264 6.18612 7.24311 6.18827 6.91462C6.19552 6.70457 6.2372 6.55 6.34853 6.37348C6.36123 6.35097 6.37394 6.32846 6.38702 6.30527C6.58196 5.99256 6.92563 5.82123 7.28895 5.82073Z" fill="#2666EE"/>
<path d="M7.62322 16.2185C7.65464 16.2184 7.68605 16.2183 7.71842 16.2182C7.8226 16.2179 7.92676 16.2181 8.03093 16.2183C8.10607 16.2182 8.1812 16.2181 8.25634 16.218C8.45964 16.2176 8.66293 16.2178 8.86623 16.218C9.07939 16.2182 9.29255 16.218 9.50571 16.2179C9.86361 16.2178 10.2215 16.2179 10.5794 16.2183C10.9927 16.2187 11.406 16.2185 11.8192 16.2181C12.1746 16.2178 12.53 16.2178 12.8854 16.218C13.0974 16.2181 13.3094 16.2181 13.5214 16.2178C13.7208 16.2176 13.9201 16.2178 14.1195 16.2182C14.1925 16.2183 14.2654 16.2183 14.3384 16.2181C14.4384 16.2179 14.5384 16.2182 14.6383 16.2185C14.6812 16.2183 14.6812 16.2183 14.7249 16.218C15.124 16.2208 15.4569 16.3081 15.7616 16.5754C15.9835 16.8113 16.0991 17.137 16.0941 17.4595C16.0624 17.7723 15.9536 18.065 15.7318 18.2928C15.4484 18.5101 15.2129 18.5936 14.858 18.5923C14.8086 18.5925 14.8086 18.5925 14.7582 18.5928C14.6481 18.5932 14.538 18.5932 14.4278 18.5931C14.3488 18.5933 14.2698 18.5936 14.1907 18.5939C13.9761 18.5945 13.7615 18.5947 13.5469 18.5947C13.4128 18.5948 13.2786 18.5949 13.1445 18.5951C12.6522 18.5958 12.1599 18.5961 11.6676 18.596C11.3039 18.596 10.9402 18.5966 10.5765 18.5975C10.1537 18.5986 9.73092 18.5992 9.30814 18.5992C9.0845 18.5992 8.86087 18.5994 8.63723 18.6001C8.42681 18.6008 8.2164 18.6008 8.00599 18.6003C7.9289 18.6002 7.85182 18.6004 7.77474 18.6008C7.28281 18.6035 6.89256 18.6025 6.51824 18.2462C6.26752 17.9908 6.19814 17.7613 6.18779 17.4052C6.19313 17.1727 6.22476 17.0039 6.34856 16.8074C6.3635 16.7822 6.37844 16.7569 6.39384 16.731C6.56247 16.4761 6.79731 16.3239 7.09525 16.2617C7.27303 16.2275 7.44259 16.2175 7.62322 16.2185Z" fill="#2666EE"/>
<path d="M4.60776 6.0202C4.85374 6.20802 5.02163 6.49389 5.0711 6.7987C5.07423 6.82574 5.07736 6.85278 5.08058 6.88064C5.08483 6.90805 5.08908 6.93546 5.09346 6.96371C5.12125 7.28516 4.95809 7.59036 4.75834 7.83377C4.49301 8.08505 4.17493 8.17146 3.81639 8.18827C3.4937 8.17853 3.21797 8.01634 2.9868 7.79726C2.78148 7.57165 2.70554 7.35109 2.70985 7.05046C2.71015 7.0234 2.71045 6.99634 2.71076 6.96846C2.72377 6.54142 2.91043 6.28642 3.21253 5.99982C3.63069 5.72445 4.19248 5.75389 4.60776 6.0202Z" fill="#2666EE"/>
<path d="M4.45855 11.1447C4.7808 11.3381 4.95894 11.5989 5.08052 11.9527C5.137 12.3134 5.0793 12.6229 4.86612 12.9185C4.6524 13.1754 4.43305 13.3199 4.10914 13.3996C3.75497 13.424 3.39461 13.3485 3.11978 13.1208C2.88786 12.9037 2.74159 12.6674 2.71701 12.3475C2.7085 11.9432 2.77551 11.6616 3.0568 11.3641C3.43007 11.012 3.98703 10.9149 4.45855 11.1447Z" fill="#2666EE"/>
<path d="M4.45859 16.3618C4.78084 16.5551 4.95898 16.816 5.08056 17.1697C5.13704 17.5304 5.07934 17.8399 4.86616 18.1356C4.67808 18.3616 4.47838 18.552 4.17696 18.5919C3.77333 18.6255 3.43541 18.581 3.11288 18.32C2.88836 18.1081 2.74291 17.859 2.71352 17.5483C2.70923 17.1354 2.77444 16.8853 3.05684 16.5824C3.42653 16.2267 3.98903 16.1329 4.45859 16.3618Z" fill="#2666EE"/>
</g>
<defs>
<clipPath id="clip0_4_16">
<rect width="24" height="24" rx="5" fill="white"/>
</clipPath>
</defs>
</svg>
