<svg width="24" height="24" viewBox="0 0 24 24" fill="none" xmlns="http://www.w3.org/2000/svg">
<rect width="24" height="24" rx="5" fill="white"/>
<path d="M8.31895 5.01409C9.22004 5.01159 10.1211 5.00967 11.0222 5.00852C11.1286 5.00838 11.235 5.00824 11.3413 5.00809C11.3625 5.00807 11.3837 5.00804 11.4055 5.00801C11.7484 5.00753 12.0914 5.00667 12.4343 5.00567C12.7861 5.00465 13.138 5.00404 13.4898 5.00382C13.707 5.00367 13.9241 5.0032 14.1412 5.00231C14.3077 5.00167 14.4742 5.0016 14.6406 5.00174C14.7089 5.00171 14.7773 5.0015 14.8456 5.00108C14.9387 5.00054 15.0319 5.00067 15.125 5.00096C15.1657 5.00049 15.1657 5.00049 15.2072 5C15.367 5.00139 15.4553 5.01838 15.5778 5.12325C15.6687 5.22662 15.6904 5.31258 15.6904 5.44825C15.6905 5.47588 15.6906 5.5035 15.6907 5.53197C15.6906 5.57739 15.6906 5.57739 15.6905 5.62373C15.6906 5.6716 15.6906 5.6716 15.6906 5.72042C15.6908 5.82616 15.6907 5.9319 15.6906 6.03764C15.6906 6.11087 15.6906 6.18411 15.6907 6.25735C15.6907 6.41091 15.6907 6.56447 15.6905 6.71804C15.6904 6.89579 15.6904 7.07354 15.6906 7.25129C15.6907 7.40377 15.6907 7.55624 15.6906 7.70871C15.6906 7.79984 15.6906 7.89097 15.6907 7.9821C15.6908 8.08358 15.6906 8.18506 15.6905 8.28654C15.6906 8.31693 15.6906 8.34732 15.6907 8.37864C15.6905 8.41985 15.6905 8.41985 15.6904 8.46189C15.6904 8.48591 15.6904 8.50992 15.6904 8.53467C15.687 8.58894 15.687 8.58894 15.6597 8.61623C15.6218 8.62047 15.5838 8.62312 15.5458 8.62508C14.6046 8.68452 13.7944 9.05802 13.144 9.7419C12.8362 10.0945 12.6149 10.5024 12.4515 10.9399C12.4442 10.9596 12.4368 10.9792 12.4292 10.9995C12.4208 11.022 12.4208 11.022 12.4123 11.0449C12.3859 11.045 12.3595 11.0451 12.3323 11.0452C11.6898 11.0474 11.0473 11.0499 10.4048 11.0528C10.0941 11.0542 9.78337 11.0554 9.47266 11.0565C9.20185 11.0574 8.93104 11.0584 8.66022 11.0598C8.51683 11.0604 8.37344 11.061 8.23005 11.0614C8.09505 11.0618 7.96006 11.0624 7.82507 11.0632C7.77555 11.0634 7.72604 11.0636 7.67653 11.0636C7.60883 11.0637 7.54115 11.0641 7.47346 11.0646C7.44419 11.0646 7.44419 11.0646 7.41433 11.0645C7.24855 11.0663 7.11234 11.0845 6.98521 11.195C6.89079 11.3061 6.89222 11.3811 6.89407 11.5231C6.90175 11.6117 6.92308 11.6604 6.98179 11.7272C7.12817 11.8323 7.25622 11.8404 7.43218 11.8406C7.46324 11.8408 7.46324 11.8408 7.49493 11.841C7.56436 11.8415 7.63379 11.8417 7.70322 11.8419C7.75297 11.8422 7.80273 11.8425 7.85248 11.8427C7.98762 11.8435 8.12275 11.8441 8.25789 11.8446C8.3991 11.8452 8.5403 11.8459 8.6815 11.8467C8.94892 11.848 9.21633 11.8493 9.48375 11.8504C9.78818 11.8518 10.0926 11.8533 10.397 11.8548C11.0233 11.8579 11.6496 11.8608 12.2758 11.8636C12.2775 11.8953 12.2792 11.9269 12.2809 11.9595C12.2937 12.2008 12.3082 12.4416 12.3304 12.6823C12.3044 12.6824 12.2785 12.6825 12.2517 12.6826C11.6194 12.6848 10.9872 12.6873 10.3549 12.6901C10.0492 12.6915 9.74344 12.6928 9.43769 12.6938C9.17119 12.6947 8.90469 12.6958 8.6382 12.6971C8.4971 12.6978 8.35599 12.6984 8.21489 12.6987C8.08204 12.6991 7.9492 12.6997 7.81636 12.7005C7.76764 12.7007 7.71891 12.7009 7.67019 12.701C7.60357 12.701 7.53697 12.7015 7.47035 12.702C7.45116 12.7019 7.43196 12.7019 7.41219 12.7018C7.24723 12.7037 7.11165 12.7224 6.98521 12.8324C6.89079 12.9434 6.89222 13.0185 6.89407 13.1605C6.90175 13.2491 6.92308 13.2977 6.98179 13.3645C7.1325 13.4727 7.26259 13.4774 7.44363 13.4747C7.46557 13.4745 7.48752 13.4742 7.51013 13.474C7.55824 13.4736 7.60634 13.473 7.65444 13.4724C7.76015 13.4711 7.86586 13.4701 7.97157 13.4691C8.0285 13.4686 8.08543 13.468 8.14236 13.4674C8.50766 13.4639 8.87298 13.4627 9.2383 13.4615C9.59404 13.4602 9.94974 13.4582 10.3055 13.4537C10.588 13.4501 10.8706 13.4483 11.1532 13.4485C11.3027 13.4485 11.4521 13.4477 11.6016 13.4448C11.7423 13.4421 11.8829 13.4417 12.0237 13.443C12.0752 13.4431 12.1267 13.4423 12.1782 13.4406C12.4952 13.4309 12.4952 13.4309 12.6306 13.5009C12.7545 13.6218 12.8247 13.7761 12.898 13.9305C13.2241 14.5432 13.9692 15.0047 14.6142 15.2089C14.9358 15.3055 15.2425 15.3606 15.578 15.3772C15.6597 15.3839 15.6597 15.3839 15.687 15.4112C15.6898 15.4533 15.6907 15.4955 15.6908 15.5377C15.691 15.565 15.6911 15.5924 15.6913 15.6206C15.6913 15.6508 15.6913 15.6811 15.6914 15.7123C15.6915 15.744 15.6916 15.7756 15.6918 15.8083C15.6922 15.9137 15.6924 16.019 15.6925 16.1244C15.6926 16.179 15.6927 16.2335 15.6929 16.2881C15.6932 16.4402 15.6934 16.5923 15.6935 16.7445C15.6936 16.9411 15.6941 17.1378 15.6949 17.3345C15.6955 17.4865 15.6957 17.6385 15.6958 17.7906C15.6958 17.8813 15.696 17.9721 15.6965 18.0629C15.6969 18.1643 15.6969 18.2657 15.6967 18.3671C15.6969 18.3971 15.6972 18.4271 15.6975 18.458C15.6966 18.6086 15.6925 18.7207 15.6051 18.8496C15.4811 18.9614 15.4148 18.9894 15.2497 18.9897C15.2144 18.9898 15.1792 18.9899 15.1428 18.9901C15.1033 18.9901 15.0638 18.99 15.0243 18.99C14.9826 18.9901 14.9409 18.9902 14.8992 18.9903C14.7842 18.9906 14.6692 18.9907 14.5542 18.9908C14.4304 18.9909 14.3065 18.9912 14.1826 18.9914C13.8833 18.9919 13.584 18.9922 13.2847 18.9925C13.1438 18.9926 13.003 18.9927 12.8621 18.9929C12.3941 18.9933 11.926 18.9937 11.458 18.9939C11.3365 18.994 11.2149 18.994 11.0934 18.9941C11.0481 18.9941 11.0481 18.9941 11.0019 18.9941C10.5124 18.9943 10.0229 18.995 9.53344 18.9959C9.03123 18.9968 8.52902 18.9973 8.02681 18.9974C7.7447 18.9975 7.46259 18.9977 7.18048 18.9984C6.94027 18.999 6.70006 18.9992 6.45984 18.9989C6.33723 18.9988 6.21463 18.9989 6.09203 18.9994C5.97982 18.9999 5.86761 18.9999 5.7554 18.9994C5.71478 18.9994 5.67416 18.9995 5.63354 18.9998C5.57835 19.0002 5.52317 18.9999 5.46799 18.9995C5.43733 18.9996 5.40666 18.9996 5.37507 18.9996C5.2355 18.9773 5.15135 18.9069 5.06216 18.8006C4.97999 18.6393 5.00241 18.4457 5.00387 18.2692C5.00382 18.2263 5.00372 18.1833 5.00358 18.1404C5.00334 18.0226 5.00377 17.9048 5.00432 17.787C5.00479 17.6599 5.00463 17.5328 5.00455 17.4057C5.00449 17.1855 5.00484 16.9654 5.00545 16.7452C5.00634 16.4269 5.00662 16.1086 5.00676 15.7903C5.007 15.2739 5.00772 14.7574 5.00876 14.241C5.00976 13.7393 5.01053 13.2377 5.011 12.736C5.01102 12.7051 5.01105 12.6742 5.01108 12.6423C5.01122 12.4872 5.01136 12.332 5.0115 12.1769C5.01263 10.8899 5.01455 9.60299 5.01699 8.31605C5.03186 8.31596 5.04674 8.31587 5.06206 8.31578C5.42445 8.31356 5.78684 8.31104 6.14922 8.3082C6.32447 8.30684 6.49972 8.30558 6.67497 8.30454C6.84413 8.30353 7.01328 8.30227 7.18243 8.30082C7.24694 8.30032 7.31145 8.2999 7.37595 8.29959C7.46637 8.29913 7.55677 8.29833 7.64718 8.29746C7.6738 8.2974 7.70042 8.29735 7.72784 8.29728C7.96637 8.29667 7.96637 8.29667 8.17547 8.19496C8.25403 8.0866 8.29492 8.02821 8.29598 7.89535C8.29625 7.87002 8.29652 7.84469 8.29679 7.81858C8.29695 7.79071 8.2971 7.76284 8.29727 7.73412C8.29754 7.70484 8.29781 7.67555 8.29809 7.64538C8.29895 7.54822 8.29962 7.45106 8.3003 7.3539C8.30086 7.28668 8.30143 7.21946 8.30202 7.15223C8.30353 6.97503 8.30487 6.79782 8.30619 6.62061C8.30756 6.4399 8.30908 6.25918 8.31058 6.07846C8.31352 5.72367 8.3163 5.36888 8.31895 5.01409ZM6.98691 9.5287C6.87944 9.6546 6.86048 9.72389 6.864 9.88495C6.87674 9.98592 6.91427 10.0423 6.98179 10.1171C7.10673 10.2077 7.21349 10.2296 7.36544 10.2301C7.40722 10.2303 7.40722 10.2303 7.44983 10.2306C7.48023 10.2306 7.51062 10.2306 7.54194 10.2307C7.57407 10.2308 7.60621 10.2309 7.63932 10.2311C7.7274 10.2314 7.81547 10.2316 7.90355 10.2317C7.95864 10.2318 8.01373 10.2319 8.06883 10.2321C8.2414 10.2324 8.41397 10.2327 8.58655 10.2328C8.78539 10.2329 8.98422 10.2334 9.18306 10.2342C9.337 10.2348 9.49093 10.2351 9.64487 10.2351C9.73669 10.2351 9.82851 10.2353 9.92034 10.2358C10.0229 10.2362 10.1254 10.2362 10.228 10.236C10.2582 10.2363 10.2883 10.2365 10.3194 10.2368C10.5291 10.2356 10.6929 10.2177 10.8551 10.0728C10.925 9.95841 10.9503 9.86883 10.9387 9.73508C10.892 9.58794 10.8014 9.50686 10.6658 9.4349C10.5726 9.41159 10.4858 9.40414 10.3899 9.40396C10.3624 9.40384 10.335 9.40373 10.3067 9.40361C10.2769 9.40362 10.247 9.40363 10.2163 9.40364C10.1846 9.40355 10.153 9.40346 10.1204 9.40337C10.0157 9.40311 9.91107 9.40305 9.80641 9.40302C9.75204 9.40296 9.69767 9.40289 9.64329 9.40282C9.47235 9.4026 9.30141 9.40253 9.13047 9.40255C8.95442 9.40257 8.77837 9.40228 8.60233 9.40185C8.45092 9.40149 8.29951 9.40135 8.1481 9.40136C8.05779 9.40137 7.96748 9.40127 7.87717 9.401C7.77638 9.40074 7.6756 9.40081 7.57481 9.40098C7.54509 9.40083 7.51537 9.40067 7.48475 9.40051C7.21569 9.40062 7.21569 9.40062 6.98691 9.5287ZM6.98691 14.4407C6.87944 14.5666 6.86048 14.6359 6.864 14.797C6.87674 14.8979 6.91427 14.9543 6.98179 15.0291C7.10567 15.1189 7.2118 15.1416 7.36252 15.1419C7.38972 15.142 7.41692 15.1422 7.44494 15.1423C7.47461 15.1423 7.50428 15.1423 7.53486 15.1422C7.58193 15.1424 7.58193 15.1424 7.62995 15.1425C7.73387 15.1428 7.83779 15.1428 7.9417 15.1429C8.0139 15.143 8.08609 15.143 8.15829 15.1431C8.30971 15.1433 8.46114 15.1434 8.61257 15.1433C8.78733 15.1433 8.96208 15.1436 9.13684 15.144C9.28709 15.1444 9.43734 15.1445 9.58759 15.1445C9.67723 15.1445 9.76687 15.1446 9.85652 15.1449C9.95659 15.1452 10.0567 15.1451 10.1567 15.1449C10.1862 15.1451 10.2157 15.1452 10.2461 15.1454C10.4991 15.148 10.4991 15.148 10.7193 15.0385C10.732 15.0219 10.7448 15.0053 10.7579 14.9882C10.7711 14.9716 10.7842 14.955 10.7978 14.9379C10.8686 14.8371 10.8729 14.7397 10.8568 14.6198C10.7953 14.5013 10.7236 14.4191 10.6112 14.3469C10.456 14.3092 10.2976 14.3156 10.1388 14.3157C10.108 14.3156 10.0771 14.3155 10.0453 14.3154C9.94349 14.3151 9.84164 14.3151 9.73979 14.315C9.6689 14.3149 9.59801 14.3149 9.52711 14.3148C9.37858 14.3146 9.23005 14.3145 9.08152 14.3146C8.91014 14.3146 8.73876 14.3143 8.56738 14.3139C8.40212 14.3135 8.23686 14.3134 8.0716 14.3134C8.00146 14.3133 7.93131 14.3132 7.86117 14.313C7.76307 14.3127 7.66497 14.3128 7.56686 14.313C7.53795 14.3128 7.50904 14.3127 7.47925 14.3125C7.21313 14.3133 7.21313 14.3133 6.98691 14.4407ZM6.98691 16.078C6.87944 16.2039 6.86048 16.2732 6.864 16.4343C6.87674 16.5353 6.91427 16.5916 6.98179 16.6665C7.10567 16.7563 7.2118 16.779 7.36252 16.7793C7.38972 16.7794 7.41692 16.7795 7.44494 16.7796C7.47461 16.7796 7.50428 16.7796 7.53486 16.7796C7.58193 16.7797 7.58193 16.7797 7.62995 16.7799C7.73387 16.7801 7.83779 16.7802 7.9417 16.7802C8.0139 16.7803 8.08609 16.7804 8.15829 16.7805C8.30971 16.7807 8.46114 16.7807 8.61257 16.7807C8.78733 16.7807 8.96208 16.7809 9.13684 16.7814C9.28709 16.7817 9.43734 16.7819 9.58759 16.7819C9.67723 16.7819 9.76687 16.782 9.85652 16.7822C9.95659 16.7825 10.0567 16.7824 10.1567 16.7822C10.1862 16.7824 10.2157 16.7826 10.2461 16.7827C10.4991 16.7853 10.4991 16.7853 10.7193 16.6758C10.732 16.6592 10.7448 16.6426 10.7579 16.6255C10.7711 16.6089 10.7842 16.5923 10.7978 16.5752C10.8686 16.4744 10.8729 16.3771 10.8568 16.2571C10.7953 16.1387 10.7236 16.0565 10.6112 15.9842C10.456 15.9466 10.2976 15.9529 10.1388 15.953C10.108 15.9529 10.0771 15.9528 10.0453 15.9527C9.94349 15.9525 9.84164 15.9524 9.73979 15.9524C9.6689 15.9523 9.59801 15.9522 9.52711 15.9521C9.37858 15.9519 9.23005 15.9519 9.08152 15.9519C8.91014 15.9519 8.73876 15.9516 8.56738 15.9512C8.40212 15.9508 8.23686 15.9507 8.0716 15.9507C8.00146 15.9507 7.93131 15.9506 7.86117 15.9503C7.76307 15.9501 7.66497 15.9502 7.56686 15.9503C7.53795 15.9502 7.50904 15.95 7.47925 15.9499C7.21313 15.9506 7.21313 15.9506 6.98691 16.078Z" fill="#2666EE"/>
<path d="M17.2595 9.92097C17.8207 10.361 18.172 10.9647 18.268 11.6726C18.3446 12.3374 18.1731 13.014 17.7818 13.5585C17.7225 13.6326 17.6611 13.7036 17.5972 13.7738C17.5805 13.7928 17.5638 13.8117 17.5466 13.8312C17.1488 14.257 16.5447 14.5628 15.9599 14.5973C15.1478 14.6131 14.4766 14.4595 13.8634 13.8938C13.3673 13.4139 13.0749 12.7758 13.0594 12.0839C13.053 11.4019 13.2552 10.7366 13.7356 10.2386C13.7762 10.1977 13.8173 10.1574 13.8586 10.1171C13.8811 10.0944 13.9036 10.0717 13.9267 10.0483C14.1833 9.80139 14.5067 9.63389 14.841 9.51676C14.8859 9.50066 14.8859 9.50066 14.9316 9.48424C15.7208 9.24379 16.6095 9.42657 17.2595 9.92097ZM16.2568 11.3403C16.2218 11.3756 16.2218 11.3756 16.186 11.4115C16.1115 11.4864 16.0374 11.5616 15.9633 11.6368C15.9128 11.6877 15.8622 11.7386 15.8117 11.7895C15.688 11.914 15.5646 12.0388 15.4414 12.1638C15.3553 12.1228 15.2988 12.0815 15.2328 12.0122C15.2143 11.9932 15.1958 11.9741 15.1767 11.9545C15.1385 11.9147 15.1004 11.8747 15.0623 11.8347C14.9275 11.6963 14.8066 11.576 14.6074 11.5515C14.4664 11.5694 14.3821 11.6095 14.2867 11.7152C14.2274 11.8009 14.2082 11.8493 14.2048 11.9523C14.2038 11.9727 14.2028 11.9931 14.2017 12.0141C14.2321 12.1913 14.3923 12.3234 14.5144 12.4448C14.5328 12.4632 14.5511 12.4816 14.57 12.5006C14.6087 12.5393 14.6474 12.5779 14.6862 12.6164C14.7455 12.6755 14.8045 12.7348 14.8635 12.7941C14.9012 12.8317 14.9389 12.8694 14.9766 12.907C15.003 12.9335 15.003 12.9335 15.0299 12.9606C15.0465 12.977 15.0631 12.9935 15.0802 13.0104C15.0946 13.0248 15.1091 13.0392 15.124 13.054C15.2093 13.1261 15.286 13.1545 15.397 13.1564C15.4169 13.1572 15.4368 13.158 15.4574 13.1588C15.6109 13.1294 15.7252 13.0057 15.8324 12.899C15.846 12.8857 15.8595 12.8723 15.8734 12.8585C15.9176 12.8147 15.9615 12.7707 16.0055 12.7267C16.0363 12.696 16.0672 12.6653 16.098 12.6346C16.1624 12.5704 16.2267 12.5061 16.2909 12.4417C16.3732 12.3593 16.4557 12.2772 16.5383 12.1952C16.602 12.1319 16.6655 12.0685 16.7289 12.005C16.7593 11.9746 16.7897 11.9443 16.8202 11.9141C16.8628 11.8719 16.9051 11.8294 16.9473 11.7868C16.9715 11.7627 16.9956 11.7386 17.0204 11.7138C17.0915 11.6303 17.1291 11.558 17.1384 11.4485C17.1239 11.2813 17.0704 11.1815 16.9423 11.0722C16.6523 10.9096 16.4504 11.1431 16.2568 11.3403Z" fill="#2666EE"/>
<path d="M7.52758 5.01407C7.52758 5.83356 7.52758 6.65305 7.52758 7.49737C6.69909 7.49737 5.8706 7.49737 5.017 7.49737C5.20122 7.28245 5.20122 7.28245 5.28708 7.19635C5.30652 7.1768 5.32595 7.15725 5.34597 7.13711C5.36673 7.11636 5.38749 7.09561 5.40888 7.07423C5.44232 7.04066 5.44232 7.04066 5.47644 7.0064C5.54963 6.93294 5.62293 6.85959 5.69624 6.78625C5.74727 6.73514 5.7983 6.68402 5.84933 6.63289C5.95598 6.52606 6.0627 6.4193 6.16945 6.31257C6.29294 6.1891 6.41627 6.06548 6.53953 5.94179C6.65828 5.82264 6.77718 5.70364 6.89613 5.5847C6.94671 5.5341 6.99724 5.48345 7.04772 5.43275C7.11801 5.36219 7.18848 5.29181 7.25899 5.22146C7.29046 5.18976 7.29046 5.18976 7.32256 5.15742C7.34169 5.13841 7.36082 5.1194 7.38052 5.09981C7.39716 5.08315 7.4138 5.0665 7.43095 5.04934C7.47301 5.01407 7.47301 5.01407 7.52758 5.01407Z" fill="#2666EE"/>
</svg>
