<svg width="30" height="30" viewBox="0 0 30 30" fill="none" xmlns="http://www.w3.org/2000/svg">
<path d="M14.979 0.00014768C15.072 0.000363854 15.072 0.000363854 15.1668 0.000584395C16.0838 0.00400439 16.98 0.0273091 17.8795 0.221656C17.9757 0.242117 17.9757 0.242117 18.0739 0.262993C20.5572 0.806399 22.8409 1.90143 24.7671 3.56517C24.828 3.61732 24.8889 3.66947 24.9516 3.72321C25.1163 3.86804 25.2767 4.01611 25.4358 4.16701C25.469 4.19833 25.5021 4.22965 25.5363 4.26192C26.0943 4.79303 26.5815 5.35469 27.0407 5.9725C27.0691 6.0098 27.0974 6.04709 27.1266 6.08551C27.612 6.72474 28.0089 7.40041 28.3781 8.11235C28.4043 8.16243 28.4304 8.2125 28.4573 8.26409C29.5363 10.3582 30.0137 12.6355 30.0039 14.9791C30.0038 15.0412 30.0036 15.1033 30.0035 15.1673C30.0002 16.0626 29.9758 16.9313 29.7824 17.8086C29.762 17.9064 29.762 17.9064 29.7411 18.0063C29.2095 20.5193 28.1211 22.8155 26.4389 24.7631C26.3868 24.8239 26.3346 24.8848 26.2809 24.9475C26.136 25.1122 25.988 25.2726 25.8371 25.4318C25.8057 25.4649 25.7744 25.4981 25.7422 25.5322C25.211 26.0903 24.6494 26.5774 24.0316 27.0367C23.9943 27.065 23.957 27.0933 23.9186 27.1225C23.2793 27.6079 22.6037 28.0048 21.8917 28.3741C21.8166 28.4133 21.8166 28.4133 21.74 28.4532C19.6459 29.5322 17.3686 30.0096 15.025 29.9998C14.9629 29.9997 14.9007 29.9996 14.8367 29.9994C13.9415 29.9961 13.0728 29.9718 12.1955 29.7783C12.0976 29.7579 12.0976 29.7579 11.9978 29.737C9.48474 29.2054 7.1886 28.117 5.24101 26.4348C5.18015 26.3827 5.11929 26.3305 5.05659 26.2768C4.8919 26.132 4.73146 25.9839 4.5723 25.833C4.53916 25.8017 4.50602 25.7703 4.47187 25.7381C3.91381 25.207 3.42668 24.6453 2.96742 24.0275C2.93908 23.9902 2.91074 23.9529 2.88154 23.9145C2.3962 23.2753 1.9993 22.5996 1.63001 21.8876C1.59082 21.8125 1.59082 21.8125 1.55083 21.7359C0.477333 19.6524 -0.00541427 17.3787 4.57804e-05 15.046C0.00010437 14.9845 0.000162959 14.923 0.000223323 14.8597C0.00991153 11.7645 0.935535 8.75465 2.76681 6.23999C2.80682 6.18452 2.80682 6.18452 2.84765 6.12793C3.27006 5.54702 3.74089 5.01897 4.23795 4.50136C4.27054 4.46695 4.30312 4.43255 4.33669 4.3971C4.84377 3.86308 5.38669 3.40323 5.97658 2.96334C6.01397 2.9349 6.05136 2.90647 6.08988 2.87717C6.72901 2.39195 7.40464 1.99515 8.11643 1.62593C8.1665 1.5998 8.21658 1.57367 8.26816 1.54675C10.3606 0.46862 12.6371 -0.00965954 14.979 0.00014768Z" fill="#1D1D1D"/>
<path d="M8.0498 10.1853C15.0451 10.1853 22.0404 10.1853 29.2477 10.1853C29.4564 10.853 29.6433 11.4734 29.7659 12.1538C29.7798 12.2269 29.7937 12.2999 29.808 12.3752C29.923 12.9919 29.9934 13.5921 29.9969 14.2195C29.9973 14.2772 29.9978 14.3349 29.9983 14.3943C30.0134 16.7776 30.0134 16.7776 29.7827 17.8085C29.7595 17.9139 29.7595 17.9139 29.7359 18.0214C29.4478 19.3143 29.4478 19.3143 29.2477 19.8146C22.2524 19.8146 15.2571 19.8146 8.0498 19.8146C8.0498 16.637 8.0498 13.4593 8.0498 10.1853Z" fill="#FBFBFB"/>
<path d="M14.9787 0.000157363C15.0407 0.000301478 15.1027 0.000445594 15.1666 0.000594077C16.0835 0.00401407 16.9797 0.0273187 17.8792 0.221665C17.9754 0.242127 17.9754 0.242127 18.0736 0.263002C20.5569 0.806409 22.8407 1.90144 24.7669 3.56518C24.8277 3.61733 24.8886 3.66948 24.9513 3.72322C25.116 3.86805 25.2764 4.01612 25.4356 4.16702C25.4687 4.19834 25.5019 4.22966 25.536 4.26193C26.0941 4.79304 26.5812 5.3547 27.0405 5.97251C27.0688 6.00981 27.0971 6.0471 27.1263 6.08552C27.7605 6.92076 28.2497 7.82942 28.7039 8.77271C28.7277 8.8219 28.7516 8.8711 28.7762 8.92178C28.9723 9.33872 29.0986 9.73947 29.2472 10.1853C22.2519 10.1853 15.2566 10.1853 8.04929 10.1853C8.02722 7.38281 8.00516 4.58027 7.98242 1.69281C9.61989 0.913068 9.61989 0.913068 10.1808 0.735731C10.2466 0.714386 10.3125 0.69304 10.3804 0.671048C11.8924 0.195159 13.399 -0.00645807 14.9787 0.000157363Z" fill="#32AB45"/>
<path d="M8.04956 1.75977C8.07163 10.5204 8.0937 19.2811 8.11643 28.3073C7.66404 28.1565 7.66404 28.1565 7.44329 28.0231C7.37045 27.9791 7.37045 27.9791 7.29614 27.9343C7.24549 27.9029 7.19483 27.8715 7.14263 27.8392C7.08952 27.8064 7.0364 27.7737 6.98168 27.7399C6.50968 27.4445 6.07305 27.1221 5.64223 26.7693C5.60792 26.7418 5.57362 26.7142 5.53827 26.6859C4.60912 25.9399 3.75774 25.1023 3.0511 24.1413C2.9676 24.0278 2.88257 23.9156 2.79737 23.8035C2.34531 23.1994 1.97707 22.5568 1.63001 21.8877C1.59082 21.8126 1.59082 21.8126 1.55083 21.736C0.477333 19.6525 -0.00541427 17.3788 4.57804e-05 15.0461C0.00010437 14.9846 0.000162959 14.9231 0.000223323 14.8598C0.00991153 11.7646 0.935535 8.75475 2.76681 6.24008C2.80682 6.18461 2.80682 6.18461 2.84765 6.12802C3.27006 5.54712 3.74089 5.01906 4.23795 4.50145C4.27054 4.46704 4.30312 4.43264 4.33669 4.39719C4.84359 3.86335 5.38612 3.40231 5.97658 2.96343C6.0348 2.91971 6.0348 2.91971 6.09419 2.87511C7.58548 1.75977 7.58548 1.75977 8.04956 1.75977Z" fill="#E82B2B"/>
</svg>
