<svg width="132" height="132" viewBox="0 0 132 132" fill="none" xmlns="http://www.w3.org/2000/svg">
<path d="M66 12.375C55.394 12.375 45.0262 15.5201 36.2076 21.4124C27.389 27.3048 20.5157 35.6799 16.457 45.4786C12.3982 55.2773 11.3363 66.0595 13.4054 76.4617C15.4745 86.864 20.5818 96.419 28.0814 103.919C35.581 111.418 45.1361 116.525 55.5383 118.595C65.9405 120.664 76.7227 119.602 86.5214 115.543C96.3201 111.484 104.695 104.611 110.588 95.7924C116.48 86.9739 119.625 76.606 119.625 66C119.61 51.7824 113.955 38.1514 103.902 28.098C93.8487 18.0446 80.2177 12.39 66 12.375ZM72.1875 90.75H70.125V94.875C70.125 95.969 69.6904 97.0182 68.9168 97.7918C68.1433 98.5654 67.094 99 66 99C64.906 99 63.8568 98.5654 63.0832 97.7918C62.3096 97.0182 61.875 95.969 61.875 94.875V90.75H53.625C52.531 90.75 51.4818 90.3154 50.7082 89.5418C49.9346 88.7682 49.5 87.719 49.5 86.625C49.5 85.531 49.9346 84.4818 50.7082 83.7082C51.4818 82.9346 52.531 82.5 53.625 82.5H72.1875C73.8286 82.5 75.4024 81.8481 76.5627 80.6877C77.7231 79.5273 78.375 77.9535 78.375 76.3125C78.375 74.6715 77.7231 73.0977 76.5627 71.9373C75.4024 70.7769 73.8286 70.125 72.1875 70.125H59.8125C55.9835 70.125 52.3112 68.6039 49.6037 65.8964C46.8961 63.1888 45.375 59.5166 45.375 55.6875C45.375 51.8584 46.8961 48.1862 49.6037 45.4786C52.3112 42.7711 55.9835 41.25 59.8125 41.25H61.875V37.125C61.875 36.031 62.3096 34.9818 63.0832 34.2082C63.8568 33.4346 64.906 33 66 33C67.094 33 68.1433 33.4346 68.9168 34.2082C69.6904 34.9818 70.125 36.031 70.125 37.125V41.25H78.375C79.469 41.25 80.5183 41.6846 81.2918 42.4582C82.0654 43.2318 82.5 44.281 82.5 45.375C82.5 46.469 82.0654 47.5182 81.2918 48.2918C80.5183 49.0654 79.469 49.5 78.375 49.5H59.8125C58.1715 49.5 56.5977 50.1519 55.4373 51.3123C54.2769 52.4727 53.625 54.0465 53.625 55.6875C53.625 57.3285 54.2769 58.9023 55.4373 60.0627C56.5977 61.2231 58.1715 61.875 59.8125 61.875H72.1875C76.0166 61.875 79.6888 63.3961 82.3964 66.1036C85.1039 68.8112 86.625 72.4834 86.625 76.3125C86.625 80.1416 85.1039 83.8138 82.3964 86.5214C79.6888 89.2289 76.0166 90.75 72.1875 90.75Z" fill="white"/>
</svg>
