<svg width="121" height="120" viewBox="0 0 121 120" fill="none" xmlns="http://www.w3.org/2000/svg">
<rect x="39.8467" y="52.8479" width="72.5915" height="35.5208" rx="17.7604" transform="rotate(-19.9652 39.8467 52.8479)" fill="#79C3E3"/>
<rect x="69.9984" y="39.4902" width="72.5915" height="35.5208" rx="17.7604" transform="rotate(58.9362 69.9984 39.4902)" fill="#79C3E3"/>
<rect width="72.5915" height="35.5208" rx="17.7604" transform="matrix(-0.498994 0.866605 -0.866605 -0.498996 82.5837 55.6695)" fill="#F3B1BF"/>
<rect x="68.7044" y="84.8428" width="72.5914" height="35.5208" rx="17.7604" transform="rotate(-161.165 68.7044 84.8428)" fill="#F3B1BF"/>
<ellipse cx="62.1039" cy="19.7343" rx="19.7342" ry="19.7343" fill="#79C3E3"/>
<path d="M78.0002 61.0266C78.0002 69.9439 68.5317 82.5549 60.957 93.319C55.2759 84.3489 43.9138 69.9439 43.9138 61.0266C43.9138 52.1093 51.5443 44.8804 60.957 44.8804C70.3697 44.8804 78.0002 52.1093 78.0002 61.0266Z" fill="#E496A7"/>
</svg>
