<svg width="102" height="137" viewBox="0 0 102 137" fill="none" xmlns="http://www.w3.org/2000/svg">
<path d="M86.0625 21.4062H15.9375C14.2467 21.4063 12.6252 22.3084 11.4297 23.9141C10.2341 25.5199 9.5625 27.6978 9.5625 29.9688V107.031C9.5625 109.302 10.2341 111.48 11.4297 113.086C12.6252 114.692 14.2467 115.594 15.9375 115.594H86.0625C87.7533 115.594 89.3748 114.692 90.5703 113.086C91.7658 111.48 92.4375 109.302 92.4375 107.031V29.9688C92.4375 27.6978 91.7658 25.5199 90.5703 23.9141C89.3748 22.3084 87.7533 21.4063 86.0625 21.4062ZM70.125 89.9062H31.875C31.0296 89.9062 30.2189 89.4552 29.6211 88.6523C29.0233 87.8494 28.6875 86.7605 28.6875 85.625C28.6875 84.4895 29.0233 83.4006 29.6211 82.5977C30.2189 81.7948 31.0296 81.3438 31.875 81.3438H70.125C70.9704 81.3438 71.7811 81.7948 72.3789 82.5977C72.9767 83.4006 73.3125 84.4895 73.3125 85.625C73.3125 86.7605 72.9767 87.8494 72.3789 88.6523C71.7811 89.4552 70.9704 89.9062 70.125 89.9062ZM70.125 72.7812H31.875C31.0296 72.7812 30.2189 72.3302 29.6211 71.5273C29.0233 70.7244 28.6875 69.6355 28.6875 68.5C28.6875 67.3645 29.0233 66.2756 29.6211 65.4727C30.2189 64.6698 31.0296 64.2188 31.875 64.2188H70.125C70.9704 64.2188 71.7811 64.6698 72.3789 65.4727C72.9767 66.2756 73.3125 67.3645 73.3125 68.5C73.3125 69.6355 72.9767 70.7244 72.3789 71.5273C71.7811 72.3302 70.9704 72.7812 70.125 72.7812ZM70.125 55.6562H31.875C31.0296 55.6562 30.2189 55.2052 29.6211 54.4023C29.0233 53.5994 28.6875 52.5105 28.6875 51.375C28.6875 50.2395 29.0233 49.1506 29.6211 48.3477C30.2189 47.5448 31.0296 47.0938 31.875 47.0938H70.125C70.9704 47.0938 71.7811 47.5448 72.3789 48.3477C72.9767 49.1506 73.3125 50.2395 73.3125 51.375C73.3125 52.5105 72.9767 53.5994 72.3789 54.4023C71.7811 55.2052 70.9704 55.6562 70.125 55.6562Z" fill="white"/>
</svg>
