<svg width="132" height="132" viewBox="0 0 132 132" fill="none" xmlns="http://www.w3.org/2000/svg">
<path d="M106.59 8.25H94.2148V4.125C94.2148 3.03098 93.7803 1.98177 93.0067 1.20818C92.2331 0.434597 91.1839 0 90.0898 0C88.9958 0 87.9466 0.434597 87.173 1.20818C86.3994 1.98177 85.9648 3.03098 85.9648 4.125V8.25H44.7148V4.125C44.7148 3.03098 44.2802 1.98177 43.5067 1.20818C42.7331 0.434597 41.6839 0 40.5898 0C39.4958 0 38.4466 0.434597 37.673 1.20818C36.8994 1.98177 36.4648 3.03098 36.4648 4.125V8.25H24.0898C21.9018 8.25 19.8034 9.11919 18.2562 10.6664C16.709 12.2135 15.8398 14.312 15.8398 16.5V99C15.8398 101.188 16.709 103.286 18.2562 104.834C19.8034 106.381 21.9018 107.25 24.0898 107.25H106.59C108.778 107.25 110.876 106.381 112.423 104.834C113.971 103.286 114.84 101.188 114.84 99V16.5C114.84 14.312 113.971 12.2135 112.423 10.6664C110.876 9.11919 108.778 8.25 106.59 8.25ZM86.8208 60.6684L62.0708 85.4184C61.6877 85.802 61.2327 86.1062 60.732 86.3138C60.2312 86.5214 59.6944 86.6282 59.1523 86.6282C58.6103 86.6282 58.0735 86.5214 57.5727 86.3138C57.0719 86.1062 56.617 85.802 56.2339 85.4184L43.8589 73.0434C43.0849 72.2694 42.6501 71.2196 42.6501 70.125C42.6501 69.0304 43.0849 67.9806 43.8589 67.2066C44.6329 66.4325 45.6827 65.9977 46.7773 65.9977C47.872 65.9977 48.9218 66.4325 49.6958 67.2066L59.1523 76.6683L80.9839 54.8316C81.3672 54.4483 81.8222 54.1443 82.3229 53.9369C82.8236 53.7295 83.3603 53.6227 83.9023 53.6227C84.4444 53.6227 84.981 53.7295 85.4818 53.9369C85.9825 54.1443 86.4375 54.4483 86.8208 54.8316C87.204 55.2148 87.508 55.6698 87.7155 56.1706C87.9229 56.6713 88.0296 57.208 88.0296 57.75C88.0296 58.292 87.9229 58.8287 87.7155 59.3294C87.508 59.8302 87.204 60.2852 86.8208 60.6684ZM24.0898 33V16.5H36.4648V20.625C36.4648 21.719 36.8994 22.7682 37.673 23.5418C38.4466 24.3154 39.4958 24.75 40.5898 24.75C41.6839 24.75 42.7331 24.3154 43.5067 23.5418C44.2802 22.7682 44.7148 21.719 44.7148 20.625V16.5H85.9648V20.625C85.9648 21.719 86.3994 22.7682 87.173 23.5418C87.9466 24.3154 88.9958 24.75 90.0898 24.75C91.1839 24.75 92.2331 24.3154 93.0067 23.5418C93.7803 22.7682 94.2148 21.719 94.2148 20.625V16.5H106.59V33H24.0898Z" fill="white"/>
</svg>
