<svg width="132" height="132" viewBox="0 0 132 132" fill="none" xmlns="http://www.w3.org/2000/svg">
<path d="M119.625 78.375C119.625 75.2873 118.759 72.2615 117.125 69.6417C115.491 67.0219 113.154 64.9131 110.381 63.5553C107.608 62.1974 104.51 61.6448 101.438 61.9605C98.3668 62.2761 95.4454 63.4473 93.0065 65.3408C90.5676 67.2343 88.7089 69.7741 87.6417 72.6715C86.5746 75.569 86.3419 78.7077 86.97 81.7308C87.5982 84.7539 89.062 87.5401 91.195 89.7726C93.3281 92.005 96.0447 93.5942 99.0361 94.3594C99.0133 94.5303 99.0012 94.7025 99 94.875C99 99.2511 97.2616 103.448 94.1673 106.542C91.0729 109.637 86.8761 111.375 82.5 111.375H70.125C65.7489 111.375 61.5521 109.637 58.4577 106.542C55.3634 103.448 53.625 99.2511 53.625 94.875V73.9819C69.8517 71.9194 82.5 57.7552 82.5 40.822V20.625C82.5 18.437 81.6308 16.3385 80.0836 14.7914C78.5365 13.2442 76.438 12.375 74.25 12.375H66C64.906 12.375 63.8568 12.8096 63.0832 13.5832C62.3096 14.3568 61.875 15.406 61.875 16.5C61.875 17.594 62.3096 18.6432 63.0832 19.4168C63.8568 20.1904 64.906 20.625 66 20.625H74.25V40.822C74.25 54.5273 63.293 65.8247 49.83 66C46.5521 66.0437 43.2982 65.4358 40.2572 64.2116C37.2162 62.9874 34.4487 61.1712 32.1154 58.8686C29.7821 56.566 27.9294 53.8228 26.665 50.7983C25.4007 47.7737 24.7497 44.5282 24.75 41.25V20.625H33C34.094 20.625 35.1432 20.1904 35.9168 19.4168C36.6904 18.6432 37.125 17.594 37.125 16.5C37.125 15.406 36.6904 14.3568 35.9168 13.5832C35.1432 12.8096 34.094 12.375 33 12.375H24.75C22.562 12.375 20.4635 13.2442 18.9164 14.7914C17.3692 16.3385 16.5 18.437 16.5 20.625V41.25C16.501 49.287 19.435 57.0474 24.7514 63.0749C30.0677 69.1023 37.401 72.9824 45.375 73.987V94.875C45.3818 101.437 47.9916 107.728 52.6316 112.368C57.2717 117.008 63.563 119.618 70.125 119.625H82.5C89.062 119.618 95.3533 117.008 99.9934 112.368C104.633 107.728 107.243 101.437 107.25 94.875C107.249 94.7025 107.237 94.5303 107.214 94.3594C110.764 93.4513 113.91 91.3875 116.158 88.4933C118.405 85.5991 119.625 82.0392 119.625 78.375ZM103.125 82.5C102.309 82.5 101.512 82.2581 100.833 81.8048C100.155 81.3516 99.6262 80.7073 99.314 79.9536C99.0018 79.1998 98.9201 78.3704 99.0793 77.5703C99.2384 76.7701 99.6313 76.0351 100.208 75.4582C100.785 74.8813 101.52 74.4884 102.32 74.3293C103.12 74.1701 103.95 74.2518 104.704 74.564C105.457 74.8762 106.102 75.4049 106.555 76.0833C107.008 76.7616 107.25 77.5592 107.25 78.375C107.25 79.469 106.815 80.5182 106.042 81.2918C105.268 82.0654 104.219 82.5 103.125 82.5Z" fill="white"/>
</svg>
