<svg width="115" height="111" viewBox="0 0 115 111" fill="none" xmlns="http://www.w3.org/2000/svg">
<circle cx="59.5" cy="55.5" r="55" fill="white" stroke="#074F4F"/>
<rect width="36" height="36" transform="translate(0 6)" fill="white"/>
<path d="M15.3545 9.75C14.1557 9.75 13.0431 10.389 12.4395 11.4243L10.7915 14.25H7.875C5.19605 14.25 3 16.446 3 19.125V33.375C3 36.054 5.19605 38.25 7.875 38.25H28.125C30.804 38.25 33 36.054 33 33.375V19.125C33 16.446 30.804 14.25 28.125 14.25H25.2085L23.5605 11.4243C22.9569 10.389 21.8443 9.75 20.6455 9.75H15.3545ZM15.3545 12H20.6455C21.0472 12 21.4149 12.212 21.6167 12.5581L23.5913 15.9419C23.6903 16.1116 23.8321 16.2525 24.0025 16.3504C24.1729 16.4483 24.366 16.4999 24.5625 16.5H28.125C29.5875 16.5 30.75 17.6625 30.75 19.125V33.375C30.75 34.8375 29.5875 36 28.125 36H7.875C6.41245 36 5.25 34.8375 5.25 33.375V19.125C5.25 17.6625 6.41245 16.5 7.875 16.5H11.4375C11.634 16.4999 11.8271 16.4483 11.9975 16.3504C12.1679 16.2525 12.3097 16.1116 12.4087 15.9419L14.3833 12.5581C14.5851 12.212 14.9528 12 15.3545 12ZM18 18.75C14.2854 18.75 11.25 21.7854 11.25 25.5C11.25 29.2146 14.2854 32.25 18 32.25C21.7146 32.25 24.75 29.2146 24.75 25.5C24.75 21.7854 21.7146 18.75 18 18.75ZM18 21C20.4986 21 22.5 23.0014 22.5 25.5C22.5 27.9986 20.4986 30 18 30C15.5014 30 13.5 27.9986 13.5 25.5C13.5 23.0014 15.5014 21 18 21Z" fill="#074F4F"/>
</svg>
