<svg width="30" height="30" viewBox="0 0 30 30" fill="none" xmlns="http://www.w3.org/2000/svg">
<path d="M14.953 7.44753e-05C15.0063 0.000125752 15.0595 0.000177028 15.1144 0.000229859C16.6307 0.00500965 18.05 0.222096 19.5033 0.665786C19.5474 0.678838 19.5914 0.691889 19.6368 0.705336C20.26 0.890765 20.8473 1.15074 21.4346 1.4266C21.4745 1.44523 21.5144 1.46387 21.5555 1.48307C22.9971 2.16179 24.2959 3.07913 25.4317 4.19652C25.5308 4.29382 25.6311 4.38978 25.7315 4.48563C26.1488 4.88799 26.5153 5.31401 26.8628 5.77765C26.9308 5.86773 27.0005 5.95653 27.0703 6.04521C28.8438 8.32498 29.9759 11.3874 29.991 14.2841C29.9914 14.3369 29.9918 14.3897 29.9922 14.444C29.9933 14.6137 29.9936 14.7833 29.9937 14.953C29.9938 15.0399 29.9938 15.0399 29.9939 15.1285C29.9929 15.9763 29.9723 16.8041 29.8035 17.6378C29.7929 17.6915 29.7822 17.7452 29.7712 17.8006C29.6945 18.1781 29.6068 18.5522 29.5109 18.9253C29.4996 18.9695 29.4883 19.0137 29.4767 19.0592C29.2153 20.0579 28.8172 21.0094 28.3371 21.9219C28.2846 22.0219 28.2333 22.1226 28.182 22.2232C27.9191 22.7293 27.6145 23.1999 27.287 23.6658C27.2604 23.7037 27.2337 23.7417 27.2063 23.7808C26.7863 24.3737 26.3213 24.9088 25.8141 25.4285C25.7123 25.533 25.6114 25.6383 25.5107 25.7438C25.1122 26.1568 24.6912 26.5213 24.2315 26.8645C24.1265 26.9432 24.0227 27.0233 23.9189 27.1036C21.647 28.8395 18.6034 29.9828 15.7319 29.9983C15.6806 29.9987 15.6293 29.9991 15.5764 29.9995C13.1606 30.0145 10.88 29.6836 8.67632 28.6403C8.63937 28.6231 8.60241 28.6058 8.56433 28.5881C7.48784 28.0827 6.4961 27.4599 5.57454 26.709C5.53944 26.6807 5.50434 26.6524 5.46818 26.6232C4.64719 25.9563 3.8774 25.2083 3.23358 24.3681C3.18846 24.3122 3.14335 24.2564 3.09687 24.1989C1.23404 21.8601 0.0185411 18.731 0.00286298 15.7243C0.00245248 15.6715 0.00204197 15.6187 0.00161902 15.5644C0.000599187 15.3947 0.000223032 15.2251 0.000119663 15.0554C8.01744e-05 14.9975 4.06854e-05 14.9396 0 14.8799C0.000920032 14.0319 0.0220852 13.2045 0.190323 12.3706C0.200677 12.3178 0.211032 12.2651 0.2217 12.2107C0.297716 11.8318 0.386178 11.4571 0.482944 11.0831C0.495212 11.0351 0.507481 10.9871 0.520121 10.9377C0.967641 9.22647 1.76938 7.58539 2.82391 6.16706C2.86315 6.11417 2.86315 6.11417 2.90318 6.06021C3.2935 5.53908 3.71782 5.05499 4.16996 4.5869C4.20502 4.55057 4.24007 4.51423 4.27618 4.4768C4.7247 4.01439 5.17775 3.57282 5.69159 3.18232C5.72321 3.15794 5.75483 3.13355 5.78741 3.10843C6.37247 2.65868 6.98484 2.26492 7.62289 1.89479C7.68094 1.86065 7.68094 1.86065 7.74016 1.82581C8.91318 1.14274 10.2242 0.676592 11.544 0.373166C11.6191 0.355894 11.6191 0.355894 11.6957 0.338274C11.8448 0.304767 11.9942 0.272695 12.1439 0.241487C12.1859 0.232627 12.228 0.223767 12.2713 0.214639C13.1588 0.0414321 14.0512 -0.00206955 14.953 7.44753e-05Z" fill="#F2F3F4"/>
<path d="M14.953 7.44753e-05C15.0062 0.000125752 15.0595 0.000177028 15.1143 0.000229859C16.6306 0.00500965 18.05 0.222096 19.5033 0.665786C19.5473 0.678838 19.5914 0.691889 19.6368 0.705336C20.2599 0.890765 20.8473 1.15074 21.4346 1.4266C21.4745 1.44523 21.5144 1.46387 21.5555 1.48307C22.9971 2.16179 24.2959 3.07913 25.4317 4.19652C25.5308 4.29382 25.631 4.38978 25.7315 4.48563C26.1488 4.88799 26.5153 5.31401 26.8628 5.77765C26.9308 5.86773 27.0004 5.95653 27.0702 6.04521C28.5605 7.96089 29.4632 10.2992 29.8511 12.6815C29.8583 12.7259 29.8656 12.7703 29.8731 12.816C29.8794 12.8583 29.8858 12.9006 29.8924 12.9442C29.9007 12.9987 29.9007 12.9987 29.9091 13.0542C29.926 13.2549 29.9205 13.4568 29.9205 13.6581C20.0709 13.6581 10.2213 13.6581 0.0732422 13.6581C0.141869 12.5601 0.141869 12.5601 0.25613 12.0158C0.269021 11.9537 0.281912 11.8915 0.295194 11.8275C0.732745 9.79242 1.57987 7.84022 2.82388 6.16706C2.86312 6.11417 2.86312 6.11417 2.90315 6.06021C3.29347 5.53908 3.71778 5.05499 4.16993 4.5869C4.20498 4.55057 4.24004 4.51423 4.27615 4.4768C4.72467 4.01439 5.17772 3.57282 5.69156 3.18232C5.72318 3.15794 5.7548 3.13355 5.78737 3.10843C6.37243 2.65868 6.9848 2.26492 7.62286 1.89479C7.68091 1.86065 7.68091 1.86065 7.74013 1.82581C8.91315 1.14274 10.2242 0.676592 11.544 0.373166C11.6191 0.355894 11.6191 0.355894 11.6957 0.338274C11.8448 0.304767 11.9942 0.272695 12.1438 0.241487C12.1859 0.232627 12.228 0.223767 12.2713 0.214639C13.1588 0.0414321 14.0511 -0.00206955 14.953 7.44753e-05Z" fill="#2A3A91"/>
<path d="M0.402075 13.6504C0.44979 13.6505 0.497505 13.6506 0.546666 13.6508C0.597109 13.6507 0.647553 13.6506 0.699525 13.6505C0.870769 13.6503 1.04201 13.6505 1.21325 13.6507C1.33638 13.6506 1.4595 13.6505 1.58262 13.6504C1.92269 13.6502 2.26275 13.6503 2.60281 13.6505C2.96888 13.6506 3.33494 13.6504 3.70101 13.6503C4.37727 13.65 5.05353 13.65 5.72979 13.6502C6.35443 13.6503 6.97908 13.6504 7.60372 13.6503C7.64509 13.6503 7.68645 13.6503 7.72907 13.6503C7.89697 13.6503 8.06487 13.6503 8.23278 13.6502C9.80917 13.6501 11.3856 13.6502 12.962 13.6505C14.3638 13.6508 15.7656 13.6508 17.1675 13.6505C18.7409 13.6502 20.3143 13.6501 21.8878 13.6503C22.0554 13.6503 22.223 13.6503 22.3906 13.6503C22.4318 13.6503 22.4731 13.6503 22.5156 13.6503C23.14 13.6504 23.7644 13.6503 24.3888 13.6502C25.0985 13.65 25.8081 13.65 26.5178 13.6504C26.8802 13.6505 27.2427 13.6506 27.6052 13.6504C27.9364 13.6502 28.2676 13.6503 28.5989 13.6506C28.7193 13.6507 28.8397 13.6506 28.9601 13.6505C29.1226 13.6503 29.2851 13.6505 29.4476 13.6508C29.5192 13.6506 29.5192 13.6506 29.5922 13.6504C29.9141 13.6515 29.9141 13.6515 29.9793 13.7167C29.9851 13.7969 29.9868 13.8774 29.9869 13.9578C29.9872 14.0346 29.9872 14.0346 29.9875 14.1129C29.9873 14.1686 29.9872 14.2242 29.9871 14.2816C29.9872 14.3384 29.9872 14.3952 29.9873 14.4537C29.9873 14.5741 29.9872 14.6944 29.987 14.8148C29.9866 14.9995 29.9869 15.1842 29.9873 15.3689C29.9873 15.4856 29.9872 15.6024 29.9871 15.7191C29.9872 15.7746 29.9873 15.8301 29.9875 15.8874C29.9873 15.9387 29.9871 15.9901 29.9869 16.043C29.9868 16.1109 29.9868 16.1109 29.9868 16.1803C29.9793 16.2917 29.9793 16.2917 29.9208 16.4088C20.0712 16.4088 10.2216 16.4088 0.0734918 16.4088C0.00554013 16.2729 0.00755043 16.1942 0.00739499 16.043C0.00721051 15.9916 0.00702601 15.9403 0.00683594 15.8874C0.0069544 15.8318 0.0070729 15.7763 0.00719495 15.7191C0.00713896 15.6622 0.00708297 15.6054 0.00702528 15.5468C0.00698542 15.4265 0.00709365 15.3062 0.00733781 15.1859C0.0076512 15.0011 0.00734075 14.8163 0.00696634 14.6314C0.00700501 14.5148 0.00707998 14.3982 0.00719495 14.2816C0.00707649 14.2259 0.00695799 14.1702 0.00683594 14.1129C0.00702041 14.0617 0.00720492 14.0106 0.00739499 13.9578C0.00744155 13.9126 0.00748808 13.8673 0.00753606 13.8207C0.0243031 13.586 0.209414 13.651 0.402075 13.6504Z" fill="#F2F3F4"/>
<path d="M0.0732422 16.4092C9.92285 16.4092 19.7725 16.4092 29.9205 16.4092C29.8825 16.98 29.8372 17.4961 29.7194 18.0479C29.7067 18.1102 29.6939 18.1726 29.6809 18.2369C29.616 18.5503 29.5406 18.8511 29.4524 19.1598C19.9118 19.1598 10.3711 19.1598 0.541435 19.1598C0.0732422 17.1934 0.0732422 17.1934 0.0732422 16.4092Z" fill="#E33526"/>
<path d="M0.600586 19.1592C10.1026 19.1592 19.6045 19.1592 29.3945 19.1592C29.2626 19.8184 29.2626 19.8184 29.178 20.0396C29.1591 20.0892 29.1402 20.1388 29.1207 20.1899C29.1012 20.2396 29.0817 20.2894 29.0616 20.3406C29.0432 20.3893 29.0249 20.4379 29.0059 20.488C28.8256 20.9555 28.6129 21.3941 28.3995 21.8513C19.5542 21.8513 10.7089 21.8513 1.5955 21.8513C0.600586 19.5901 0.600586 19.5901 0.600586 19.1592Z" fill="#F2F3F4"/>
<path d="M1.65332 21.8516C10.46 21.8516 19.2667 21.8516 28.3403 21.8516C28.1322 22.3719 27.8534 22.857 27.527 23.3125C27.3879 23.5066 27.272 23.6906 27.1798 23.9111C27.0375 24.2099 26.8745 24.4337 26.5846 24.6022C25.9321 24.7778 25.2224 24.7304 24.5523 24.722C24.2696 24.7195 23.987 24.7225 23.7043 24.7247C23.1511 24.7282 22.5981 24.7266 22.045 24.7233C21.5954 24.7207 21.1459 24.72 20.6963 24.7207C20.6002 24.7208 20.6002 24.7208 20.5022 24.7209C20.372 24.7211 20.2419 24.7213 20.1118 24.7216C18.8924 24.7233 17.6731 24.7195 16.4537 24.7136C15.4079 24.7087 14.3621 24.7082 13.3163 24.711C12.101 24.7143 10.8858 24.7151 9.67054 24.7119C9.54092 24.7115 9.4113 24.7112 9.28168 24.7108C9.21791 24.7107 9.15414 24.7105 9.08844 24.7103C8.63944 24.7093 8.19047 24.71 7.74147 24.7113C7.19423 24.7128 6.64707 24.7115 6.09984 24.7068C5.82071 24.7045 5.54171 24.7033 5.26257 24.7055C5.00682 24.7074 4.75134 24.7058 4.49563 24.7015C4.40333 24.7005 4.311 24.7008 4.21871 24.7025C3.54843 24.714 3.54843 24.714 3.31498 24.5267C3.11661 24.3198 2.97031 24.0866 2.8238 23.8414C2.76825 23.7617 2.71224 23.6824 2.65509 23.6039C2.61099 23.5382 2.56724 23.4723 2.52387 23.4061C2.50014 23.3702 2.47641 23.3343 2.45197 23.2973C2.15048 22.8358 1.85835 22.3641 1.65332 21.8516Z" fill="#E33426"/>
<path d="M14.7041 10.9658C19.571 10.9658 24.4378 10.9658 29.4522 10.9658C29.5798 11.3486 29.6785 11.691 29.7521 12.0814C29.762 12.1298 29.7719 12.1782 29.7821 12.2281C29.8745 12.7109 29.889 13.1551 29.9204 13.6579C24.899 13.6579 19.8776 13.6579 14.7041 13.6579C14.7041 12.7695 14.7041 11.8811 14.7041 10.9658Z" fill="#E03226"/>
<path d="M14.7041 8.21582C19.2233 8.21582 23.7426 8.21582 28.3987 8.21582C28.6566 8.73145 28.8935 9.21933 29.0901 9.75574C29.1235 9.84406 29.1235 9.84406 29.1576 9.93417C29.2868 10.2819 29.3702 10.5977 29.4522 10.9665C24.5853 10.9665 19.7184 10.9665 14.7041 10.9665C14.7041 10.0587 14.7041 9.15104 14.7041 8.21582Z" fill="#E7E4E3"/>
<path d="M26.7227 5.57276C26.7543 5.61452 26.786 5.65628 26.8186 5.69931C26.8651 5.758 26.9117 5.81669 26.9596 5.87716C27.2611 6.28049 27.543 6.69281 27.8062 7.12217C27.8319 7.16405 27.8577 7.20593 27.8842 7.24908C28.0747 7.56531 28.2324 7.88316 28.3987 8.21584C23.8795 8.21584 19.3603 8.21584 14.7041 8.21584C14.7041 7.32745 14.7041 6.43905 14.7041 5.52373C16.2491 5.51082 17.794 5.49887 19.339 5.48871C20.0563 5.48396 20.7737 5.47878 21.491 5.47255C22.1161 5.46713 22.7412 5.46253 23.3663 5.45893C23.6974 5.45699 24.0285 5.45464 24.3595 5.4513C24.671 5.44817 24.9825 5.44614 25.2939 5.44496C25.4084 5.44433 25.5229 5.4433 25.6373 5.44183C25.7934 5.4399 25.9493 5.4394 26.1053 5.43928C26.1509 5.43837 26.1964 5.43746 26.2433 5.43652C26.4462 5.43779 26.5602 5.44627 26.7227 5.57276Z" fill="#E03226"/>
<path d="M6.45215 27.2939C12.0915 27.2939 17.7309 27.2939 23.5412 27.2939C23.2117 27.6235 23.2117 27.6235 23.0097 27.7395C22.9653 27.7652 22.9209 27.7909 22.8751 27.8174C22.8282 27.8438 22.7812 27.8703 22.7328 27.8975C22.6836 27.9255 22.6344 27.9535 22.5837 27.9823C20.5075 29.1534 18.1385 29.985 15.7317 29.9979C15.6547 29.9986 15.6547 29.9986 15.5761 29.9992C13.1604 30.0142 10.8797 29.6833 8.67607 28.64C8.63911 28.6228 8.60215 28.6055 8.56408 28.5878C8.06181 28.352 7.58033 28.0855 7.10323 27.8024C7.05202 27.7722 7.00082 27.742 6.94806 27.7109C6.90044 27.6822 6.85282 27.6534 6.80375 27.6238C6.76129 27.5983 6.71882 27.5728 6.67507 27.5465C6.5692 27.4695 6.5692 27.4695 6.45215 27.2939Z" fill="#E33426"/>
<path d="M14.7041 2.77246C15.863 2.75656 17.0219 2.74364 18.1809 2.73607C18.7192 2.73246 19.2573 2.72755 19.7955 2.71948C20.265 2.71245 20.7345 2.70794 21.204 2.70638C21.4523 2.70547 21.7004 2.70336 21.9487 2.69821C23.7969 2.66132 23.7969 2.66132 24.4029 3.20898C24.4889 3.29506 24.5713 3.38478 24.6532 3.47475C24.7379 3.54942 24.8233 3.62343 24.9099 3.69582C24.9748 3.75694 25.0392 3.81858 25.1031 3.88076C25.1384 3.91437 25.1736 3.94798 25.21 3.98261C25.3177 4.08577 25.4245 4.18976 25.5311 4.29409C25.5665 4.32865 25.602 4.36321 25.6385 4.39882C25.742 4.5001 25.8452 4.60177 25.9481 4.70376C25.9785 4.73393 26.009 4.7641 26.0403 4.79519C26.5845 5.34184 26.5845 5.34184 26.5845 5.52309C22.664 5.52309 18.7434 5.52309 14.7041 5.52309C14.7041 4.61538 14.7041 3.70768 14.7041 2.77246Z" fill="#E6E3E3"/>
<path d="M0.0732422 13.6581C2.91797 13.6571 5.76269 13.6561 8.60741 13.6556C8.67052 13.6556 8.67052 13.6556 8.7349 13.6556C9.64905 13.6554 10.5632 13.6552 11.4774 13.6551C11.9256 13.655 12.3739 13.6549 12.8222 13.6548C12.8668 13.6548 12.9114 13.6548 12.9574 13.6548C14.4046 13.6546 15.8518 13.6541 17.2991 13.6536C18.7857 13.653 20.2723 13.6527 21.7589 13.6526C21.9686 13.6525 22.1783 13.6525 22.388 13.6525C22.4293 13.6525 22.4706 13.6525 22.5131 13.6525C23.179 13.6524 23.8448 13.6522 24.5107 13.6518C25.1792 13.6515 25.8478 13.6513 26.5164 13.6514C26.879 13.6515 27.2415 13.6514 27.6041 13.6511C27.9355 13.6508 28.2668 13.6508 28.5982 13.651C28.7186 13.651 28.839 13.6509 28.9595 13.6507C29.1221 13.6505 29.2846 13.6506 29.4472 13.6509C29.4949 13.6507 29.5427 13.6505 29.5919 13.6504C29.9139 13.6514 29.9139 13.6514 29.9791 13.7166C29.9848 13.7968 29.9866 13.8773 29.9866 13.9578C29.9868 14.0089 29.987 14.0601 29.9872 14.1128C29.987 14.1963 29.987 14.1963 29.9868 14.2815C29.9869 14.3667 29.9869 14.3667 29.987 14.4536C29.9871 14.574 29.9869 14.6944 29.9867 14.8148C29.9864 14.9995 29.9867 15.1842 29.9871 15.3689C29.987 15.4856 29.987 15.6023 29.9868 15.719C29.987 15.7745 29.9871 15.8301 29.9872 15.8873C29.987 15.9386 29.9868 15.99 29.9866 16.0429C29.9866 16.1109 29.9866 16.1109 29.9865 16.1802C29.9791 16.2916 29.9791 16.2916 29.9205 16.4087C20.0709 16.4087 10.2213 16.4087 0.0732422 16.4087C0.0732422 16.3894 0.0732422 16.3701 0.0732422 16.3502C7.04522 16.3502 14.0172 16.3502 21.2005 16.3502C21.2005 15.4811 21.2005 14.612 21.2005 13.7166C14.2285 13.7166 7.25649 13.7166 0.0732422 13.7166C0.0732422 13.6973 0.0732422 13.678 0.0732422 13.6581Z" fill="#E7E1E1"/>
<path d="M20.9664 19.1592C23.7474 19.1592 26.5285 19.1592 29.3939 19.1592C29.262 19.8184 29.262 19.8184 29.1774 20.0396C29.149 20.114 29.149 20.114 29.1201 20.1899C29.0908 20.2645 29.0908 20.2645 29.061 20.3406C29.0426 20.3893 29.0243 20.4379 29.0053 20.488C28.825 20.9555 28.6123 21.3941 28.3989 21.8513C25.8303 21.8513 23.2617 21.8513 20.6152 21.8513C20.6972 20.95 20.8384 20.0551 20.9664 19.1592Z" fill="#E7E7E7"/>
<path d="M14.7041 0.0220648C16.3684 -0.0153342 17.9101 0.179495 19.5031 0.66583C19.5471 0.678882 19.5912 0.691933 19.6366 0.70538C20.2597 0.890809 20.8471 1.15078 21.4344 1.42664C21.4743 1.44528 21.5142 1.46391 21.5553 1.48311C22.0325 1.70776 22.4902 1.95823 22.9414 2.23135C22.986 2.25827 23.0307 2.28519 23.0767 2.31292C23.1187 2.33881 23.1606 2.3647 23.2038 2.39138C23.2408 2.41414 23.2777 2.43691 23.3158 2.46036C23.4242 2.5386 23.4242 2.5386 23.6583 2.7727C20.7034 2.7727 17.7485 2.7727 14.7041 2.7727C14.7041 1.86499 14.7041 0.95728 14.7041 0.0220648Z" fill="#E13226"/>
<path d="M14.7041 8.27344C16.6547 8.27344 18.6053 8.27344 20.615 8.27344C20.9662 10.1169 20.9662 10.1169 20.9662 10.907C18.8997 10.907 16.8332 10.907 14.7041 10.907C14.7041 10.0379 14.7041 9.16886 14.7041 8.27344Z" fill="#F2F3F4"/>
<path d="M19.8541 24.6025C22.0558 24.6025 24.2575 24.6025 26.5259 24.6025C26.2298 24.9973 25.9364 25.3294 25.5895 25.6743C25.5351 25.7285 25.4807 25.7828 25.4246 25.8387C25.0137 26.2434 24.5909 26.6025 24.1264 26.9435C24.0953 26.9772 24.0641 27.0109 24.032 27.0456C23.6974 27.3759 23.3958 27.3958 22.9494 27.3936C22.7947 27.3906 22.6403 27.3855 22.4857 27.3804C22.3775 27.3783 22.2694 27.3764 22.1612 27.3747C21.878 27.3697 21.5949 27.3622 21.3118 27.3542C21.0223 27.3464 20.7327 27.341 20.4432 27.3355C19.8761 27.3242 19.3091 27.3103 18.7422 27.2946C18.7568 27.2644 18.7714 27.2342 18.7864 27.2031C19.0532 26.6493 19.3179 26.0987 19.5286 25.5206C19.5476 25.47 19.5666 25.4193 19.5861 25.3671C19.6806 25.1135 19.7685 24.8595 19.8541 24.6025Z" fill="#E7E7E7"/>
<path d="M14.7041 2.77246C16.056 2.77246 17.4079 2.77246 18.8008 2.77246C19.0857 3.34237 19.3565 3.89109 19.5872 4.48063C19.6125 4.54374 19.6378 4.60685 19.6639 4.67187C19.7702 4.94008 19.8558 5.18006 19.9127 5.46457C18.1939 5.46457 16.475 5.46457 14.7041 5.46457C14.7041 4.57617 14.7041 3.68778 14.7041 2.77246Z" fill="#F2F3F4"/>
<path d="M2.99923 6.0498C3.15309 6.28059 3.17828 6.48075 3.23333 6.75209C3.44577 6.75209 3.65822 6.75209 3.8771 6.75209C3.60642 7.0374 3.60642 7.0374 3.4089 7.10324C3.49581 7.45087 3.49581 7.45087 3.58448 7.80553C3.35038 7.68848 3.35038 7.68848 3.20773 7.58606C3.06293 7.49596 3.06293 7.49596 2.91511 7.54583C2.74143 7.64326 2.57728 7.75013 2.41399 7.86405C2.47193 7.6323 2.52987 7.40054 2.58957 7.16176C2.51231 7.10382 2.43506 7.04589 2.35547 6.98619C2.43614 6.76192 2.53996 6.58077 2.67735 6.38632C2.71296 6.33532 2.74857 6.28432 2.78526 6.23178C2.88219 6.10833 2.88219 6.10833 2.99923 6.0498Z" fill="#E4E5E9"/>
<path d="M12.8906 11.0244C12.9292 11.0244 12.9678 11.0244 13.0076 11.0244C13.0655 11.2175 13.1235 11.4107 13.1832 11.6097C13.4149 11.629 13.6467 11.6483 13.8855 11.6682C13.7346 11.8231 13.5977 11.9575 13.4173 12.0778C13.4529 12.3321 13.4911 12.5856 13.5343 12.8387C13.4997 12.812 13.4651 12.7852 13.4294 12.7577C13.3831 12.7241 13.3369 12.6904 13.2893 12.6558C13.2438 12.6218 13.1983 12.5879 13.1514 12.5529C13.0092 12.4699 13.0092 12.4699 12.8558 12.5278C12.6842 12.6213 12.5241 12.7269 12.3638 12.8387C12.3765 12.7857 12.3765 12.7857 12.3894 12.7317C12.4003 12.6849 12.4112 12.6381 12.4224 12.5899C12.4332 12.5438 12.4441 12.4976 12.4553 12.45C12.488 12.297 12.488 12.297 12.4809 12.0778C12.3784 11.9898 12.3784 11.9898 12.2468 11.9242C12.1151 11.8524 12.1151 11.8524 12.0127 11.7852C12.0127 11.7466 12.0127 11.708 12.0127 11.6682C12.3603 11.6392 12.3603 11.6392 12.715 11.6097C12.7729 11.4165 12.8309 11.2234 12.8906 11.0244Z" fill="#DDDFE6"/>
<path d="M7.91595 11.0244C7.95457 11.0244 7.9932 11.0244 8.033 11.0244C8.09094 11.2369 8.14887 11.4493 8.20857 11.6682C8.44032 11.6682 8.67208 11.6682 8.91086 11.6682C8.91086 11.7068 8.91086 11.7454 8.91086 11.7852C8.80844 11.8607 8.80844 11.8607 8.67676 11.9389C8.63331 11.965 8.58985 11.9911 8.54508 12.018C8.49439 12.0476 8.49439 12.0476 8.44267 12.0778C8.47504 12.3137 8.51031 12.5472 8.55971 12.7801C8.42399 12.7148 8.3059 12.6489 8.18296 12.5607C8.03738 12.4698 8.03738 12.4698 7.88669 12.5241C7.73802 12.6059 7.59301 12.6925 7.44775 12.7801C7.45741 12.7335 7.46707 12.6869 7.47702 12.6389C7.50747 12.4433 7.52613 12.2751 7.50628 12.0778C7.37302 11.9148 7.2204 11.8276 7.03809 11.7267C7.03809 11.7074 7.03809 11.6881 7.03809 11.6682C7.38572 11.6392 7.38572 11.6392 7.74038 11.6097C7.79831 11.4165 7.85625 11.2234 7.91595 11.0244Z" fill="#DEDFE7"/>
<path d="M2.99986 11.0244C3.14373 11.2402 3.17616 11.4164 3.23396 11.6682C3.46571 11.6682 3.69747 11.6682 3.93625 11.6682C3.93625 11.7068 3.93625 11.7454 3.93625 11.7852C3.78722 11.895 3.62741 11.9832 3.46806 12.0778C3.50668 12.3096 3.54531 12.5414 3.5851 12.7801C3.35101 12.6631 3.35101 12.6631 3.23762 12.5643C3.12173 12.4754 3.12173 12.4754 2.98157 12.4875C2.76468 12.5682 2.59602 12.697 2.41462 12.8387C2.4451 12.7263 2.47558 12.6139 2.50607 12.5015C2.53552 12.3508 2.55131 12.2308 2.53167 12.0778C2.43098 11.9692 2.43098 11.9692 2.29757 11.8876C2.21904 11.8347 2.14086 11.7813 2.06348 11.7267C2.06348 11.7074 2.06348 11.6881 2.06348 11.6682C2.31455 11.6682 2.56561 11.6682 2.82429 11.6682C2.83153 11.6054 2.83877 11.5426 2.84624 11.478C2.87675 11.2949 2.90628 11.1804 2.99986 11.0244Z" fill="#DEE0E7"/>
<path d="M12.8906 3.5918C12.9292 3.5918 12.9678 3.5918 13.0076 3.5918C13.0655 3.80424 13.1235 4.01668 13.1832 4.23556C13.4149 4.23556 13.6467 4.23556 13.8855 4.23556C13.7346 4.39051 13.5977 4.52492 13.4173 4.64523C13.4496 4.88108 13.4849 5.11461 13.5343 5.34752C13.4016 5.28589 13.2979 5.22841 13.1868 5.13171C13.0699 5.04152 13.0699 5.04152 12.9235 5.05856C12.7437 5.12432 12.6268 5.22531 12.4809 5.34752C12.4423 5.34752 12.4036 5.34752 12.3638 5.34752C12.3844 5.2763 12.4049 5.20509 12.426 5.13171C12.4939 4.85576 12.4939 4.85576 12.4224 4.58671C12.3194 4.49977 12.2139 4.42581 12.1003 4.35353C12.0714 4.33391 12.0425 4.3143 12.0127 4.29409C12.0127 4.27477 12.0127 4.25546 12.0127 4.23556C12.2445 4.23556 12.4762 4.23556 12.715 4.23556C12.7729 4.02312 12.8309 3.81068 12.8906 3.5918Z" fill="#E1E2E8"/>
<path d="M10.4325 4.82129C10.6152 5.00404 10.6164 5.21426 10.6666 5.46505C10.9176 5.46505 11.1687 5.46505 11.4274 5.46505C11.1348 5.75768 11.1348 5.75768 10.9592 5.87472C10.9206 5.87472 10.8819 5.87472 10.8421 5.87472C10.8622 5.92135 10.8622 5.92135 10.8826 5.96891C10.8994 6.01025 10.9163 6.05159 10.9336 6.09419C10.9506 6.13493 10.9675 6.17567 10.985 6.21764C11.0223 6.36048 11.0062 6.43892 10.9592 6.57701C10.9323 6.55521 10.9055 6.53341 10.8778 6.51094C10.8419 6.48326 10.806 6.45557 10.769 6.42704C10.7337 6.39921 10.6984 6.37137 10.662 6.34269C10.5531 6.27307 10.5531 6.27307 10.4325 6.29719C10.3127 6.34398 10.2064 6.3978 10.096 6.46362C10.0332 6.50104 9.97043 6.53846 9.90576 6.57701C9.92393 6.49286 9.94225 6.40874 9.96063 6.32463C9.97081 6.27778 9.981 6.23093 9.99149 6.18266C10.0228 6.0503 10.0228 6.0503 10.0813 5.87472C10.05 5.86024 10.0186 5.84575 9.98623 5.83083C9.81379 5.74007 9.65533 5.63577 9.49609 5.52358C9.49609 5.50427 9.49609 5.48495 9.49609 5.46505C9.74716 5.46505 9.99823 5.46505 10.2569 5.46505C10.275 5.38056 10.2931 5.29607 10.3118 5.20901C10.3421 5.06772 10.3678 4.95064 10.4325 4.82129Z" fill="#E1E2E8"/>
<path d="M5.45794 4.82129C5.49657 4.8406 5.53519 4.85991 5.57499 4.87981C5.62838 5.0726 5.65709 5.26784 5.69204 5.46505C5.94311 5.46505 6.19417 5.46505 6.45285 5.46505C6.26989 5.6637 6.12714 5.79316 5.86761 5.87472C5.88764 5.92135 5.88764 5.92135 5.90807 5.96891C5.9249 6.01025 5.94172 6.05159 5.95905 6.09419C5.97603 6.13493 5.993 6.17567 6.01049 6.21764C6.04776 6.36048 6.03162 6.43892 5.98466 6.57701C5.9578 6.55521 5.93094 6.53341 5.90327 6.51094C5.86736 6.48326 5.83145 6.45557 5.79445 6.42704C5.75915 6.39921 5.72384 6.37137 5.68746 6.34269C5.57855 6.27307 5.57855 6.27307 5.45794 6.29719C5.33816 6.34398 5.23184 6.3978 5.12143 6.46362C5.05866 6.50104 4.99589 6.53846 4.93122 6.57701C4.94939 6.49286 4.96771 6.40874 4.98609 6.32463C4.99627 6.27778 5.00646 6.23093 5.01695 6.18266C5.04827 6.0503 5.04827 6.0503 5.1068 5.87472C5.0742 5.85903 5.04161 5.84334 5.00804 5.82717C4.86028 5.7513 4.71836 5.67429 4.58008 5.5821C4.58008 5.54348 4.58008 5.50485 4.58008 5.46505C4.81183 5.46505 5.04359 5.46505 5.28237 5.46505C5.30047 5.38056 5.31858 5.29607 5.33723 5.20901C5.36751 5.06772 5.39326 4.95064 5.45794 4.82129Z" fill="#E1E2E8"/>
<path d="M7.91595 3.5918C7.95457 3.5918 7.9932 3.5918 8.033 3.5918C8.09094 3.80424 8.14887 4.01668 8.20857 4.23556C8.44032 4.23556 8.67208 4.23556 8.91086 4.23556C8.75999 4.39051 8.62313 4.52492 8.44267 4.64523C8.48129 4.87699 8.51992 5.10874 8.55971 5.34752C8.49815 5.3101 8.43659 5.27268 8.37317 5.23413C8.13025 5.09341 8.13025 5.09341 7.85742 5.0549C7.72857 5.14209 7.62186 5.24222 7.50628 5.34752C7.46765 5.34752 7.42903 5.34752 7.38923 5.34752C7.40975 5.2763 7.43027 5.20509 7.45141 5.13171C7.51925 4.85576 7.51925 4.85576 7.44775 4.58671C7.34481 4.49977 7.23933 4.42581 7.12564 4.35353C7.09675 4.33391 7.06786 4.3143 7.03809 4.29409C7.03809 4.27477 7.03809 4.25546 7.03809 4.23556C7.38572 4.20659 7.38572 4.20659 7.74038 4.17704C7.79831 3.98391 7.85625 3.79078 7.91595 3.5918Z" fill="#E2E3E9"/>
<path d="M5.45794 9.7959C5.57499 9.85442 5.57499 9.85442 5.64083 10.019C5.69204 10.2056 5.69204 10.2056 5.69204 10.4397C5.94311 10.4397 6.19417 10.4397 6.45285 10.4397C6.16023 10.7323 6.16023 10.7323 5.98466 10.8493C5.94603 10.8493 5.90741 10.8493 5.86761 10.8493C5.94486 11.0811 6.02211 11.3128 6.10171 11.5516C5.80908 11.4346 5.80908 11.4346 5.68838 11.3358C5.58316 11.2483 5.58316 11.2483 5.46891 11.2627C5.27986 11.3437 5.10791 11.4463 4.93122 11.5516C4.96985 11.3199 5.00847 11.0881 5.04827 10.8493C4.97102 10.7926 4.89377 10.7359 4.81417 10.6774C4.73496 10.6192 4.6566 10.5599 4.58008 10.4982C4.58008 10.4789 4.58008 10.4596 4.58008 10.4397C4.81183 10.4397 5.04359 10.4397 5.28237 10.4397C5.30047 10.3552 5.31858 10.2707 5.33723 10.1836C5.36751 10.0423 5.39326 9.92525 5.45794 9.7959Z" fill="#E2E3E8"/>
<path d="M10.4325 9.7959C10.6152 9.97865 10.6164 10.1889 10.6666 10.4397C10.9176 10.4397 11.1687 10.4397 11.4274 10.4397C11.2452 10.6218 11.1183 10.7284 10.9007 10.8493C10.9091 10.8892 10.9176 10.929 10.9263 10.97C10.9633 11.1632 10.991 11.3568 11.0177 11.5516C10.9873 11.5298 10.9569 11.508 10.9256 11.4856C10.6812 11.3125 10.6812 11.3125 10.3959 11.2553C10.2175 11.3352 10.0641 11.4375 9.90576 11.5516C9.94439 11.3199 9.98301 11.0881 10.0228 10.8493C9.9359 10.7926 9.84899 10.7359 9.75945 10.6774C9.67053 10.6194 9.58242 10.56 9.49609 10.4982C9.49609 10.4789 9.49609 10.4596 9.49609 10.4397C9.74716 10.4397 9.99823 10.4397 10.2569 10.4397C10.275 10.3552 10.2931 10.2707 10.3118 10.1836C10.3421 10.0423 10.3678 9.92525 10.4325 9.7959Z" fill="#E2E3E9"/>
<path d="M7.91595 8.56641C7.95457 8.56641 7.9932 8.56641 8.033 8.56641C8.09094 8.77885 8.14887 8.99129 8.20857 9.21017C8.44032 9.21017 8.67208 9.21017 8.91086 9.21017C8.75999 9.36512 8.62313 9.49953 8.44267 9.61984C8.48129 9.8516 8.51992 10.0834 8.55971 10.3221C8.29899 10.1483 8.29899 10.1483 8.033 9.97099C7.80334 10.0753 7.80334 10.0753 7.64527 10.2124C7.50628 10.3221 7.50628 10.3221 7.38923 10.3221C7.41714 10.227 7.44521 10.1319 7.47336 10.0368C7.48898 9.98387 7.50459 9.93091 7.52068 9.87634C7.5648 9.73689 7.5648 9.73689 7.62333 9.61984C7.59194 9.60536 7.56056 9.59087 7.52823 9.57595C7.35578 9.48519 7.19732 9.38088 7.03809 9.2687C7.03809 9.24938 7.03809 9.23007 7.03809 9.21017C7.38572 9.1812 7.38572 9.1812 7.74038 9.15165C7.79831 8.95852 7.85625 8.76539 7.91595 8.56641Z" fill="#E3E4E9"/>
<path d="M12.8906 8.56641C12.9292 8.56641 12.9678 8.56641 13.0076 8.56641C13.0655 8.77885 13.1235 8.99129 13.1832 9.21017C13.4149 9.21017 13.6467 9.21017 13.8855 9.21017C13.7283 9.36738 13.5944 9.49333 13.4173 9.61984C13.4496 9.85569 13.4849 10.0892 13.5343 10.3221C13.3857 10.2364 13.3857 10.2364 13.2371 10.1507C13.1234 10.0874 13.0069 10.0292 12.8906 9.97099C12.7361 10.0869 12.5815 10.2027 12.4224 10.3221C12.4031 10.2835 12.3837 10.2449 12.3638 10.2051C12.3832 10.1508 12.4025 10.0964 12.4224 10.0405C12.4865 9.83607 12.5076 9.75696 12.4224 9.56132C12.3196 9.47402 12.214 9.40047 12.1003 9.32813C12.0714 9.30852 12.0425 9.2889 12.0127 9.2687C12.0127 9.24938 12.0127 9.23007 12.0127 9.21017C12.2445 9.21017 12.4762 9.21017 12.715 9.21017C12.7729 8.99773 12.8309 8.78529 12.8906 8.56641Z" fill="#E4E5EA"/>
<path d="M2.99986 8.56641C3.18261 8.74915 3.1838 8.95938 3.23396 9.21017C3.46571 9.21017 3.69747 9.21017 3.93625 9.21017C3.78538 9.36512 3.64852 9.49953 3.46806 9.61984C3.50668 9.8516 3.54531 10.0834 3.5851 10.3221C3.32438 10.1483 3.32438 10.1483 3.05839 9.97099C2.8356 10.0732 2.8356 10.0732 2.69993 10.1831C2.59019 10.2636 2.59019 10.2636 2.47315 10.2636C2.50252 10.0454 2.53413 9.83278 2.59019 9.61984C2.55217 9.59517 2.51415 9.5705 2.47497 9.54509C2.40165 9.49699 2.40165 9.49699 2.32684 9.44793C2.25351 9.40006 2.25351 9.40006 2.1787 9.35122C2.14067 9.32399 2.10265 9.29676 2.06348 9.2687C2.06348 9.24938 2.06348 9.23007 2.06348 9.21017C2.41111 9.1812 2.41111 9.1812 2.76577 9.15165C2.84302 8.95852 2.92027 8.76539 2.99986 8.56641Z" fill="#E5E6EA"/>
<path d="M10.4325 2.36328C10.4712 2.38259 10.5098 2.40191 10.5496 2.42181C10.603 2.6146 10.6317 2.80983 10.6666 3.00705C10.8984 3.00705 11.1302 3.00705 11.3689 3.00705C11.2181 3.16199 11.0812 3.29641 10.9007 3.41672C10.9394 3.62916 10.978 3.8416 11.0178 4.06048C10.801 3.97375 10.6273 3.89026 10.4325 3.76786C10.278 3.88374 10.1235 3.99962 9.96436 4.11901C9.92573 4.09969 9.8871 4.08038 9.84731 4.06048C9.93422 3.74182 9.93422 3.74182 10.0229 3.41672C9.94563 3.35998 9.86838 3.30325 9.78878 3.2448C9.70957 3.18663 9.63121 3.12723 9.55469 3.06557C9.55469 3.04626 9.55469 3.02694 9.55469 3.00705C9.78644 3.00705 10.0182 3.00705 10.257 3.00705C10.2751 2.92255 10.2932 2.83806 10.3118 2.751C10.3421 2.60971 10.3679 2.49264 10.4325 2.36328Z" fill="#E6E7EB"/>
<path d="M10.4325 7.33789C10.5496 7.39641 10.5496 7.39641 10.6154 7.56101C10.6666 7.74756 10.6666 7.74756 10.6666 7.98166C10.8984 7.98166 11.1302 7.98166 11.3689 7.98166C11.2181 8.1366 11.0812 8.27102 10.9007 8.39132C10.9394 8.60377 10.978 8.81621 11.0178 9.03509C10.8227 8.93755 10.6276 8.84001 10.4325 8.74247C10.278 8.85835 10.1235 8.97423 9.96436 9.09361C9.92573 9.0743 9.8871 9.05499 9.84731 9.03509C9.93422 8.71643 9.93422 8.71643 10.0229 8.39132C9.94563 8.33459 9.86838 8.27786 9.78878 8.21941C9.70957 8.16124 9.63121 8.10184 9.55469 8.04018C9.55469 8.02087 9.55469 8.00155 9.55469 7.98166C9.78644 7.98166 10.0182 7.98166 10.257 7.98166C10.2751 7.8863 10.2932 7.79094 10.3118 7.69269C10.3667 7.40373 10.3667 7.40373 10.4325 7.33789Z" fill="#E5E6EA"/>
<path d="M12.8906 1.13379C12.9293 1.13379 12.9679 1.13379 13.0077 1.13379C13.0656 1.34623 13.1236 1.55867 13.1832 1.77755C13.3957 1.77755 13.6081 1.77755 13.827 1.77755C13.5563 2.06286 13.5563 2.06286 13.3588 2.1287C13.4457 2.5053 13.4457 2.5053 13.5344 2.88951C13.3429 2.74663 13.3429 2.74663 13.1515 2.60375C13.0093 2.52079 13.0093 2.52079 12.8559 2.5786C12.6843 2.67219 12.5241 2.77773 12.3639 2.88951C12.3822 2.8066 12.4005 2.72369 12.4188 2.64079C12.429 2.59462 12.4391 2.54845 12.4496 2.50088C12.4779 2.37633 12.508 2.25246 12.5395 2.1287C12.5057 2.11421 12.4719 2.09973 12.4371 2.08481C12.2878 2.00189 12.1873 1.90184 12.0713 1.77755C12.2837 1.77755 12.4962 1.77755 12.7151 1.77755C12.773 1.56511 12.8309 1.35267 12.8906 1.13379Z" fill="#E4E5EA"/>
<path d="M5.45794 7.33789C5.57499 7.39641 5.57499 7.39641 5.64083 7.56101C5.69204 7.74756 5.69204 7.74756 5.69204 7.98166C5.92379 7.98166 6.15555 7.98166 6.39433 7.98166C6.24346 8.1366 6.10659 8.27102 5.92613 8.39132C5.96476 8.60377 6.00339 8.81621 6.04318 9.03509C5.80908 8.91804 5.80908 8.91804 5.69569 8.81562C5.57704 8.72453 5.57704 8.72453 5.43234 8.77539C5.26926 8.86687 5.13155 8.97207 4.98975 9.09361C4.95112 9.0743 4.9125 9.05499 4.8727 9.03509C4.95961 8.71643 4.95961 8.71643 5.04827 8.39132C4.97102 8.33459 4.89377 8.27786 4.81417 8.21941C4.73496 8.16124 4.6566 8.10184 4.58008 8.04018C4.58008 8.02087 4.58008 8.00155 4.58008 7.98166C4.81183 7.98166 5.04359 7.98166 5.28237 7.98166C5.30047 7.89716 5.31858 7.81267 5.33723 7.72561C5.36751 7.58432 5.39326 7.46725 5.45794 7.33789Z" fill="#E5E6EA"/>
<path d="M12.8906 6.1084C12.9293 6.1084 12.9679 6.1084 13.0077 6.1084C13.0656 6.32084 13.1236 6.53328 13.1832 6.75216C13.3957 6.75216 13.6081 6.75216 13.827 6.75216C13.6709 6.90823 13.5149 7.06429 13.3588 7.22036C13.3722 7.25212 13.3855 7.28388 13.3993 7.3166C13.4161 7.35847 13.4329 7.40034 13.4503 7.44348C13.4672 7.4849 13.4842 7.52631 13.5017 7.56899C13.5344 7.68855 13.5344 7.68855 13.4759 7.86412C13.4455 7.83742 13.4151 7.81071 13.3837 7.78319C13.262 7.68281 13.1441 7.59251 13.0077 7.51298C12.8476 7.52429 12.8476 7.52429 12.7151 7.63003C12.6511 7.67107 12.5871 7.71211 12.5212 7.75439C12.4693 7.7906 12.4174 7.82681 12.3639 7.86412C12.3766 7.81116 12.3766 7.81116 12.3895 7.75713C12.4004 7.71036 12.4112 7.66359 12.4224 7.61539C12.4333 7.56922 12.4442 7.52305 12.4554 7.47549C12.4881 7.32245 12.4881 7.32245 12.481 7.10331C12.3923 7.01385 12.3923 7.01385 12.2761 6.94603C12.2072 6.90187 12.1388 6.85699 12.0713 6.81069C12.0713 6.79138 12.0713 6.77206 12.0713 6.75216C12.2837 6.75216 12.4962 6.75216 12.7151 6.75216C12.773 6.53972 12.8309 6.32728 12.8906 6.1084Z" fill="#E5E6EA"/>
<path d="M7.91602 6.1084C7.95464 6.1084 7.99327 6.1084 8.03307 6.1084C8.06254 6.19367 8.09176 6.27904 8.12085 6.36444C8.13715 6.41197 8.15344 6.4595 8.17023 6.50847C8.20864 6.63512 8.20864 6.63512 8.20864 6.75216C8.42108 6.75216 8.63352 6.75216 8.8524 6.75216C8.58173 7.03747 8.58173 7.03747 8.38421 7.10331C8.39756 7.14352 8.41092 7.18373 8.42467 7.22516C8.4415 7.27789 8.45832 7.33062 8.47565 7.38496C8.49263 7.43724 8.5096 7.48952 8.52709 7.54338C8.55978 7.68855 8.55978 7.68855 8.50126 7.86412C8.47086 7.83742 8.44045 7.81071 8.40913 7.78319C8.28736 7.68281 8.16945 7.59251 8.03307 7.51298C7.873 7.52429 7.873 7.52429 7.74045 7.63003C7.67647 7.67107 7.6125 7.71211 7.54658 7.75439C7.49468 7.7906 7.44278 7.82681 7.3893 7.86412C7.40197 7.81116 7.40197 7.81116 7.4149 7.75713C7.42577 7.71036 7.43663 7.66359 7.44782 7.61539C7.45869 7.56922 7.46955 7.52305 7.48074 7.47549C7.51346 7.32245 7.51346 7.32245 7.50635 7.10331C7.41766 7.01385 7.41766 7.01385 7.30151 6.94603C7.23261 6.90187 7.16416 6.85699 7.09668 6.81069C7.09668 6.79138 7.09668 6.77206 7.09668 6.75216C7.32844 6.75216 7.56019 6.75216 7.79897 6.75216C7.81164 6.64172 7.81164 6.64172 7.82457 6.52904C7.84213 6.37605 7.86675 6.25621 7.91602 6.1084Z" fill="#E5E6EA"/>
<path d="M8.40187 1.73719C8.46688 1.74257 8.46688 1.74257 8.53321 1.74805C8.63947 1.75696 8.74564 1.76707 8.85178 1.77743C8.5811 2.06273 8.5811 2.06273 8.38358 2.12857C8.40361 2.18889 8.40361 2.18889 8.42405 2.25042C8.44087 2.30315 8.45769 2.35589 8.47503 2.41022C8.492 2.4625 8.50897 2.51478 8.52646 2.56864C8.55915 2.71381 8.55915 2.71381 8.50063 2.88938C8.47023 2.86268 8.43982 2.83597 8.4085 2.80846C8.28673 2.70807 8.16882 2.61777 8.03244 2.53824C7.87237 2.54955 7.87237 2.54955 7.73982 2.65529C7.67584 2.69633 7.61187 2.73737 7.54596 2.77965C7.49405 2.81586 7.44215 2.85208 7.38867 2.88938C7.44661 2.63832 7.50455 2.38725 7.56424 2.12857C7.50631 2.10926 7.44837 2.08994 7.38867 2.07005C7.46567 2.01016 7.54398 1.95197 7.62277 1.89447C7.66381 1.86309 7.70485 1.83171 7.74713 1.79937C7.97088 1.69236 8.16222 1.71299 8.40187 1.73719Z" fill="#E2E2E8"/>
<path d="M6.39377 3.00696C6.2429 3.16191 6.10603 3.29633 5.92557 3.41663C5.9642 3.62908 6.00283 3.84152 6.04262 4.0604C5.82579 3.97367 5.65211 3.89018 5.45738 3.76778C5.19666 3.94159 5.19666 3.94159 4.93066 4.11892C4.96699 3.77747 5.09667 3.64736 5.36228 3.43126C5.4712 3.3473 5.58088 3.26429 5.69148 3.18254C5.73176 3.14866 5.77205 3.11479 5.81356 3.07989C6.00303 2.95654 6.17277 2.99591 6.39377 3.00696Z" fill="#E0E1E8"/>
<path d="M0.717565 10.2637C0.736878 10.3216 0.756191 10.3795 0.776089 10.4392C1.00784 10.4392 1.2396 10.4392 1.47838 10.4392C1.32117 10.5965 1.1873 10.7224 1.01019 10.8489C1.04897 11.2037 1.04897 11.2037 1.12723 11.5512C0.917797 11.4545 0.732301 11.3298 0.541992 11.2001C0.570076 10.8741 0.618024 10.5756 0.717565 10.2637Z" fill="#D9DAE4"/>
<path d="M2.88233 6.1084C2.9382 6.23538 2.94928 6.31694 2.90564 6.44926C2.86133 6.55134 2.8135 6.65187 2.76528 6.75216C2.66871 6.75216 2.57215 6.75216 2.47266 6.75216C2.51874 6.66668 2.56513 6.58137 2.61165 6.49612C2.63745 6.44859 2.66325 6.40106 2.68984 6.3521C2.76528 6.22545 2.76528 6.22545 2.88233 6.1084Z" fill="#504588"/>
<path d="M8.79304 1.42673C8.65785 1.50399 8.52266 1.58124 8.38337 1.66083C8.55719 1.68014 8.731 1.69946 8.91009 1.71935C8.89078 1.75798 8.87146 1.79661 8.85156 1.8364C8.74789 1.82971 8.64426 1.82225 8.54065 1.81446C8.48294 1.81038 8.42523 1.80631 8.36577 1.80211C8.2078 1.77788 8.2078 1.77788 8.03223 1.66083C8.12573 1.61013 8.2197 1.56031 8.31387 1.51086C8.36615 1.48302 8.41844 1.45519 8.4723 1.42651C8.61747 1.36821 8.61747 1.36821 8.79304 1.42673Z" fill="#585191"/>
<path d="M5.39893 3.41602C5.39893 3.59159 5.39893 3.59159 5.30931 3.68555C5.27129 3.7161 5.23327 3.74665 5.19409 3.77813C5.15607 3.80914 5.11805 3.84015 5.07887 3.87209C5.0493 3.8954 5.01973 3.91872 4.98926 3.94273C5.03661 3.66224 5.18004 3.58368 5.39893 3.41602Z" fill="#BABFD6"/>
</svg>
